<?xml version="1.0" standalone="no"?>
<!DOCTYPE svg PUBLIC "-//W3C//DTD SVG 1.1//EN" "http://www.w3.org/Graphics/SVG/1.1/DTD/svg11.dtd" >
<svg xmlns="http://www.w3.org/2000/svg" xmlns:xlink="http://www.w3.org/1999/xlink" version="1.1">
<metadata>
Created by FontForge 20190801 at Fri Mar 20 07:43:41 2015
 By www-data
Copyright 2010 AE Type. http://www.aetype.com Administration Contact: info@aetype.com
</metadata>
<defs>
<font id="vanitas" horiz-adv-x="1168" >
  <font-face 
    font-family="vanitas"
    font-weight="400"
    font-stretch="normal"
    units-per-em="2048"
    panose-1="2 0 5 3 0 0 0 2 0 3"
    ascent="1638"
    descent="-410"
    x-height="899"
    cap-height="1391"
    bbox="-313 -496 2320 1929"
    underline-thickness="0"
    underline-position="0"
    unicode-range="U+0020-FB06"
  />
<missing-glyph horiz-adv-x="1026" 
d="M130 0v1391h766v-1391h-766zM160 30h705v1331h-705v-1331z" />
    <glyph glyph-name="AE" unicode="AE" horiz-adv-x="1640" 
d="M1537 1391v-29h-463v-638h364v-29h-364v-666h463v-29h-586v548h-507l-352 -548h-36l895 1391h586zM951 577v757l-488 -757h488z" />
    <glyph glyph-name="ae" unicode="ae" horiz-adv-x="1505" 
d="M1036 916q175 0 277.5 -122.5t104.5 -313.5h-648v-30q0 -170 50 -265.5t111 -133t129 -37.5t134 23.5t108.5 74t52.5 73.5v-76q-8 -14 -73 -68.5t-210 -54.5q-284 0 -371 264q-25 -126 -113 -195t-216 -69t-208.5 64t-80.5 176t77 174.5t153.5 91t172.5 64.5t137 67
t41 101t-48 117t-143 47q-133 0 -205 -63.5t-81 -81.5v76q60 60 150.5 78.5t145.5 18.5q212 0 273 -146q105 146 280 146zM1046 888q-124 0 -194.5 -101.5t-80.5 -277.5h528q-2 176 -65.5 277.5t-187.5 101.5zM670 478v100q0 57 -1 77q-18 -43 -61.5 -70t-164.5 -79
t-182.5 -114t-61.5 -163t58.5 -158t156.5 -57t179.5 76.5t94.5 205.5q-18 81 -18 182z" />
    <glyph glyph-name="OE" unicode="OE" horiz-adv-x="2284" 
d="M1416 0v296q-8 -18 -38.5 -57.5t-86.5 -95.5t-179.5 -113t-283.5 -57q-159 0 -295 56.5t-234 153t-156 230.5t-58 282.5t58 282t156 230t234.5 153t254.5 56.5t199 -18t170.5 -62t156 -112.5t92.5 -112.5l10 -18v297h765v-29h-642v-638h543v-29h-543v-666h642v-29h-765z
M224 694q0 -190 79.5 -349t216.5 -251t280 -92t253.5 54.5t190 147t126 221t46.5 271t-46.5 270.5t-126 220.5t-190 147.5t-253.5 55t-280 -92.5t-216.5 -252.5t-79.5 -350z" />
    <glyph glyph-name="oe" unicode="oe" horiz-adv-x="1614" 
d="M503 916q220 0 324 -208q48 99 135.5 153.5t194.5 54.5q163 0 266 -122.5t105 -313.5h-648v-30q0 -173 50 -267t110 -131.5t130 -37.5q125 0 194.5 56t99.5 116v-77q-9 -16 -73 -69.5t-212 -53.5q-147 0 -242 74.5t-133 212.5q-22 -124 -80 -182t-114 -81.5t-125 -23.5
q-180 0 -287.5 128t-107.5 334t115.5 337t297.5 131zM1156 888q-124 0 -194.5 -101.5t-80.5 -277.5h528q-2 176 -65.5 277.5t-187.5 101.5zM489 14q132 0 211.5 88.5t90.5 230.5q-11 71 -12 145q0 152 -49.5 243.5t-106.5 129t-130 37.5q-136 0 -211 -120t-75 -320t75 -317
t207 -117z" />
    <glyph glyph-name="uniFB00" unicode="ff" horiz-adv-x="1213" 
d="M220 0v870h-153v29h153v105q0 265 113.5 335.5t217.5 70.5q105 0 189 -54q-14 -17 -25 -36q-28 25 -77.5 43t-91.5 18q-86 0 -150.5 -63.5t-64.5 -212.5v-206h424v105q0 265 113 335.5t217 70.5q105 0 190 -54q-14 -17 -26 -36q-28 25 -77.5 43t-91.5 18
q-85 0 -150 -63.5t-65 -212.5v-206h271v-29h-271v-870h-110v870h-424v-870h-111z" />
    <glyph glyph-name="uniFB01" unicode="fi" horiz-adv-x="1003" 
d="M220 0v870h-153v29h153v105q0 265 113.5 335.5t217.5 70.5q105 0 189 -54q-14 -17 -25 -36q-28 25 -77.5 43t-91.5 18q-86 0 -150.5 -63.5t-64.5 -212.5v-206h534v-899h-110v870h-424v-870h-111z" />
    <glyph glyph-name="uniFB02" unicode="fl" horiz-adv-x="1003" 
d="M220 0v870h-153v29h153v105q0 407 352 406q80 0 153.5 -20t105.5 -40l34 -20v-1330h-110v1355q-120 40 -272 13.5t-152 -263.5v-206h252v-29h-252v-870h-111z" />
    <glyph glyph-name="uniFB03" unicode="ffi" horiz-adv-x="1538" 
d="M220 0v870h-153v29h153v105q0 265 113.5 335.5t217.5 70.5q105 0 189 -54q-14 -17 -25 -36q-28 25 -77.5 43t-91.5 18q-86 0 -150.5 -63.5t-64.5 -212.5v-206h424v105q0 265 113 335.5t217 70.5q105 0 190 -54q-14 -17 -26 -36q-28 25 -77.5 43t-91.5 18
q-85 0 -150 -63.5t-65 -212.5v-206h535v-899h-111v870h-424v-870h-110v870h-424v-870h-111z" />
    <glyph glyph-name="uniFB04" unicode="ffl" horiz-adv-x="1538" 
d="M220 0v870h-153v29h153v105q0 265 113.5 335.5t217.5 70.5q105 0 189 -54q-14 -17 -25 -36q-28 25 -77.5 43t-91.5 18q-86 0 -150.5 -63.5t-64.5 -212.5v-206h424v105q0 407 352 406q80 0 153 -20t106 -40l34 -20v-1330h-111v1355q-120 40 -272 13.5t-152 -263.5v-206
h252v-29h-252v-870h-110v870h-424v-870h-111z" />
    <glyph glyph-name="f_b.liga" unicode="fb" horiz-adv-x="1679" 
d="M220 0v870h-153v29h153v105q0 407 352 406q80 0 153.5 -20t105.5 -40l34 -20v-602q99 188 313 188q182 0 301.5 -134.5t119.5 -331.5t-119.5 -330.5t-301.5 -133.5q-213 0 -313 186v-172h-110v1355q-120 40 -272 13.5t-152 -263.5v-206h252v-29h-252v-870h-111z
M865 449.5q0 -192.5 84 -314t228.5 -121.5t225.5 121t81 314.5t-81 316t-225 122.5t-228.5 -123t-84.5 -315.5z" />
    <glyph glyph-name="f_f_b.liga" unicode="ffb" horiz-adv-x="2213" 
d="M220 0v870h-153v29h153v105q0 265 113.5 335.5t217.5 70.5q105 0 189 -54q-14 -17 -25 -36q-28 25 -77.5 43t-91.5 18q-86 0 -150.5 -63.5t-64.5 -212.5v-206h424v105q0 407 352 406q80 0 153 -20t106 -40l34 -20v-602q99 188 312 188q182 0 302 -134.5t120 -331.5
t-120 -330.5t-302 -133.5q-213 0 -312 186v-172h-111v1355q-120 40 -272 13.5t-152 -263.5v-206h252v-29h-252v-870h-110v870h-424v-870h-111zM1400 449.5q0 -192.5 84 -314t228.5 -121.5t225 121t80.5 314.5t-81 316t-225 122.5t-228 -123t-84 -315.5z" />
    <glyph glyph-name="f_f_h.liga" unicode="ffh" horiz-adv-x="2166" 
d="M220 0v870h-153v29h153v105q0 265 113.5 335.5t217.5 70.5q105 0 189 -54q-14 -17 -25 -36q-28 25 -77.5 43t-91.5 18q-86 0 -150.5 -63.5t-64.5 -212.5v-206h424v105q0 407 352 406q80 0 153 -20t106 -40l34 -20v-782q49 264 169.5 316t186.5 52q141 0 216 -97.5
t75 -245.5v-573h-111v573q0 149 -41.5 232t-154.5 83q-79 0 -145.5 -45t-130.5 -156t-64 -283v-404h-111v1355q-120 40 -272 13.5t-152 -263.5v-206h252v-29h-252v-870h-110v870h-424v-870h-111z" />
    <glyph glyph-name="f_f_j.liga" unicode="ffj" horiz-adv-x="1538" 
d="M220 0v870h-153v29h153v105q0 265 113.5 335.5t217.5 70.5q105 0 189 -54q-14 -17 -25 -36q-28 25 -77.5 43t-91.5 18q-86 0 -150.5 -63.5t-64.5 -212.5v-206h424v105q0 265 113 335.5t217 70.5q105 0 190 -54q-14 -17 -26 -36q-28 25 -77.5 43t-91.5 18
q-85 0 -150 -63.5t-65 -212.5v-206h535v-588q0 -296 -63 -448.5t-129 -228t-143 -103.5v23q95 74 159.5 203.5t64.5 478.5v634h-424v-870h-110v870h-424v-870h-111z" />
    <glyph glyph-name="f_f_k.liga" unicode="ffk" horiz-adv-x="2112" 
d="M220 0v870h-153v29h153v105q0 265 113.5 335.5t217.5 70.5q105 0 189 -54q-14 -17 -25 -36q-28 25 -77.5 43t-91.5 18q-86 0 -150.5 -63.5t-64.5 -212.5v-206h424v105q0 407 352 406q80 0 153 -20t106 -40l34 -20v-1048l527 617h40l-297 -346l417 -553h-137l-353 468
l-197 -232v-236h-111v1355q-120 40 -272 13.5t-152 -263.5v-206h252v-29h-252v-870h-110v870h-424v-870h-111z" />
    <glyph glyph-name="f_h.liga" unicode="fh" horiz-adv-x="1632" 
d="M220 0v870h-153v29h153v105q0 407 352 406q80 0 153.5 -20t105.5 -40l34 -20v-782q33 178 129.5 273t232.5 95t210.5 -97.5t74.5 -245.5v-573h-110v573q0 146 -41 230.5t-156 84.5q-79 0 -145.5 -45t-130.5 -156t-64 -283v-404h-110v1355q-120 40 -272 13.5t-152 -263.5
v-206h252v-29h-252v-870h-111z" />
    <glyph glyph-name="f_j.liga" unicode="fj" horiz-adv-x="1003" 
d="M220 0v870h-153v29h153v105q0 265 113.5 335.5t217.5 70.5q105 0 189 -54q-14 -17 -25 -36q-28 25 -77.5 43t-91.5 18q-86 0 -150.5 -63.5t-64.5 -212.5v-206h534v-588q0 -298 -62 -448.5t-130.5 -228.5t-142.5 -103v23q159 125 192 309.5t33 372.5v634h-424v-870h-111z
" />
    <glyph glyph-name="f_k.liga" unicode="fk" horiz-adv-x="1577" 
d="M220 0v870h-153v29h153v105q0 407 352 406q80 0 153.5 -20t105.5 -40l34 -20v-1048l528 617h40l-297 -346l416 -553h-137l-352 468l-198 -232v-236h-110v1355q-120 40 -272 13.5t-152 -263.5v-206h252v-29h-252v-870h-111z" />
    <glyph glyph-name="f_f_y.liga" unicode="ffy" horiz-adv-x="2049" 
d="M220 0v870h-153v29h153v105q0 265 113.5 335.5t217.5 70.5q105 0 189 -54q-14 -17 -25 -36q-28 25 -77.5 43t-91.5 18q-86 0 -150.5 -63.5t-64.5 -212.5v-206h424v105q0 265 113 335.5t217 70.5q105 0 190 -54q-14 -17 -26 -36q-28 25 -77.5 43t-91.5 18
q-85 0 -150 -63.5t-65 -212.5v-206h440l328 -747l329 747h32l-601 -1368h-33l213 483l-376 856h-332v-870h-110v870h-424v-870h-111z" />
    <glyph glyph-name=".notdef" horiz-adv-x="1026" 
d="M130 0v1391h766v-1391h-766zM160 30h705v1331h-705v-1331z" />
    <glyph glyph-name="glyph1" horiz-adv-x="0" 
 />
    <glyph glyph-name="glyph2" horiz-adv-x="681" 
 />
    <glyph glyph-name="space" unicode=" " horiz-adv-x="467" 
 />
    <glyph glyph-name="exclam" unicode="!" horiz-adv-x="390" 
d="M194.5 1417q62.5 0 62.5 -78l-48 -1027h-29l-48 1027q0 78 62.5 78zM110 66.5q0 35.5 24.5 60t60 24.5t61 -24.5t25.5 -60t-25.5 -60t-60.5 -24.5t-60 24.5t-25 60z" />
    <glyph glyph-name="quotedbl" unicode="&#x22;" horiz-adv-x="543" 
d="M150.5 1428q21.5 0 36.5 -14.5t15 -43.5l-41 -413h-31l-31 413q0 29 15 43.5t36.5 14.5zM393.5 1428q21.5 0 36 -14.5t14.5 -43.5l-41 -413h-30l-31 413q0 29 15 43.5t36.5 14.5z" />
    <glyph glyph-name="numbersign" unicode="#" horiz-adv-x="1191" 
d="M106 -68l189 483h-226l50 128h226l120 305h-226l50 128h226l188 482h31l-189 -482h321l189 482h30l-189 -482h227l-50 -128h-227l-119 -305h226l-50 -128h-226l-189 -483h-30l188 483h-320l-189 -483h-31zM376 543h320l120 305h-321z" />
    <glyph glyph-name="dollar" unicode="$" horiz-adv-x="1009" 
d="M417 -193h-29l170 1777h30zM503 1389q-58 0 -125.5 -27t-113.5 -81.5t-46 -110.5t18 -95t35.5 -63.5t71.5 -65t114 -77.5q61 -38 103 -64t134 -88t158.5 -154t66.5 -212q0 -212 -157 -286t-301 -74q-145 0 -236 49.5t-107 61.5l-17 14v68q15 -17 113 -91t275 -74
q131 0 229 78t98 195t-82.5 203t-232.5 187q-150 100 -177 122t-57.5 49t-65 72t-50.5 88t-16 97q0 98 85.5 202.5t303.5 104.5q62 0 127 -14t98 -29l32 -14v-63q-53 53 -136.5 72.5t-141.5 19.5z" />
    <glyph glyph-name="percent" unicode="%" horiz-adv-x="1588" 
d="M343 -100l868 1592h33l-868 -1592h-33zM399.5 729q-141.5 0 -238 99t-96.5 240t96.5 241t238 100t237.5 -100t96 -241t-96 -240t-237.5 -99zM399.5 756q74.5 0 126.5 46.5t73 114t21 151.5t-21 152t-73 115t-126.5 47t-126.5 -47t-73 -115t-21 -152t21 -151.5t73 -114
t126.5 -46.5zM855 320.5q0 141.5 97 241.5t238 100t237.5 -100t96.5 -241.5t-96.5 -240t-237.5 -98.5t-238 98.5t-97 240zM970 320.5q0 -83.5 21 -151.5t72.5 -114.5t126.5 -46.5t126.5 46.5t72.5 114.5t21 151.5t-21 152t-72.5 115.5t-126.5 47t-126.5 -47t-72.5 -115.5
t-21 -152z" />
    <glyph glyph-name="ampersand" unicode="&#x26;" horiz-adv-x="1284" 
d="M520 -27q-229 0 -353.5 104.5t-124.5 277.5t110.5 280.5t271.5 215.5l-32 41q-119 148 -119 271t69.5 188.5t183.5 65.5t174.5 -66.5t60.5 -159.5t-63.5 -161t-160.5 -135l505 -634q99 162 119 404h25q-22 -262 -125 -427l189 -238h-147l-116 144q-166 -171 -467 -171z
M539 2q272 0 431 165l-528 660q-147 -115 -210 -226t-63 -257t97.5 -244t272.5 -98zM371 1241q0 -55 8 -106.5t107 -176.5l34 -43q162 113 162 284q0 88 -41 139t-117 51t-114.5 -46.5t-38.5 -101.5z" />
    <glyph glyph-name="quotesingle" unicode="'" horiz-adv-x="301" 
d="M150.5 1428q21.5 0 36.5 -14.5t15 -43.5l-41 -413h-31l-31 413q0 29 15 43.5t36.5 14.5z" />
    <glyph glyph-name="parenleft" unicode="(" horiz-adv-x="585" 
d="M112 459v4q0 359 102.5 557t168.5 268.5t86 85.5l21 17h41q-16 -10 -53.5 -52t-89.5 -122.5t-106 -275.5t-54 -478v-4q0 -390 83.5 -585t135 -256t67.5 -75l17 -12h-41q-20 12 -66.5 60t-112 133t-132.5 278t-67 457z" />
    <glyph glyph-name="parenright" unicode=")" horiz-adv-x="585" 
d="M474 463v-4q0 -361 -104 -560t-168.5 -267.5t-84.5 -84.5l-22 -16h-41q18 12 54.5 52.5t87 117.5t106 272t55.5 486v4q0 572 -134.5 737t-150.5 178l-18 13h41q22 -14 68 -61t111.5 -132t132.5 -278t67 -457z" />
    <glyph glyph-name="asterisk" unicode="*" horiz-adv-x="889" 
d="M443 705q-20 0 -34 15.5t-12 36.5l36 325v21l-36 320q-2 20 12 36.5t34 16.5h2q20 0 34.5 -16t12.5 -37l-37 -320v-21l37 -325q2 -20 -12 -36t-35 -16h-2zM104 926q0 26 28 38l297 129q8 3 17 10l265 195q32 23 53 2t21 -46t-27 -37l-300 -133q-9 -3 -18 -10l-261 -192
q-32 -23 -53.5 -2.5t-21.5 46.5zM104 1254q0 25 14 39t32 14t29 -9l264 -195q9 -7 18 -10l297 -129q28 -12 28 -37t-14 -39t-32 -14t-29 8l-261 192q-9 7 -18 10l-300 133q-28 12 -28 37z" />
    <glyph glyph-name="plus" unicode="+" horiz-adv-x="1122" 
d="M112 466v29h435v436h28v-436h436v-29h-436v-434h-28v434h-435z" />
    <glyph glyph-name="comma" unicode="," horiz-adv-x="423" 
d="M194 -254q91 68 91 200q0 44 -20 80q-7 -16 -28 -30t-50 -14t-53 22t-24 60t27 63.5t77 25.5t85.5 -46t35.5 -107q0 -109 -47.5 -173t-79.5 -85l-14 -10v14z" />
    <glyph glyph-name="hyphen" unicode="-" horiz-adv-x="830" 
d="M112 434v29h607v-29h-607z" />
    <glyph glyph-name="period" unicode="." horiz-adv-x="390" 
d="M110 66.5q0 35.5 24.5 60t60 24.5t61 -24.5t25.5 -60t-25.5 -60t-60.5 -24.5t-60 24.5t-25 60z" />
    <glyph glyph-name="slash" unicode="/" horiz-adv-x="832" 
d="M69 -152l664 1695h31l-665 -1695h-30z" />
    <glyph glyph-name="zero" unicode="0" horiz-adv-x="1178" 
d="M589 -27q-93 0 -180 50t-156.5 140t-111.5 228.5t-42 286.5t39.5 315.5t168.5 295.5t282 128q93 0 180.5 -50t156.5 -139.5t111 -228.5t42 -304t-42 -303.5t-111 -228.5t-156.5 -140t-180.5 -50zM590 2q168 0 264.5 177t96.5 516t-96.5 516.5t-264.5 177.5t-265.5 -177.5
t-97.5 -516.5t97.5 -516t265.5 -177z" />
    <glyph glyph-name="one" unicode="1" horiz-adv-x="1053" 
d="M28 0v29h448v1263l-294 -212v36l417 301v-1388h448v-29h-1019z" />
    <glyph glyph-name="two" unicode="2" horiz-adv-x="1007" 
d="M632.5 1304.5q-72.5 84.5 -194.5 84.5t-200.5 -75.5t-112.5 -165.5v92q65 114 167.5 145.5t183.5 31.5t152 -30.5t138 -111t67 -238.5q0 -204 -115 -376.5t-243 -309.5t-245 -222l-21 -16h745l-42 -113h-872q30 21 115 99.5t196 195.5t232.5 331t121.5 404t-72.5 274.5z
" />
    <glyph glyph-name="three" unicode="3" horiz-adv-x="1060" 
d="M542 811q178 90 178 323q0 120 -65.5 187.5t-178.5 67.5q-65 0 -121.5 -25t-109.5 -78.5t-79 -113.5l-10 -24v93q9 22 81 99t266 77q147 0 238.5 -85.5t91.5 -201.5q0 -223 -198 -327q156 -27 254.5 -135t98.5 -284t-128 -293.5t-372 -117.5t-389 125v69q13 -19 103 -92
t266 -73t281 104t105 268t-74.5 271t-213.5 129q-112 -39 -248 -39l15 29q26 16 88 31.5t121 15.5z" />
    <glyph glyph-name="four" unicode="4" horiz-adv-x="1223" 
d="M837 458h324v-29h-324v-429h-123v429h-664l787 989v-960zM714 458v754l-602 -754h602z" />
    <glyph glyph-name="five" unicode="5" horiz-adv-x="1064" 
d="M848 468q0 217 -105.5 343.5t-282.5 126.5q-99 0 -185 -41.5t-133 -121.5h-25l90 615h662l-40 -113h-612l-61 -444q43 51 120.5 92.5t197.5 41.5q217 0 359.5 -139.5t142.5 -351.5q0 -151 -104 -327t-400 -176q-170 0 -251 50t-106 75v68q16 -22 101 -93t256 -71
t273.5 124.5t102.5 341.5z" />
    <glyph glyph-name="six" unicode="6" horiz-adv-x="1119" 
d="M572 967q99 0 183 -34.5t150 -96.5t106 -156.5t40 -206.5t-42 -207.5t-150 -194t-294 -98.5t-294 100t-150 208.5t-42 236.5t25.5 236t68.5 191t126 182t220 178t269 112v-28q-159 -40 -321.5 -199.5t-233.5 -411.5q58 90 149 139.5t190 49.5zM207 463q0 -217 95.5 -339
t259.5 -122t262.5 128t98.5 342t-95.5 340t-259.5 126t-262.5 -129t-98.5 -346z" />
    <glyph glyph-name="seven" unicode="7" horiz-adv-x="1045" 
d="M91 1362v29h892l-623 -1391h-131l612 1362h-750z" />
    <glyph glyph-name="eight" unicode="8" horiz-adv-x="1145" 
d="M69 349q0 276 393 427q-125 71 -193.5 149.5t-68.5 198.5t104 206t268 86t263 -90t99 -198t-74.5 -184.5t-192.5 -126.5q178 -89 254.5 -151.5t116 -135.5t39.5 -172q0 -169 -130 -277t-365 -108t-374 101t-139 275zM859 1122q0 117 -80.5 192t-208.5 75t-204 -65.5
t-76 -162.5t80.5 -168.5t146.5 -102.5t116 -56q226 98 226 288zM174 356q0 -91 38 -162t129 -131.5t229 -60.5q187 0 294.5 93t107.5 233t-111.5 219t-224.5 137t-144 76q-318 -142 -318 -404z" />
    <glyph glyph-name="nine" unicode="9" horiz-adv-x="1119" 
d="M548 424q-98 0 -182.5 34.5t-151 96t-106 156.5t-39.5 207t42 207.5t148.5 193.5t294.5 98t295 -99.5t149 -208.5t42 -237t-25.5 -236t-68.5 -191t-125 -181t-221.5 -178.5t-268.5 -112.5v29q158 40 321 198.5t234 411.5q-58 -90 -149 -139t-189 -49zM912 928
q0 217 -95 339t-259 122t-262.5 -128t-98.5 -342t94.5 -340t258.5 -126t263 129t99 346z" />
    <glyph glyph-name="colon" unicode=":" horiz-adv-x="390" 
d="M196 748q-36 0 -61 24t-25 60t24.5 60t60 24t61 -24.5t25.5 -59.5t-24.5 -59.5t-60.5 -24.5zM110 66.5q0 35.5 24.5 60t60 24.5t61 -24.5t25.5 -60t-25.5 -60t-60.5 -24.5t-60 24.5t-25 60z" />
    <glyph glyph-name="semicolon" unicode=";" horiz-adv-x="423" 
d="M196 748q-36 0 -61 24t-25 60t24.5 60t60 24t61 -24.5t25.5 -59.5t-24.5 -59.5t-60.5 -24.5zM194 -254q91 68 91 200q0 44 -20 80q-7 -16 -28 -30t-50 -14t-53 22t-24 60t27 63.5t77 25.5t85.5 -46t35.5 -107q0 -109 -47.5 -173t-79.5 -85l-14 -10v14z" />
    <glyph glyph-name="less" unicode="&#x3c;" horiz-adv-x="1084" 
d="M81 465v30l892 387v-33l-853 -369l853 -369v-33z" />
    <glyph glyph-name="equal" unicode="=" horiz-adv-x="1115" 
d="M112 625v28h892v-28h-892zM112 308v29h892v-29h-892z" />
    <glyph glyph-name="greater" unicode="&#x3e;" horiz-adv-x="1084" 
d="M1004 495v-30l-892 -387v33l853 369l-853 369v33z" />
    <glyph glyph-name="question" unicode="?" horiz-adv-x="948" 
d="M343 312v172q8 3 23 8.5t57.5 27t111.5 68t143 156t74 268.5t-82.5 268t-239.5 109q-156 0 -244 -77.5t-121 -163.5v92q65 113 181 145t210 32t180 -32.5t170 -119t84 -250.5q0 -165 -100 -282t-218 -182t-172 -82l-28 -9v-148h-29zM272 66.5q0 35.5 25 60t60.5 24.5
t60.5 -24.5t25 -60t-25 -60t-60.5 -24.5t-60.5 24.5t-25 60z" />
    <glyph glyph-name="at" unicode="@" horiz-adv-x="1637" 
d="M756 -223q-124 0 -251.5 46t-221 129.5t-146 208t-52.5 282.5t65.5 312t176 268t266.5 182t337 68t326.5 -83t220.5 -221.5t75 -294.5t-49 -270t-139 -180.5t-204 -66.5q-186 0 -186 174v16q-102 -190 -274 -190q-89 0 -146.5 66.5t-57.5 189.5t57 235.5t148 179.5
t187 67q138 0 156.5 -83.5t18.5 -119.5l55 182h107l-122 -398q-37 -119 -37 -170q0 -102 114 -102q95 0 171 66.5t116 172.5t40 228q0 252 -167.5 411.5t-420.5 159.5q-203 0 -371 -105t-264.5 -285t-96.5 -380t69.5 -341.5t212.5 -225.5t359 -84t352.5 69.5t160.5 86.5
l26 19l14 -22q-31 -24 -101.5 -63t-136 -65t-164.5 -47.5t-223 -21.5zM610 418q0 -201 141 -201q67 0 123 52t107 170.5t51 240.5q0 71 -31.5 119.5t-105.5 48.5t-141.5 -64t-105.5 -163t-38 -203z" />
    <glyph glyph-name="A" unicode="A" horiz-adv-x="1257" 
d="M69 0l560 1426l560 -1426h-129l-170 434h-620l-170 -434h-31zM282 463h597l-298 760z" />
    <glyph glyph-name="B" unicode="B" horiz-adv-x="1082" 
d="M130 0v1391h271q187 0 314 -72t127 -228q0 -114 -71 -187.5t-189 -104.5q256 -30 344.5 -158t88.5 -231q0 -198 -154.5 -304t-367.5 -106h-363zM253 804h165q155 0 234.5 73.5t79.5 205.5t-80 205.5t-234 73.5h-165v-558zM253 29h221q191 0 299 100.5t108 271.5
t-107.5 272.5t-299.5 101.5h-221v-746z" />
    <glyph glyph-name="C" unicode="C" horiz-adv-x="1390" 
d="M85 695q0 151 56.5 285t152.5 230t230.5 151.5t286.5 55.5q233 0 422 -98v-73q-180 142 -422 143q-164 0 -298.5 -91.5t-211 -250.5t-76.5 -353t76.5 -352t211 -249t282.5 -91q283 0 476 186v-78q-182 -136 -460 -137q-152 0 -286.5 56t-230.5 151.5t-152.5 229.5
t-56.5 285z" />
    <glyph glyph-name="D" unicode="D" horiz-adv-x="1312" 
d="M130 0v1391h358q205 0 376 -88.5t272.5 -248.5t101.5 -358.5t-101.5 -359t-272.5 -248.5t-376 -88h-358zM253 29h231q125 0 239 49.5t198.5 136.5t134 212t49.5 268.5t-49.5 268.5t-134 212t-198.5 136.5t-239 49.5h-231v-1333z" />
    <glyph glyph-name="E" unicode="E" horiz-adv-x="998" 
d="M130 0v1391h765v-29h-642v-638h543v-29h-543v-666h642v-29h-765z" />
    <glyph glyph-name="F" unicode="F" horiz-adv-x="967" 
d="M130 0v1391h765v-29h-642v-638h543v-29h-543v-695h-123z" />
    <glyph glyph-name="G" unicode="G" horiz-adv-x="1483" 
d="M1279 1230q-179 159 -475 159q-148 0 -284.5 -91.5t-216 -250.5t-79.5 -351.5t79.5 -352.5t216.5 -250.5t301 -90.5q247 0 413 112v596h122v-584q-213 -153 -535 -153q-202 0 -370.5 94.5t-267 260.5t-98.5 342t58 310t156.5 230t235 151.5t286.5 55.5q261 0 458 -114
v-73z" />
    <glyph glyph-name="H" unicode="H" horiz-adv-x="1369" 
d="M130 0v1391h123v-667h863v667h123v-1391h-123v695h-863v-695h-123z" />
    <glyph glyph-name="I" unicode="I" horiz-adv-x="406" 
d="M142 0v1391h122v-1391h-122z" />
    <glyph glyph-name="J" unicode="J" horiz-adv-x="406" 
d="M142 209v1182h122v-1106q0 -280 -75.5 -435t-140 -219.5t-100 -85t-82.5 -41.5v29q47 33 108.5 89t114.5 198t53 389z" />
    <glyph glyph-name="K" unicode="K" horiz-adv-x="1206" 
d="M130 0v1391h123v-927l718 927h39l-426 -549l588 -842h-144l-520 743l-255 -328v-415h-123z" />
    <glyph glyph-name="L" unicode="L" horiz-adv-x="901" 
d="M130 0v1391h123v-1362h569v-29h-692z" />
    <glyph glyph-name="M" unicode="M" horiz-adv-x="1891" 
d="M110 0l208 1414l623 -1270l632 1270l209 -1414h-124l-173 1172l-593 -1196l-583 1187l-170 -1163h-29z" />
    <glyph glyph-name="N" unicode="N" horiz-adv-x="1315" 
d="M130 0v1414l1027 -1213v1190h29v-1415l-1027 1215v-1191h-29z" />
    <glyph glyph-name="O" unicode="O" horiz-adv-x="1639" 
d="M85 718q0 177 98.5 343.5t267.5 261t345 94.5t311 -55.5t233.5 -151.5t156 -230t57.5 -286t-57.5 -287.5t-156 -229.5t-234 -149t-286 -55t-286.5 55t-234.5 149t-156.5 229t-58 312zM224 670q0 -169 78 -327.5t214.5 -249.5t303.5 -91t304 91t214.5 250t77.5 327
t-46 297.5t-125 221.5t-189.5 146t-235.5 54t-235.5 -54t-189.5 -146t-125 -221t-46 -298z" />
    <glyph glyph-name="P" unicode="P" horiz-adv-x="1028" 
d="M130 0v1391h350q202 0 343 -94t141 -283q0 -125 -99.5 -250.5t-384.5 -125.5h-227v-638h-123zM253 667h209q182 0 274.5 88.5t92.5 258.5t-93 259t-274 89h-209v-695z" />
    <glyph glyph-name="Q" unicode="Q" horiz-adv-x="1639" 
d="M1120 18q-39 0 -55 -6q-117 -39 -257 -39t-275 55t-233.5 149t-156.5 229.5t-58 311.5t98.5 343t267.5 261.5t345 94.5t311 -55.5t233.5 -151.5t156 -230t57.5 -285q0 -219 -111.5 -391.5t-297.5 -259.5q39 -4 75 -17l579 -217h-88l-503 190q-49 18 -88 18zM224 670
q0 -169 78 -327.5t214.5 -249.5t303.5 -91t304 91t214.5 250t77.5 327t-46 297.5t-125 221.5t-189.5 146t-235.5 54t-235.5 -54t-189.5 -146t-125 -221t-46 -298z" />
    <glyph glyph-name="R" unicode="R" horiz-adv-x="1105" 
d="M130 0v1391h366q201 0 342 -94t141 -283q0 -125 -98.5 -250.5t-384.5 -125.5h-230l814 -638h-45l-782 612v-612h-123zM253 667h224q182 0 275 88.5t93 258.5t-93 259t-275 89h-224v-695z" />
    <glyph glyph-name="S" unicode="S" horiz-adv-x="1005" 
d="M720.5 90q101.5 78 101.5 203t-113 222.5t-209 158.5t-117 75.5t-56 39.5t-55 43t-83.5 79t-63.5 191q0 73 35 134t121.5 117.5t226.5 56.5t244 -43l32 -14v-63q-5 4 -21 17t-88 43.5t-153 30.5t-150 -26.5t-116.5 -81.5t-47.5 -135t69 -145.5t131 -103.5t126 -77
t156 -99t163.5 -153t71.5 -212q0 -218 -160.5 -291t-307.5 -73q-148 0 -240.5 49.5t-108.5 62.5l-17 13v68q16 -19 116 -92t278 -73q134 0 235.5 78z" />
    <glyph glyph-name="T" unicode="T" horiz-adv-x="1176" 
d="M527 0v1362h-442v29h1007v-29h-443v-1362h-122z" />
    <glyph glyph-name="U" unicode="U" horiz-adv-x="1207" 
d="M1098 1391v-827q0 -158 -28.5 -267.5t-107.5 -194.5q-118 -126 -340 -126t-352 124q-93 89 -126.5 214t-33.5 340v737h122v-777q0 -193 21 -298.5t76 -175.5q106 -135 302 -135t308 116q76 78 102.5 188.5t26.5 257.5v824h30z" />
    <glyph glyph-name="V" unicode="V" horiz-adv-x="1241" 
d="M621 -24l-561 1415h130l479 -1210l480 1210h32z" />
    <glyph glyph-name="W" unicode="W" horiz-adv-x="2039" 
d="M592 -24l-521 1415h128l440 -1191l436 1214l449 -1212l413 1189h32l-491 -1415l-453 1218z" />
    <glyph glyph-name="X" unicode="X" horiz-adv-x="1200" 
d="M75 0l466 706l-462 685h141l390 -579l383 579h36l-400 -607l530 -784h-141l-459 679l-448 -679h-36z" />
    <glyph glyph-name="Y" unicode="Y" horiz-adv-x="1191" 
d="M531 0v598l-469 793h135l451 -763l448 763h33l-475 -811v-580h-123z" />
    <glyph glyph-name="Z" unicode="Z" horiz-adv-x="1059" 
d="M150 1362v29h817l-756 -1362h776v-29h-920l756 1362h-673z" />
    <glyph glyph-name="bracketleft" unicode="[" horiz-adv-x="542" 
d="M112 -469v1860h376v-29h-266v-1802h266v-29h-376z" />
    <glyph glyph-name="backslash" unicode="\" horiz-adv-x="832" 
d="M58 1543l665 -1695h-31l-664 1695h30z" />
    <glyph glyph-name="bracketright" unicode="]" horiz-adv-x="542" 
d="M431 1391v-1860h-377v29h267v1802h-267v29h377z" />
    <glyph glyph-name="asciicircum" unicode="^" horiz-adv-x="588" 
d="M83 881l212 533l211 -533h-117l-138 345l-137 -345h-31z" />
    <glyph glyph-name="underscore" unicode="_" horiz-adv-x="1172" 
d="M122 0v29h929v-29h-929z" />
    <glyph glyph-name="grave" unicode="`" horiz-adv-x="544" 
d="M165 1334q26 0 52 -31l225 -266l-30 -5l-266 201q-34 26 -34 50t13.5 37.5t39.5 13.5z" />
    <glyph glyph-name="a" unicode="a" horiz-adv-x="987" 
d="M871 29q31 0 55 16v-21q-20 -24 -72 -24q-131 0 -171 184q-26 -68 -98 -133t-207 -65t-215 64t-80 177t74 172.5t153.5 90t175.5 66.5t137 67t41 101t-48 117t-143 47q-133 0 -205 -63.5t-81 -81.5v76q60 60 150.5 78.5t158.5 18.5t127.5 -23t108 -73t48.5 -190v-372
q0 -229 91 -229zM670 325v253q0 57 -1 77q-18 -43 -61.5 -70t-164.5 -79t-182.5 -113.5t-61.5 -163t58.5 -158.5t150.5 -57t167 61.5t101 148.5q-6 47 -6 101z" />
    <glyph glyph-name="b" unicode="b" horiz-adv-x="1050" 
d="M126 0v1391h111v-663q99 188 312 188q182 0 302 -134.5t120 -331.5t-120 -330.5t-302 -133.5q-213 0 -312 186v-172h-111zM237 449.5q0 -192.5 83.5 -314t228 -121.5t225.5 121t81 314.5t-81.5 316t-225.5 122.5t-227.5 -123t-83.5 -315.5z" />
    <glyph glyph-name="c" unicode="c" horiz-adv-x="927" 
d="M516 916q178 0 290 -81v-79q-49 81 -135 106.5t-142 25.5q-154 0 -243 -123t-89 -319t97.5 -314t261.5 -118q109 0 175.5 47t94.5 94v-79q-56 -56 -144.5 -73t-141.5 -17q-197 0 -328.5 129.5t-131.5 330.5t129 335.5t307 134.5z" />
    <glyph glyph-name="d" unicode="d" horiz-adv-x="1050" 
d="M814 0v177q-97 -191 -312 -191q-182 0 -302 133t-120 331t119.5 332t302.5 134q215 0 312 -193v668h111v-1391h-111zM196 449.5q0 -193.5 80.5 -314.5t225 -121t228.5 121.5t84 314t-84 315.5t-228 123t-225 -122.5t-81 -316z" />
    <glyph glyph-name="e" unicode="e" horiz-adv-x="962" 
d="M515 -14q-134 0 -235 65.5t-150.5 169.5t-49.5 229q0 198 116 332t293 134t282.5 -123t114.5 -313h-689v-30q0 -172 55 -266.5t118 -132t134 -37.5t140 23t114.5 72t59.5 76v-76q-63 -79 -154 -101t-149 -22zM495 888q-128 0 -206.5 -102t-89.5 -277h568q-10 175 -77 277
t-195 102z" />
    <glyph glyph-name="f" unicode="f" horiz-adv-x="678" 
d="M220 0v870h-153v29h153v125q0 386 278 386q75 0 141 -26l24 -9v-63q-21 24 -71.5 46.5t-97.5 22.5q-163 0 -163 -256v-226h270v-29h-270v-870h-111z" />
    <glyph glyph-name="g" unicode="g" horiz-adv-x="1026" 
d="M518 916q178 0 290 -129q55 45 55 146h115q0 -54 -45 -102.5t-106 -68.5q63 -88 64 -199q0 -151 -98.5 -239t-261.5 -112q-7 -1 -41.5 -5.5t-54.5 -7.5t-111.5 -21t-91.5 -60q0 -67 332 -107q4 -1 6 -1q196 -24 301.5 -87.5t105.5 -155.5q0 -71 -65 -129t-172 -89.5
t-230 -31.5t-230 31.5t-172 89.5t-65 129q0 96 114.5 164.5t278.5 68.5h15q-71 4 -203 30t-132 88q0 73 301 100q-132 26 -214.5 120t-82.5 236t110 242t288 100zM506 239q130 0 199 86.5t69 238t-69 238t-199 86.5t-199 -86.5t-69 -238t69 -238t199 -86.5zM150 -233.5
q0 -99.5 105 -160.5t254.5 -61t255 61t105.5 160.5t-105.5 160t-255 60.5t-254.5 -60.5t-105 -160z" />
    <glyph glyph-name="h" unicode="h" horiz-adv-x="1003" 
d="M126 0v1391h111v-843q48 264 168.5 316t188.5 52q140 0 215 -97t75 -246v-573h-111v573q0 149 -41.5 232t-154.5 83q-79 0 -145.5 -45t-130.5 -156t-64 -283v-404h-111z" />
    <glyph glyph-name="i" unicode="i" horiz-adv-x="387" 
d="M193.5 1085q-34.5 0 -59 25t-24.5 59.5t24.5 59t59 24.5t59.5 -24.5t25 -59t-25 -59.5t-59.5 -25zM138 0v899h111v-899h-111z" />
    <glyph glyph-name="j" unicode="j" horiz-adv-x="387" 
d="M193.5 1085q-34.5 0 -59 25t-24.5 59.5t24.5 59t59 24.5t59.5 -24.5t25 -59t-25 -59.5t-59.5 -25zM138 236v663h111v-588q0 -280 -64 -448.5t-139.5 -240.5t-131.5 -91v23q95 74 159.5 203.5t64.5 478.5z" />
    <glyph glyph-name="k" unicode="k" horiz-adv-x="949" 
d="M126 0v1391h111v-1109l527 617h40l-297 -346l417 -553h-138l-352 468l-197 -232v-236h-111z" />
    <glyph glyph-name="l" unicode="l" horiz-adv-x="387" 
d="M138 0v1391h111v-1391h-111z" />
    <glyph glyph-name="m" unicode="m" horiz-adv-x="1577" 
d="M126 0v899h111v-344q31 175 120 268t212 93t200.5 -92t77.5 -244v-25q24 133 81 214.5t114 114t123 32.5q138 0 215.5 -92t77.5 -244v-580h-110v580q0 308 -187 308q-73 0 -134 -45t-120.5 -156.5t-59.5 -280.5v-406h-111v580q0 308 -186 308q-73 0 -134.5 -45
t-120 -157.5t-58.5 -279.5v-406h-111z" />
    <glyph glyph-name="n" unicode="n" horiz-adv-x="1003" 
d="M126 0v899h111v-351q48 264 168.5 316t188.5 52q140 0 215 -97t75 -246v-573h-111v573q0 149 -41.5 232t-154.5 83q-79 0 -145.5 -45t-130.5 -156t-64 -283v-404h-111z" />
    <glyph glyph-name="o" unicode="o" horiz-adv-x="1015" 
d="M80 447.5q0 196.5 123 332.5t305 136t305 -136t123 -332.5t-122.5 -329t-305.5 -132.5t-305.5 132.5t-122.5 329zM197 447.5q0 -193.5 82.5 -313.5t227.5 -120t229 120.5t84 313t-84 316.5t-228 124t-227.5 -123.5t-83.5 -317z" />
    <glyph glyph-name="p" unicode="p" horiz-adv-x="1050" 
d="M549 -14q-213 0 -312 187v-642h-111v1368h111v-169q99 186 312 186q182 0 302 -133.5t120 -330.5t-120 -331.5t-302 -134.5zM237 452.5q0 -192.5 83.5 -315.5t227.5 -123t225.5 122.5t81.5 316t-81 314.5t-225.5 121t-228 -121.5t-83.5 -314z" />
    <glyph glyph-name="q" unicode="q" horiz-adv-x="1050" 
d="M80 452q0 198 119.5 331t302.5 133q213 0 312 -186v169h111v-1368h-111v642q-99 -187 -312 -187q-182 0 -302 134t-120 332zM196 452.5q0 -193.5 81 -316t225 -122.5t228 123t84 315.5t-84 314t-228.5 121.5t-225 -121t-80.5 -314.5z" />
    <glyph glyph-name="r" unicode="r" horiz-adv-x="665" 
d="M126 0v899h111v-345q26 129 106 232q101 131 256 132v-95q-166 0 -264 -121.5t-98 -309.5v-392h-111z" />
    <glyph glyph-name="s" unicode="s" horiz-adv-x="867" 
d="M698 776q-112 112 -302 112q-70 0 -143 -41t-73 -109t53 -106t205 -98t213 -98q127 -78 133 -191v-13q0 -108 -90.5 -177t-293.5 -69t-313 100v76q76 -91 175.5 -119.5t158.5 -28.5q129 0 196.5 53.5t67.5 125.5q0 93 -96 144.5t-223 102.5q-126 51 -195.5 107t-69.5 156
t92.5 156.5t244.5 56.5t260 -72v-68z" />
    <glyph glyph-name="t" unicode="t" horiz-adv-x="651" 
d="M474 20q36 0 72 12v-29q-35 -11 -79 -11t-82.5 10t-65 27t-54 59.5t-36.5 110t-9 163.5v508h-153v29h153v249l111 79v-328h260v-29h-260v-562q0 -144 13 -178t28 -59.5t40.5 -38t61.5 -12.5z" />
    <glyph glyph-name="u" unicode="u" horiz-adv-x="1003" 
d="M120 326v573h110v-573q0 -170 49 -241t138 -71q171 0 260.5 155t89.5 326v404h111v-899h-111v351q-54 -266 -171.5 -315.5t-184.5 -49.5q-141 0 -216 96.5t-75 243.5z" />
    <glyph glyph-name="v" unicode="v" horiz-adv-x="929" 
d="M465 -22l-405 921h120l329 -744l329 744h31z" />
    <glyph glyph-name="w" unicode="w" horiz-adv-x="1526" 
d="M423 -22l-354 921h118l284 -739l344 761l329 -756l282 734h32l-354 -921l-334 771z" />
    <glyph glyph-name="x" unicode="x" horiz-adv-x="927" 
d="M62 0l344 449l-346 450h138l276 -360l276 360h37l-294 -385l395 -514h-138l-326 424l-324 -424h-38z" />
    <glyph glyph-name="y" unicode="y" horiz-adv-x="933" 
d="M458 14l-388 885h119l329 -747l329 747h32l-601 -1368h-33z" />
    <glyph glyph-name="z" unicode="z" horiz-adv-x="825" 
d="M113 870v29h629l-532 -870h551v-29h-692l532 870h-488z" />
    <glyph glyph-name="braceleft" unicode="{" horiz-adv-x="539" 
d="M154 477q26 0 46 -7q80 45 -4 250.5t-84 318.5t25.5 175.5t89.5 119.5t258 57v-28q-147 0 -202 -82.5t-55 -192.5t29.5 -254.5t29.5 -207.5q0 -127 -66 -165q66 -40 66 -165q0 -62 -29.5 -206.5t-29.5 -222.5q0 -143 55 -225.5t202 -82.5v-28q-196 0 -259 57t-88.5 119.5
t-25.5 142.5q0 146 60.5 294.5t60.5 217.5t-33 89q-49 -13 -88 2v16q16 8 42 8z" />
    <glyph glyph-name="bar" unicode="|" horiz-adv-x="354" 
d="M163 -427v1990h28v-1990h-28z" />
    <glyph glyph-name="braceright" unicode="}" horiz-adv-x="539" 
d="M384 477q24 0 44 -8v-16q-38 -18 -88 -2q-34 -19 -34 -76t30.5 -140.5t61 -184t30.5 -190.5t-25.5 -152.5t-88.5 -119.5t-260 -57v28q205 0 231 115t26 193t-29 222t-29 207q0 125 65 165q-66 38 -65 165q0 63 29 207t29 222q0 145 -55.5 226.5t-201.5 81.5v28
q195 0 284.5 -79.5t89.5 -249.5q0 -90 -30.5 -190.5t-61 -184t-30.5 -140.5t34 -77q20 7 44 7z" />
    <glyph glyph-name="asciitilde" unicode="~" horiz-adv-x="1178" 
d="M601 494.5q152 -74.5 234 -74.5q116 0 157 68t46 87h29q-10 -48 -67.5 -116t-164.5 -68q-106 0 -257.5 75t-233.5 75q-115 0 -157 -68.5t-47 -87.5h-28q11 52 69 118t163 66t257 -74.5z" />
    <glyph glyph-name="uni00A0" unicode="&#xa0;" horiz-adv-x="467" 
 />
    <glyph glyph-name="exclamdown" unicode="&#xa1;" horiz-adv-x="390" 
d="M194.5 -496q-62.5 0 -62.5 78l48 1027h29l48 -1027q0 -78 -62.5 -78zM110 855q0 36 25 60.5t61 24.5t60.5 -24.5t24.5 -60.5t-25.5 -60t-61 -24t-60 24t-24.5 60z" />
    <glyph glyph-name="cent" unicode="&#xa2;" horiz-adv-x="927" 
d="M244 -130h-32l518 1160h32zM516 916q178 0 290 -81v-79q-49 81 -135 106.5t-142 25.5q-154 0 -243 -123t-89 -319t97.5 -314t261.5 -118q109 0 175.5 47t94.5 94v-79q-56 -56 -144.5 -73t-141.5 -17q-197 0 -328.5 129.5t-131.5 330.5t129 335.5t307 134.5z" />
    <glyph glyph-name="sterling" unicode="&#xa3;" horiz-adv-x="1167" 
d="M330 451q0 86 -40 230h-170v29h161q-66 215 -71.5 266.5t-5.5 84.5q0 154 95 255t270 101t248 -68.5t84 -86.5l10 -18v-96q-12 37 -44.5 83t-67 76.5t-94 56t-126.5 25.5q-114 0 -187.5 -76t-73.5 -238q0 -103 32 -214.5t40 -150.5h397v-29h-392q51 -274 -43.5 -404.5
t-113.5 -147.5l-20 -16h872l-42 -113h-1002q179 98 231.5 231.5t52.5 219.5z" />
    <glyph glyph-name="currency" unicode="&#xa4;" horiz-adv-x="894" 
d="M218 694q0 87 56 152l-152 153l21 21l153 -153q66 57 150 57t153 -57l153 153l21 -21l-153 -153q57 -63 57 -150t-57 -152l153 -153l-21 -20l-153 152q-65 -57 -151 -57t-152 56l-153 -151l-21 20l153 153q-57 63 -57 150zM447.5 488q83.5 0 142 61.5t58.5 145.5
t-58.5 145.5t-142 61.5t-142 -61.5t-58.5 -145.5t58.5 -145.5t142 -61.5z" />
    <glyph glyph-name="yen" unicode="&#xa5;" horiz-adv-x="1130" 
d="M501 0v482h-359v29h359v79l-97 176h-262v29h246l-326 596h139l416 -762l418 762h33l-327 -596h252v-29h-268l-101 -186v-69h369v-29h-369v-482h-123z" />
    <glyph glyph-name="brokenbar" unicode="&#xa6;" horiz-adv-x="354" 
d="M163 735v828h28v-828h-28zM163 386h28v-813h-28v813z" />
    <glyph glyph-name="section" unicode="&#xa7;" horiz-adv-x="1045" 
d="M483 -455q119 0 211.5 71.5t92.5 173.5q0 127 -132.5 230.5t-204.5 159.5t-106.5 84t-143.5 125.5t-109 269.5t150 274q-53 81 -53 163q-1 155 118.5 234.5t253.5 79.5t236 -43l32 -14v-63q-26 26 -101.5 58.5t-175.5 32.5t-191.5 -64.5t-91.5 -160.5t65.5 -162.5
t218.5 -179.5q153 -114 209 -161.5t130 -131.5t74 -220q0 -182 -156 -283q59 -90 59 -187t-85 -205.5t-303 -108.5q-61 0 -124 14t-96 29l-33 14v62q70 -56 143 -73.5t113 -17.5zM271 891q-81 -73 -81 -188t103.5 -212.5t191.5 -165.5q88 -69 163.5 -131.5t130.5 -133.5
q86 74 86 191t-96.5 209.5t-194.5 167.5q-97 75 -169.5 131.5t-133.5 131.5z" />
    <glyph glyph-name="dieresis" unicode="&#xa8;" horiz-adv-x="707" 
d="M508 1083q-33 0 -56 23t-23 56t23 56t56 23t56 -23t23 -56t-23 -56t-56 -23zM198.5 1083q-32.5 0 -55.5 23t-23 56t23 56t55.5 23t56 -23t23.5 -56t-23.5 -56t-56 -23z" />
    <glyph glyph-name="copyright" unicode="&#xa9;" horiz-adv-x="1652" 
d="M85 695q0 205 100 371.5t269.5 258.5t372 92t372 -92t269.5 -258.5t100 -371.5t-100 -371t-269.5 -258.5t-372 -92.5t-372 92.5t-269.5 258.5t-100 371zM115 695.5q0 -196.5 95.5 -358.5t259 -253t357 -91t356.5 91t258.5 253t95.5 358.5t-95.5 358t-258.5 253
t-356.5 91.5t-357 -91.5t-259 -253t-95.5 -358zM828 257q-188 0 -316 123.5t-128 313.5t128 314.5t324 124.5q154 0 269 -68v-47q-50 45 -123 70.5t-146 25.5q-161 0 -265 -117t-104 -301t104 -302.5t265 -118.5q81 0 161 31.5t129 87.5v-42q-110 -95 -298 -95z" />
    <glyph glyph-name="ordfeminine" unicode="&#xaa;" horiz-adv-x="727" 
d="M153 1350q45 67 200 67q55 0 104.5 -22.5t80 -70.5t30.5 -107v-263q0 -158 63 -157q23 0 38 11v-15q-13 -16 -52 -17q-98 0 -136 101q-60 -108 -205 -108q-95 0 -146 45.5t-51 133.5t70 125.5t126 59.5q56 21 99 38t63.5 32.5t20.5 62.5t-31 87t-81 40q-89 0 -133.5 -34
t-59.5 -67v58zM462 1002v210q-10 -20 -33 -35t-103 -49t-116.5 -76t-36.5 -114t40.5 -108t93.5 -36t98 27t70 74q-13 48 -13 107z" />
    <glyph glyph-name="guillemotleft" unicode="&#xab;" horiz-adv-x="925" 
d="M466 454l328 327l20 -20l-308 -307l307 -308l-20 -20zM408 126l-327 328l328 327l20 -20l-308 -307l307 -308z" />
    <glyph glyph-name="logicalnot" unicode="&#xac;" horiz-adv-x="1122" 
d="M112 466v29h899v-350h-29v321h-870z" />
    <glyph glyph-name="uni00AD" unicode="&#xad;" horiz-adv-x="830" 
d="M112 434v29h607v-29h-607z" />
    <glyph glyph-name="registered" unicode="&#xae;" horiz-adv-x="731" 
d="M365.5 864q-114.5 0 -195.5 81t-81 195.5t81 195.5t195.5 81t195.5 -79.5t81 -195.5t-81 -197t-195.5 -81zM365.5 882q103.5 0 176.5 77t73 181t-73.5 181.5t-175.5 77.5t-176 -76.5t-74 -182t73 -182t176.5 -76.5zM278 990v305h83q48 0 77 -23.5t29 -59.5t-28.5 -59.5
t-77.5 -23.5h-47l172 -139h-18l-161 130v-130h-29zM307 1142h50q75 0 75 70t-75 71h-50v-141z" />
    <glyph glyph-name="macron" unicode="&#xaf;" horiz-adv-x="707" 
d="M105 1098v54h497v-54h-497z" />
    <glyph glyph-name="degree" unicode="&#xb0;" horiz-adv-x="646" 
d="M323 983q-100 0 -167 60.5t-67 154.5t66.5 154.5t166.5 60.5t167.5 -60.5t67.5 -154.5t-67 -154.5t-167 -60.5zM322 1009q67 0 111.5 50t44.5 139t-45 140t-111 51t-110.5 -51t-44.5 -140t44 -139t111 -50z" />
    <glyph glyph-name="plusminus" unicode="&#xb1;" horiz-adv-x="1135" 
d="M122 560v29h431v430h29v-430h432v-29h-432v-374h-29v374h-431zM122 0v29h892v-29h-892z" />
    <glyph glyph-name="uni00B2" unicode="&#xb2;" horiz-adv-x="552" 
d="M236 1670q-97 0 -154 -124v60q27 53 81.5 71t89.5 18q90 0 137.5 -55t47.5 -124q0 -132 -93 -250t-166 -179l-29 -24h357l-29 -80h-438q196 180 250 317.5t54 209.5q0 160 -108 160z" />
    <glyph glyph-name="uni00B3" unicode="&#xb3;" horiz-adv-x="608" 
d="M284 1670q-109 0 -156 -121v57q28 55 80 72t89 17q84 0 127.5 -43.5t43.5 -106.5q0 -96 -91 -154q75 -17 122 -73t47 -141t-67.5 -146t-188.5 -61q-60 0 -108 15.5t-65 31.5l-18 15v45q50 -50 101.5 -66.5t80.5 -16.5q81 0 126 50.5t45 130.5t-34 130.5t-88 61.5
q-52 -19 -120 -21l6 27q37 22 98 24q78 42 78 150q0 55 -28.5 89t-79.5 34z" />
    <glyph glyph-name="acute" unicode="&#xb4;" horiz-adv-x="544" 
d="M432 1283q0 -25 -34 -50l-265 -201l-31 5l226 266q27 31 52 31t38.5 -13t13.5 -38z" />
    <glyph glyph-name="mu" unicode="&#xb5;" horiz-adv-x="1017" 
d="M241 -469h-111v1368h111v-573q0 -172 48.5 -242t137.5 -70q171 0 260.5 155t89.5 326v404h111v-899h-111v351q-54 -266 -171.5 -315.5t-184.5 -49.5q-127 -1 -180 74v-529z" />
    <glyph glyph-name="mu" unicode="&#x3bc;" horiz-adv-x="1017" 
d="M241 -469h-111v1368h111v-573q0 -172 48.5 -242t137.5 -70q171 0 260.5 155t89.5 326v404h111v-899h-111v351q-54 -266 -171.5 -315.5t-184.5 -49.5q-127 -1 -180 74v-529z" />
    <glyph glyph-name="paragraph" unicode="&#xb6;" horiz-adv-x="1293" 
d="M65 998q0 206 141.5 299.5t341.5 93.5h689l-19 -29h-85v-1620l-123 -60v1680h-171v-1769l-123 -62v1831h-150q-181 0 -274 -89t-93 -259t92.5 -258.5t274.5 -88.5l-18 -29q-286 0 -384.5 125t-98.5 235z" />
    <glyph glyph-name="periodcentered" unicode="&#xb7;" horiz-adv-x="390" 
d="M110 450q0 36 24.5 59t60 23t61 -24t25.5 -59.5t-25.5 -60t-60.5 -24.5t-60 25t-25 61z" />
    <glyph glyph-name="cedilla" unicode="&#xb8;" horiz-adv-x="510" 
d="M407 -249q0 -69 -52.5 -109.5t-129.5 -40.5t-123 19l-5 25q47 -17 106 -17t93 32.5t34 90.5t-53 93.5t-127 35.5l152 128h34l-99 -105q59 0 114.5 -41.5t55.5 -110.5z" />
    <glyph glyph-name="uni00B9" unicode="&#xb9;" horiz-adv-x="648" 
d="M79 983v25h206v583l-129 -93v31l228 166v-687h206v-25h-511z" />
    <glyph glyph-name="ordmasculine" unicode="&#xba;" horiz-adv-x="717" 
d="M358 763q-128 0 -213.5 93t-85.5 233t85.5 234t213.5 94t214 -93.5t86 -233.5t-86 -233.5t-214 -93.5zM546 1065q0 328 -127 328t-170 -43t-60 -108.5t-17 -153t17 -152t59.5 -107t109.5 -42.5q97 0 142.5 83.5t45.5 194.5z" />
    <glyph glyph-name="guillemotright" unicode="&#xbb;" horiz-adv-x="925" 
d="M132 781l328 -327l-327 -328l-20 20l307 308l-308 307zM845 454l-327 -328l-20 20l307 308l-308 307l20 20z" />
    <glyph glyph-name="onequarter" unicode="&#xbc;" horiz-adv-x="1594" 
d="M79 694v25h206v584l-129 -94v31l228 166v-687h206v-25h-511zM1293 0v179h-324l424 534v-509h139v-25h-139v-179h-100zM1293 204v343l-274 -343h274zM462 -100h-33l868 1592h33z" />
    <glyph glyph-name="onehalf" unicode="&#xbd;" horiz-adv-x="1616" 
d="M79 694v25h206v584l-129 -94v31l228 166v-687h206v-25h-511zM462 -100h-33l868 1592h33zM1299 687q-59 0 -97.5 -42t-55.5 -82v60q27 53 81.5 71t89.5 18q90 0 137.5 -55t47.5 -124q0 -132 -93 -250t-166 -179l-30 -24h358l-29 -80h-438q118 108 211 248t93 290
q0 149 -109 149z" />
    <glyph glyph-name="threequarters" unicode="&#xbe;" horiz-adv-x="1460" 
d="M1159 0v179h-324l423 534v-509h140v-25h-140v-179h-99zM1159 204v343l-274 -343h274zM328 -100h-33l868 1592h33zM284 1381q-106 0 -156 -120v56q28 55 80 72t89 17q84 0 127.5 -43.5t43.5 -106.5q0 -96 -91 -154q75 -17 122 -73t47 -141t-67.5 -146t-188.5 -61
q-60 0 -108 16t-65 31l-18 15v45q82 -82 173 -82q90 0 135 50t45 130t-34 130.5t-88 61.5q-52 -19 -120 -21l6 27q37 22 98 24q78 42 78 150q0 55 -28.5 89t-79.5 34z" />
    <glyph glyph-name="questiondown" unicode="&#xbf;" horiz-adv-x="948" 
d="M605 609v-172q-8 -3 -23 -8t-57.5 -26.5t-113 -69.5t-142.5 -157.5t-72 -266.5t81.5 -266.5t239.5 -109.5t247.5 80.5t118.5 160.5v-92q-15 -26 -91 -102t-263 -76q-240 0 -356 119.5t-116 285.5q0 213 138.5 329t230.5 160.5t121 54.5l29 9v147h28zM676 855
q0 -36 -24.5 -60t-60.5 -24t-61 24t-25 60t25 60.5t61 24.5t60.5 -24.5t24.5 -60.5z" />
    <glyph glyph-name="Agrave" unicode="&#xc0;" horiz-adv-x="1257" 
d="M69 0l560 1426l560 -1426h-129l-170 434h-620l-170 -434h-31zM282 463h597l-298 760zM403 1754q0 51 53 51q26 0 52 -31l225 -266l-31 -5l-265 201q-34 26 -34 50z" />
    <glyph glyph-name="Aacute" unicode="&#xc1;" horiz-adv-x="1257" 
d="M69 0l560 1426l560 -1426h-129l-170 434h-620l-170 -434h-31zM282 463h597l-298 760zM854 1754q0 -25 -34 -50l-265 -201l-31 5l226 266q27 32 52 32t38.5 -13.5t13.5 -38.5z" />
    <glyph glyph-name="Acircumflex" unicode="&#xc2;" horiz-adv-x="1257" 
d="M69 0l560 1426l560 -1426h-129l-170 434h-620l-170 -434h-31zM282 463h597l-298 760zM424 1503l-25 5l230 287l229 -287l-24 -5l-205 152z" />
    <glyph glyph-name="Atilde" unicode="&#xc3;" horiz-adv-x="1257" 
d="M69 0l560 1426l560 -1426h-129l-170 434h-620l-170 -434h-31zM282 463h597l-298 760zM346 1530q0 75 42 120.5t112 45.5t161.5 -34.5t133.5 -34.5t66 23.5t28 63.5h22q0 -75 -42.5 -122.5t-112.5 -47.5t-161.5 34.5t-132.5 34.5q-84 0 -93 -83h-23z" />
    <glyph glyph-name="Adieresis" unicode="&#xc4;" horiz-adv-x="1257" 
d="M69 0l560 1426l560 -1426h-129l-170 434h-620l-170 -434h-31zM282 463h597l-298 760zM783.5 1554q-32.5 0 -55.5 23.5t-23 56t23 55.5t55.5 23t55.5 -23t23 -55.5t-23 -56t-55.5 -23.5zM474 1554q-33 0 -56 23.5t-23 56t23 55.5t56 23t56 -23t23 -55.5t-23 -56t-56 -23.5
z" />
    <glyph glyph-name="Aring" unicode="&#xc5;" horiz-adv-x="1257" 
d="M69 0l560 1426l560 -1426h-129l-170 434h-620l-170 -434h-31zM282 463h597l-298 760zM628.5 1509q-71.5 0 -119.5 35.5t-48 94.5t48 95t119.5 36t120.5 -35t49 -95t-49 -95.5t-120.5 -35.5zM629 1532q38 0 63 27t25 79.5t-25 80t-63 27.5t-62.5 -27.5t-24.5 -80
t24.5 -79.5t62.5 -27z" />
    <glyph glyph-name="Ccedilla" unicode="&#xc7;" horiz-adv-x="1390" 
d="M85 673q0 173 56.5 307t152.5 230t230.5 151.5t286.5 55.5q233 0 422 -98v-73q-180 142 -422 143q-164 0 -298.5 -91.5t-211 -250.5t-76.5 -353t76.5 -352t211 -249t282.5 -91q283 0 476 186v-78q-180 -134 -458 -137l-65 -70q59 0 114.5 -41.5t55.5 -110.5t-52.5 -109.5
t-129.5 -40.5t-123 19l-5 25q47 -17 106 -17t93 32.5t34 90.5t-53.5 93.5t-127.5 35.5l112 94q-193 9 -350 105.5t-247 258.5t-90 335z" />
    <glyph glyph-name="Egrave" unicode="&#xc8;" horiz-adv-x="998" 
d="M130 0v1391h765v-29h-642v-638h543v-29h-543v-666h642v-29h-765zM296 1754q0 51 52 51q26 0 52 -31l226 -266l-31 -5l-265 201q-34 26 -34 50z" />
    <glyph glyph-name="Eacute" unicode="&#xc9;" horiz-adv-x="998" 
d="M130 0v1391h765v-29h-642v-638h543v-29h-543v-666h642v-29h-765zM693 1754q0 -25 -34 -50l-265 -201l-30 5l225 266q27 32 52 32t38.5 -13.5t13.5 -38.5z" />
    <glyph glyph-name="Ecircumflex" unicode="&#xca;" horiz-adv-x="998" 
d="M130 0v1391h765v-29h-642v-638h543v-29h-543v-666h642v-29h-765zM327 1503l-25 5l229 287l230 -287l-25 -5l-205 152z" />
    <glyph glyph-name="Edieresis" unicode="&#xcb;" horiz-adv-x="998" 
d="M130 0v1391h765v-29h-642v-638h543v-29h-543v-666h642v-29h-765zM686 1554q-33 0 -56 23.5t-23 56t23 55.5t56 23t56 -23t23 -55.5t-23 -56t-56 -23.5zM377 1554q-33 0 -56 23.5t-23 56t23 55.5t56 23t56 -23t23 -55.5t-23 -56t-56 -23.5z" />
    <glyph glyph-name="Igrave" unicode="&#xcc;" horiz-adv-x="406" 
d="M142 0v1391h122v-1391h-122zM-27 1754q1 51 53 51q26 0 52 -31l225 -266l-31 -5l-265 201q-34 26 -34 50z" />
    <glyph glyph-name="Iacute" unicode="&#xcd;" horiz-adv-x="406" 
d="M142 0v1391h122v-1391h-122zM432 1754q0 -25 -34 -50l-265 -201l-31 5l226 266q27 32 52 32t38.5 -13.5t13.5 -38.5z" />
    <glyph glyph-name="Icircumflex" unicode="&#xce;" horiz-adv-x="406" 
d="M142 0v1391h122v-1391h-122zM-2 1503l-25 5l230 287l229 -287l-24 -5l-205 152z" />
    <glyph glyph-name="Idieresis" unicode="&#xcf;" horiz-adv-x="406" 
d="M142 0v1391h122v-1391h-122zM357.5 1554q-32.5 0 -55.5 23.5t-23 56t23 55.5t55.5 23t55.5 -23t23 -55.5t-23 -56t-55.5 -23.5zM48 1554q-33 0 -56 23.5t-23 56t23 55.5t56 23t56 -23t23 -55.5t-23 -56t-56 -23.5z" />
    <glyph glyph-name="Eth" unicode="&#xd0;" horiz-adv-x="1323" 
d="M140 0v695h-142v29h142v667h359q205 0 376 -88.5t272 -248.5t101 -358.5t-101 -359t-272.5 -248.5t-375.5 -88h-359zM263 29h232q125 0 238.5 49.5t198 136.5t134 212t49.5 268.5t-49.5 268.5t-134 212t-198 136.5t-238.5 49.5h-232v-638h435v-29h-435v-666z" />
    <glyph glyph-name="Ntilde" unicode="&#xd1;" horiz-adv-x="1315" 
d="M130 0v1414l1027 -1213v1190h29v-1415l-1027 1215v-1191h-29zM391 1530q0 75 41.5 120.5t111.5 45.5t162 -34.5t134 -34.5t66 23.5t28 63.5h22q0 -75 -42.5 -122.5t-111.5 -47.5t-161.5 34.5t-133.5 34.5q-84 0 -93 -83h-23z" />
    <glyph glyph-name="Ograve" unicode="&#xd2;" horiz-adv-x="1639" 
d="M85 718q0 177 98.5 343.5t267.5 261t345 94.5t311 -55.5t233.5 -151.5t156 -230t57.5 -286t-57.5 -287.5t-156 -229.5t-234 -149t-286 -55t-286.5 55t-234.5 149t-156.5 229t-58 312zM224 670q0 -169 78 -327.5t214.5 -249.5t303.5 -91t304 91t214.5 250t77.5 327
t-46 297.5t-125 221.5t-189.5 146t-235.5 54t-235.5 -54t-189.5 -146t-125 -221t-46 -298zM673 1805q26 0 52 -31l225 -266l-30 -5l-266 201q-34 26 -34 50t13.5 37.5t39.5 13.5z" />
    <glyph glyph-name="Oacute" unicode="&#xd3;" horiz-adv-x="1639" 
d="M85 718q0 177 98.5 343.5t267.5 261t345 94.5t311 -55.5t233.5 -151.5t156 -230t57.5 -286t-57.5 -287.5t-156 -229.5t-234 -149t-286 -55t-286.5 55t-234.5 149t-156.5 229t-58 312zM224 670q0 -169 78 -327.5t214.5 -249.5t303.5 -91t304 91t214.5 250t77.5 327
t-46 297.5t-125 221.5t-189.5 146t-235.5 54t-235.5 -54t-189.5 -146t-125 -221t-46 -298zM1018 1754q0 -25 -34 -50l-265 -201l-31 5l225 266q27 32 53 32t39 -13.5t13 -38.5z" />
    <glyph glyph-name="Ocircumflex" unicode="&#xd4;" horiz-adv-x="1639" 
d="M85 718q0 177 98.5 343.5t267.5 261t345 94.5t311 -55.5t233.5 -151.5t156 -230t57.5 -286t-57.5 -287.5t-156 -229.5t-234 -149t-286 -55t-286.5 55t-234.5 149t-156.5 229t-58 312zM224 670q0 -169 78 -327.5t214.5 -249.5t303.5 -91t304 91t214.5 250t77.5 327
t-46 297.5t-125 221.5t-189.5 146t-235.5 54t-235.5 -54t-189.5 -146t-125 -221t-46 -298zM614 1503l-24 5l229 287l230 -287l-25 -5l-205 152z" />
    <glyph glyph-name="Otilde" unicode="&#xd5;" horiz-adv-x="1639" 
d="M85 718q0 177 98.5 343.5t267.5 261t345 94.5t311 -55.5t233.5 -151.5t156 -230t57.5 -286t-57.5 -287.5t-156 -229.5t-234 -149t-286 -55t-286.5 55t-234.5 149t-156.5 229t-58 312zM224 670q0 -169 78 -327.5t214.5 -249.5t303.5 -91t304 91t214.5 250t77.5 327
t-46 297.5t-125 221.5t-189.5 146t-235.5 54t-235.5 -54t-189.5 -146t-125 -221t-46 -298zM537 1530q0 75 42 120.5t111 45.5t161 -34.5t134 -34.5t66 23.5t28 63.5h23q0 -75 -42 -122.5t-112 -47.5t-162.5 34.5t-133.5 34.5q-84 0 -93 -83h-22z" />
    <glyph glyph-name="Odieresis" unicode="&#xd6;" horiz-adv-x="1639" 
d="M85 718q0 177 98.5 343.5t267.5 261t345 94.5t311 -55.5t233.5 -151.5t156 -230t57.5 -286t-57.5 -287.5t-156 -229.5t-234 -149t-286 -55t-286.5 55t-234.5 149t-156.5 229t-58 312zM224 670q0 -169 78 -327.5t214.5 -249.5t303.5 -91t304 91t214.5 250t77.5 327
t-46 297.5t-125 221.5t-189.5 146t-235.5 54t-235.5 -54t-189.5 -146t-125 -221t-46 -298zM974 1554q-33 0 -56 23.5t-23 56t23 55.5t56 23t56 -23t23 -55.5t-23 -56t-56 -23.5zM664.5 1554q-32.5 0 -55.5 23.5t-23 56t23 55.5t55.5 23t55.5 -23t23 -55.5t-23 -56
t-55.5 -23.5z" />
    <glyph glyph-name="multiply" unicode="&#xd7;" horiz-adv-x="952" 
d="M821 115l-709 712l18 20l711 -712zM130 115l-18 20l709 712l20 -20z" />
    <glyph glyph-name="Oslash" unicode="&#xd8;" horiz-adv-x="1639" 
d="M508 -151h-32l664 1695h31zM1554 694q0 -152 -57.5 -287.5t-156 -229.5t-234 -149t-286 -55t-286.5 55t-234.5 149t-156.5 229.5t-58 311.5t98.5 343t267.5 261.5t345 94.5t311 -55.5t233.5 -151.5t156 -230t57.5 -286zM820 2q167 0 304 91t214.5 250t77.5 327t-46 297.5
t-125 221.5t-189.5 146t-235.5 54t-235.5 -54t-189.5 -146t-125 -220.5t-46 -298.5t78 -328t214.5 -249t303.5 -91z" />
    <glyph glyph-name="Ugrave" unicode="&#xd9;" horiz-adv-x="1207" 
d="M1098 1391v-827q0 -158 -28.5 -267.5t-107.5 -194.5q-118 -126 -340 -126t-352 124q-93 89 -126.5 214t-33.5 340v737h122v-777q0 -193 21 -298.5t76 -175.5q106 -135 302 -135t308 116q76 78 102.5 188.5t26.5 257.5v824h30zM381 1754q1 51 53 51q26 0 51 -31l226 -266
l-31 -5l-265 201q-34 26 -34 50z" />
    <glyph glyph-name="Uacute" unicode="&#xda;" horiz-adv-x="1207" 
d="M1098 1391v-827q0 -158 -28.5 -267.5t-107.5 -194.5q-118 -126 -340 -126t-352 124q-93 89 -126.5 214t-33.5 340v737h122v-777q0 -193 21 -298.5t76 -175.5q106 -135 302 -135t308 116q76 78 102.5 188.5t26.5 257.5v824h30zM826 1754q0 -25 -33 -50l-266 -201l-30 5
l225 266q27 32 52 32t38.5 -13.5t13.5 -38.5z" />
    <glyph glyph-name="Ucircumflex" unicode="&#xdb;" horiz-adv-x="1207" 
d="M1098 1391v-827q0 -158 -28.5 -267.5t-107.5 -194.5q-118 -126 -340 -126t-352 124q-93 89 -126.5 214t-33.5 340v737h122v-777q0 -193 21 -298.5t76 -175.5q106 -135 302 -135t308 116q76 78 102.5 188.5t26.5 257.5v824h30zM438 1503l-24 5l229 287l229 -287l-24 -5
l-205 152z" />
    <glyph glyph-name="Udieresis" unicode="&#xdc;" horiz-adv-x="1207" 
d="M1098 1391v-827q0 -158 -28.5 -267.5t-107.5 -194.5q-118 -126 -340 -126t-352 124q-93 89 -126.5 214t-33.5 340v737h122v-777q0 -193 21 -298.5t76 -175.5q106 -135 302 -135t308 116q76 78 102.5 188.5t26.5 257.5v824h30zM797.5 1554q-32.5 0 -55.5 23.5t-23 56
t23 55.5t55.5 23t56 -23t23.5 -55.5t-23.5 -56t-56 -23.5zM488.5 1554q-32.5 0 -55.5 23.5t-23 56t23 55.5t55.5 23t55.5 -23t23 -55.5t-23 -56t-55.5 -23.5z" />
    <glyph glyph-name="Yacute" unicode="&#xdd;" horiz-adv-x="1191" 
d="M531 0v598l-469 793h135l451 -763l448 763h33l-475 -811v-580h-123zM882 1754q0 -25 -34 -50l-265 -201l-31 5l225 266q27 32 53 32t39 -13.5t13 -38.5z" />
    <glyph glyph-name="Thorn" unicode="&#xde;" horiz-adv-x="1028" 
d="M130 0v1391h123v-255h227q202 0 343 -94t141 -283q0 -125 -99.5 -250.5t-384.5 -125.5h-227v-383h-123zM253 412h209q182 0 274.5 88.5t92.5 258.5t-93 259t-274 89h-209v-695z" />
    <glyph glyph-name="germandbls" unicode="&#xdf;" horiz-adv-x="1043" 
d="M126 0v925q0 219 103 352t295 133q132 0 196 -61t64 -157t-52 -148.5t-83 -80.5t-52.5 -62.5t-21.5 -73.5t22.5 -75t57 -66.5t106.5 -83.5t141 -133t69 -211t-88.5 -203.5t-229.5 -72.5t-198.5 45t-72.5 67v76q50 -99 129.5 -129.5t131.5 -30.5q98 0 155 56t57 144
t-38 156.5t-91.5 118.5t-145 129.5t-91.5 174.5t67 146.5t133.5 106t66.5 146.5q0 93 -57 143t-155 50q-228 0 -267.5 -165.5t-39.5 -266.5v-949h-111z" />
    <glyph glyph-name="agrave" unicode="&#xe0;" horiz-adv-x="987" 
d="M871 29q31 0 55 16v-21q-20 -24 -72 -24q-131 0 -171 184q-26 -68 -98 -133t-207 -65t-215 64t-80 177t74 172.5t153.5 90t175.5 66.5t137 67t41 101t-48 117t-143 47q-133 0 -205 -63.5t-81 -81.5v76q60 60 150.5 78.5t158.5 18.5t127.5 -23t108 -73t48.5 -190v-372
q0 -229 91 -229zM670 325v253q0 57 -1 77q-18 -43 -61.5 -70t-164.5 -79t-182.5 -113.5t-61.5 -163t58.5 -158.5t150.5 -57t167 61.5t101 148.5q-6 47 -6 101zM273 1283q0 51 53 51q26 0 52 -31l225 -266l-31 -5l-265 201q-34 26 -34 50z" />
    <glyph glyph-name="aacute" unicode="&#xe1;" horiz-adv-x="987" 
d="M871 29q31 0 55 16v-21q-20 -24 -72 -24q-131 0 -171 184q-26 -68 -98 -133t-207 -65t-215 64t-80 177t74 172.5t153.5 90t175.5 66.5t137 67t41 101t-48 117t-143 47q-133 0 -205 -63.5t-81 -81.5v76q60 60 150.5 78.5t158.5 18.5t127.5 -23t108 -73t48.5 -190v-372
q0 -229 91 -229zM670 325v253q0 57 -1 77q-18 -43 -61.5 -70t-164.5 -79t-182.5 -113.5t-61.5 -163t58.5 -158.5t150.5 -57t167 61.5t101 148.5q-6 47 -6 101zM668 1283q0 -25 -34 -50l-265 -201l-31 5l225 266q27 31 53 31t39 -13t13 -38z" />
    <glyph glyph-name="acircumflex" unicode="&#xe2;" horiz-adv-x="987" 
d="M871 29q31 0 55 16v-21q-20 -24 -72 -24q-131 0 -171 184q-26 -68 -98 -133t-207 -65t-215 64t-80 177t74 172.5t153.5 90t175.5 66.5t137 67t41 101t-48 117t-143 47q-133 0 -205 -63.5t-81 -81.5v76q60 60 150.5 78.5t158.5 18.5t127.5 -23t108 -73t48.5 -190v-372
q0 -229 91 -229zM670 325v253q0 57 -1 77q-18 -43 -61.5 -70t-164.5 -79t-182.5 -113.5t-61.5 -163t58.5 -158.5t150.5 -57t167 61.5t101 148.5q-6 47 -6 101zM268 1032l-24 5l229 287l229 -287l-24 -5l-205 152z" />
    <glyph glyph-name="atilde" unicode="&#xe3;" horiz-adv-x="987" 
d="M871 29q31 0 55 16v-21q-20 -24 -72 -24q-131 0 -171 184q-26 -68 -98 -133t-207 -65t-215 64t-80 177t74 172.5t153.5 90t175.5 66.5t137 67t41 101t-48 117t-143 47q-133 0 -205 -63.5t-81 -81.5v76q60 60 150.5 78.5t158.5 18.5t127.5 -23t108 -73t48.5 -190v-372
q0 -229 91 -229zM670 325v253q0 57 -1 77q-18 -43 -61.5 -70t-164.5 -79t-182.5 -113.5t-61.5 -163t58.5 -158.5t150.5 -57t167 61.5t101 148.5q-6 47 -6 101zM207 1060q0 75 41.5 120.5t111.5 45.5t162 -34.5t134 -34.5q84 0 94 87h22q0 -75 -42 -122.5t-112 -47.5
t-162 34.5t-133 34.5q-84 0 -94 -83h-22z" />
    <glyph glyph-name="adieresis" unicode="&#xe4;" horiz-adv-x="987" 
d="M871 29q31 0 55 16v-21q-20 -24 -72 -24q-131 0 -171 184q-26 -68 -98 -133t-207 -65t-215 64t-80 177t74 172.5t153.5 90t175.5 66.5t137 67t41 101t-48 117t-143 47q-133 0 -205 -63.5t-81 -81.5v76q60 60 150.5 78.5t158.5 18.5t127.5 -23t108 -73t48.5 -190v-372
q0 -229 91 -229zM670 325v253q0 57 -1 77q-18 -43 -61.5 -70t-164.5 -79t-182.5 -113.5t-61.5 -163t58.5 -158.5t150.5 -57t167 61.5t101 148.5q-6 47 -6 101zM627.5 1083q-32.5 0 -55.5 23t-23 56t23 56t55.5 23t56 -23t23.5 -56t-23.5 -56t-56 -23zM318.5 1083
q-32.5 0 -55.5 23t-23 56t23 56t55.5 23t55.5 -23t23 -56t-23 -56t-55.5 -23z" />
    <glyph glyph-name="aring" unicode="&#xe5;" horiz-adv-x="987" 
d="M871 29q31 0 55 16v-21q-20 -24 -72 -24q-131 0 -171 184q-26 -68 -98 -133t-207 -65t-215 64t-80 177t74 172.5t153.5 90t175.5 66.5t137 67t41 101t-48 117t-143 47q-133 0 -205 -63.5t-81 -81.5v76q60 60 150.5 78.5t158.5 18.5t127.5 -23t108 -73t48.5 -190v-372
q0 -229 91 -229zM670 325v253q0 57 -1 77q-18 -43 -61.5 -70t-164.5 -79t-182.5 -113.5t-61.5 -163t58.5 -158.5t150.5 -57t167 61.5t101 148.5q-6 47 -6 101zM473 1038q-72 0 -120 35.5t-48 94.5t48 95t120 36t120.5 -35.5t48.5 -95.5t-48.5 -95t-120.5 -35zM473 1061
q38 0 63 27t25 79.5t-25 80t-63 27.5t-62.5 -27.5t-24.5 -80t24.5 -79.5t62.5 -27z" />
    <glyph glyph-name="ccedilla" unicode="&#xe7;" horiz-adv-x="927" 
d="M516 916q178 0 290 -81v-79q-49 81 -135 106.5t-142 25.5q-154 0 -243 -123t-89 -319t97.5 -314t261.5 -118q109 0 175.5 47t94.5 94v-79q-56 -56 -145.5 -73t-143.5 -17l-78 -83q59 0 114.5 -41.5t55.5 -110.5t-52.5 -109.5t-131.5 -40.5t-120 19l-6 25q47 -17 106 -17
t93 32.5t34 90.5t-53 93.5t-127 35.5l128 108q-182 13 -301 140t-119 323t129 330.5t307 134.5z" />
    <glyph glyph-name="egrave" unicode="&#xe8;" horiz-adv-x="962" 
d="M515 -14q-134 0 -235 65.5t-150.5 169.5t-49.5 229q0 198 116 332t293 134t282.5 -123t114.5 -313h-689v-30q0 -172 55 -266.5t118 -132t134 -37.5t140 23t114.5 72t59.5 76v-76q-63 -79 -154 -101t-149 -22zM495 888q-128 0 -206.5 -102t-89.5 -277h568q-10 175 -77 277
t-195 102zM296 1283q0 51 52 51q26 0 52 -31l226 -266l-31 -5l-265 201q-34 26 -34 50z" />
    <glyph glyph-name="eacute" unicode="&#xe9;" horiz-adv-x="962" 
d="M515 -14q-134 0 -235 65.5t-150.5 169.5t-49.5 229q0 198 116 332t293 134t282.5 -123t114.5 -313h-689v-30q0 -172 55 -266.5t118 -132t134 -37.5t140 23t114.5 72t59.5 76v-76q-63 -79 -154 -101t-149 -22zM495 888q-128 0 -206.5 -102t-89.5 -277h568q-10 175 -77 277
t-195 102zM679 1283q0 -25 -34 -50l-265 -201l-31 5l225 266q26 31 52 31t39.5 -13t13.5 -38z" />
    <glyph glyph-name="ecircumflex" unicode="&#xea;" horiz-adv-x="962" 
d="M515 -14q-134 0 -235 65.5t-150.5 169.5t-49.5 229q0 198 116 332t293 134t282.5 -123t114.5 -313h-689v-30q0 -172 55 -266.5t118 -132t134 -37.5t140 23t114.5 72t59.5 76v-76q-63 -79 -154 -101t-149 -22zM495 888q-128 0 -206.5 -102t-89.5 -277h568q-10 175 -77 277
t-195 102zM718 1037l-25 -5l-205 152l-204 -152l-25 5l229 287z" />
    <glyph glyph-name="edieresis" unicode="&#xeb;" horiz-adv-x="962" 
d="M515 -14q-134 0 -235 65.5t-150.5 169.5t-49.5 229q0 198 116 332t293 134t282.5 -123t114.5 -313h-689v-30q0 -172 55 -266.5t118 -132t134 -37.5t140 23t114.5 72t59.5 76v-76q-63 -79 -154 -101t-149 -22zM495 888q-128 0 -206.5 -102t-89.5 -277h568q-10 175 -77 277
t-195 102zM335 1083q-33 0 -56 23t-23 56t23 56t56 23t56 -23t23 -56t-23 -56t-56 -23zM644 1083q-33 0 -56 23t-23 56t23 56t56 23t56 -23t23 -56t-23 -56t-56 -23z" />
    <glyph glyph-name="igrave" unicode="&#xec;" horiz-adv-x="387" 
d="M138 0v899h111v-899h-111zM2 1283q0 51 52 51q26 0 52 -31l226 -266l-31 -5l-265 201q-34 26 -34 50z" />
    <glyph glyph-name="iacute" unicode="&#xed;" horiz-adv-x="387" 
d="M138 0v899h111v-899h-111zM385 1283q0 -25 -34 -50l-265 -201l-31 5l226 266q27 31 52 31t38.5 -13t13.5 -38z" />
    <glyph glyph-name="icircumflex" unicode="&#xee;" horiz-adv-x="387" 
d="M138 0v899h111v-899h-111zM-11 1032l-25 5l230 287l229 -287l-25 -5l-204 152z" />
    <glyph glyph-name="idieresis" unicode="&#xef;" horiz-adv-x="387" 
d="M138 0v899h111v-899h-111zM348 1083q-33 0 -56 23t-23 56t23 56t56 23t56 -23t23 -56t-23 -56t-56 -23zM39 1083q-33 0 -56 23t-23 56t23 56t56 23t56 -23t23 -56t-23 -56t-56 -23z" />
    <glyph glyph-name="eth" unicode="&#xf0;" horiz-adv-x="1012" 
d="M503 -14q-182 0 -302.5 133t-120.5 331t120.5 332t302.5 134q132 0 236 -75q-78 199 -228 343l-284 -151l-14 26l275 146q-61 55 -127 97.5t-102 56.5l-36 14l22 17q44 -11 136.5 -57.5t162.5 -97.5l291 155l14 -26l-280 -149q356 -284 357 -765q0 -197 -120.5 -330.5
t-302.5 -133.5zM198 449.5q0 -193.5 80.5 -314.5t224 -121t224.5 121t81 314.5t-81 316t-224.5 122.5t-224 -122.5t-80.5 -316z" />
    <glyph glyph-name="ntilde" unicode="&#xf1;" horiz-adv-x="1003" 
d="M126 0v899h111v-351q48 264 168.5 316t188.5 52q140 0 215 -97t75 -246v-573h-111v573q0 149 -41.5 232t-154.5 83q-79 0 -145.5 -45t-130.5 -156t-64 -283v-404h-111zM231 1059q0 75 41.5 120.5t111.5 45.5t162 -34.5t134 -34.5t66 23.5t28 63.5h23q0 -75 -42.5 -122.5
t-112.5 -47.5t-162 34.5t-133 34.5q-84 0 -93 -83h-23z" />
    <glyph glyph-name="ograve" unicode="&#xf2;" horiz-adv-x="1015" 
d="M80 447.5q0 196.5 123 332.5t305 136t305 -136t123 -332.5t-122.5 -329t-305.5 -132.5t-305.5 132.5t-122.5 329zM197 447.5q0 -193.5 82.5 -313.5t227.5 -120t229 120.5t84 313t-84 316.5t-228 124t-227.5 -123.5t-83.5 -317zM340 1283q0 51 52 51q26 0 52 -31l226 -266
l-31 -5l-265 201q-34 26 -34 50z" />
    <glyph glyph-name="oacute" unicode="&#xf3;" horiz-adv-x="1015" 
d="M80 447.5q0 196.5 123 332.5t305 136t305 -136t123 -332.5t-122.5 -329t-305.5 -132.5t-305.5 132.5t-122.5 329zM197 447.5q0 -193.5 82.5 -313.5t227.5 -120t229 120.5t84 313t-84 316.5t-228 124t-227.5 -123.5t-83.5 -317zM667 1283q0 -25 -34 -50l-265 -201l-31 5
l225 266q26 31 52 31t39.5 -13t13.5 -38z" />
    <glyph glyph-name="ocircumflex" unicode="&#xf4;" horiz-adv-x="1015" 
d="M80 447.5q0 196.5 123 332.5t305 136t305 -136t123 -332.5t-122.5 -329t-305.5 -132.5t-305.5 132.5t-122.5 329zM197 447.5q0 -193.5 82.5 -313.5t227.5 -120t229 120.5t84 313t-84 316.5t-228 124t-227.5 -123.5t-83.5 -317zM303 1032l-24 5l229 287l229 -287l-24 -5
l-205 152z" />
    <glyph glyph-name="otilde" unicode="&#xf5;" horiz-adv-x="1015" 
d="M80 447.5q0 196.5 123 332.5t305 136t305 -136t123 -332.5t-122.5 -329t-305.5 -132.5t-305.5 132.5t-122.5 329zM197 447.5q0 -193.5 82.5 -313.5t227.5 -120t229 120.5t84 313t-84 316.5t-228 124t-227.5 -123.5t-83.5 -317zM231 1059q0 75 41.5 120.5t111.5 45.5
t162 -34.5t134 -34.5t66 23.5t28 63.5h23q0 -75 -42.5 -122.5t-112.5 -47.5t-162 34.5t-133 34.5q-84 0 -93 -83h-23z" />
    <glyph glyph-name="odieresis" unicode="&#xf6;" horiz-adv-x="1015" 
d="M80 447.5q0 196.5 123 332.5t305 136t305 -136t123 -332.5t-122.5 -329t-305.5 -132.5t-305.5 132.5t-122.5 329zM197 447.5q0 -193.5 82.5 -313.5t227.5 -120t229 120.5t84 313t-84 316.5t-228 124t-227.5 -123.5t-83.5 -317zM662.5 1083q-32.5 0 -55.5 23t-23 56t23 56
t55.5 23t55.5 -23t23 -56t-23 -56t-55.5 -23zM353.5 1083q-32.5 0 -56 23t-23.5 56t23.5 56t56 23t55.5 -23t23 -56t-23 -56t-55.5 -23z" />
    <glyph glyph-name="divide" unicode="&#xf7;" horiz-adv-x="1122" 
d="M560 709q-38 0 -64.5 26.5t-26.5 64.5t26.5 64.5t64.5 26.5t64.5 -26.5t26.5 -64.5t-26.5 -64.5t-64.5 -26.5zM112 466v29h899v-29h-899zM469 158q0 38 26.5 65t64.5 27t64.5 -26.5t26.5 -64.5t-26.5 -65t-64.5 -27t-64.5 26.5t-26.5 64.5z" />
    <glyph glyph-name="oslash" unicode="&#xf8;" horiz-adv-x="1015" 
d="M190 -130h-33l668 1160h34zM80 447.5q0 196.5 123 332.5t305 136t305 -136t123 -332.5t-122.5 -329t-305.5 -132.5t-305.5 132.5t-122.5 329zM197 447.5q0 -193.5 82.5 -313.5t227.5 -120t229 120.5t84 313t-84 316.5t-228 124t-227.5 -123.5t-83.5 -317z" />
    <glyph glyph-name="ugrave" unicode="&#xf9;" horiz-adv-x="1003" 
d="M120 326v573h110v-573q0 -170 49 -241t138 -71q171 0 260.5 155t89.5 326v404h111v-899h-111v351q-54 -266 -171.5 -315.5t-184.5 -49.5q-141 0 -216 96.5t-75 243.5zM347 1283q1 51 53 51q26 0 52 -31l225 -266l-31 -5l-265 201q-34 26 -34 50z" />
    <glyph glyph-name="uacute" unicode="&#xfa;" horiz-adv-x="1003" 
d="M120 326v573h110v-573q0 -170 49 -241t138 -71q171 0 260.5 155t89.5 326v404h111v-899h-111v351q-54 -266 -171.5 -315.5t-184.5 -49.5q-141 0 -216 96.5t-75 243.5zM677 1283q0 -25 -34 -50l-265 -201l-31 5l225 266q26 31 52 31t39.5 -13t13.5 -38z" />
    <glyph glyph-name="ucircumflex" unicode="&#xfb;" horiz-adv-x="1003" 
d="M120 326v573h110v-573q0 -170 49 -241t138 -71q171 0 260.5 155t89.5 326v404h111v-899h-111v351q-54 -266 -171.5 -315.5t-184.5 -49.5q-141 0 -216 96.5t-75 243.5zM294 1032l-25 5l230 287l229 -287l-25 -5l-204 152z" />
    <glyph glyph-name="udieresis" unicode="&#xfc;" horiz-adv-x="1003" 
d="M120 326v573h110v-573q0 -170 49 -241t138 -71q171 0 260.5 155t89.5 326v404h111v-899h-111v351q-54 -266 -171.5 -315.5t-184.5 -49.5q-141 0 -216 96.5t-75 243.5zM653.5 1083q-32.5 0 -56 23t-23.5 56t23.5 56t56 23t55.5 -23t23 -56t-23 -56t-55.5 -23zM344 1083
q-33 0 -56 23t-23 56t23 56t56 23t56 -23t23 -56t-23 -56t-56 -23z" />
    <glyph glyph-name="yacute" unicode="&#xfd;" horiz-adv-x="933" 
d="M458 14l-388 885h119l329 -747l329 747h32l-601 -1368h-33zM737 1283q0 -25 -34 -50l-265 -201l-30 5l225 266q27 31 52 31t38.5 -13t13.5 -38z" />
    <glyph glyph-name="thorn" unicode="&#xfe;" horiz-adv-x="1050" 
d="M237 -469h-111v1860h111v-663q99 188 312 188q182 0 302 -134.5t120 -331.5t-120 -330.5t-302 -133.5q-213 0 -312 186v-641zM237 449.5q0 -192.5 83.5 -314t228 -121.5t225.5 121t81 314.5t-81.5 316t-225.5 122.5t-227.5 -123t-83.5 -315.5z" />
    <glyph glyph-name="ydieresis" unicode="&#xff;" horiz-adv-x="933" 
d="M458 14l-388 885h119l329 -747l329 747h32l-601 -1368h-33zM660.5 1083q-32.5 0 -55.5 23t-23 56t23 56t55.5 23t55.5 -23t23 -56t-23 -56t-55.5 -23zM351 1083q-33 0 -56 23t-23 56t23 56t56 23t56 -23t23 -56t-23 -56t-56 -23z" />
    <glyph glyph-name="Amacron" unicode="&#x100;" horiz-adv-x="1257" 
d="M69 0l560 1426l560 -1426h-129l-170 434h-620l-170 -434h-31zM282 463h597l-298 760zM381 1569v54h497v-54h-497z" />
    <glyph glyph-name="amacron" unicode="&#x101;" horiz-adv-x="987" 
d="M871 29q31 0 55 16v-21q-20 -24 -72 -24q-131 0 -171 184q-26 -68 -98 -133t-207 -65t-215 64t-80 177t74 172.5t153.5 90t175.5 66.5t137 67t41 101t-48 117t-143 47q-133 0 -205 -63.5t-81 -81.5v76q60 60 150.5 78.5t158.5 18.5t127.5 -23t108 -73t48.5 -190v-372
q0 -229 91 -229zM670 325v253q0 57 -1 77q-18 -43 -61.5 -70t-164.5 -79t-182.5 -113.5t-61.5 -163t58.5 -158.5t150.5 -57t167 61.5t101 148.5q-6 47 -6 101zM225 1098v54h497v-54h-497z" />
    <glyph glyph-name="Abreve" unicode="&#x102;" horiz-adv-x="1257" 
d="M69 0l560 1426l560 -1426h-129l-170 434h-620l-170 -434h-31zM282 463h597l-298 760zM628.5 1504q-97.5 0 -163 68t-65.5 177l23 -12q10 -58 65.5 -100t140.5 -42t140.5 42t65.5 100l22 12q0 -109 -65.5 -177t-163 -68z" />
    <glyph glyph-name="abreve" unicode="&#x103;" horiz-adv-x="987" 
d="M871 29q31 0 55 16v-21q-20 -24 -72 -24q-131 0 -171 184q-26 -68 -98 -133t-207 -65t-215 64t-80 177t74 172.5t153.5 90t175.5 66.5t137 67t41 101t-48 117t-143 47q-133 0 -205 -63.5t-81 -81.5v76q60 60 150.5 78.5t158.5 18.5t127.5 -23t108 -73t48.5 -190v-372
q0 -229 91 -229zM670 325v253q0 57 -1 77q-18 -43 -61.5 -70t-164.5 -79t-182.5 -113.5t-61.5 -163t58.5 -158.5t150.5 -57t167 61.5t101 148.5q-6 47 -6 101zM473 1033q-97 0 -162.5 68t-65.5 177l22 -12q10 -58 65.5 -100t140.5 -42t140.5 42t65.5 100l22 12
q0 -109 -65.5 -177t-162.5 -68z" />
    <glyph glyph-name="Aogonek" unicode="&#x104;" horiz-adv-x="1257" 
d="M939 -371q-131 1 -131 123q0 64 73 132t179 116l-170 434h-620l-170 -434h-31l560 1426l560 -1426h-86q-95 -37 -156.5 -102t-61.5 -140q0 -92 89 -92q44 0 89 40v-29q-58 -48 -124 -48zM282 463h597l-298 760z" />
    <glyph glyph-name="aogonek" unicode="&#x105;" horiz-adv-x="987" 
d="M715 -371q-131 1 -131 123q0 64 74 132.5t181 116.5q-58 5 -98.5 53.5t-57.5 129.5q-26 -68 -98 -133t-207 -65t-215 64t-80 177t74 172.5t153.5 90t175.5 66.5t137 67t41 101t-48 117t-143 47q-133 0 -205 -63.5t-81 -81.5v76q60 60 150.5 78.5t158.5 18.5t127.5 -23
t108 -73t48.5 -190v-372q0 -229 91 -229q31 0 55 16v-21q-10 -11 -34 -19q-99 -37 -165.5 -103t-66.5 -144q0 -45 23.5 -68.5t62.5 -23.5t93 40v-29q-58 -48 -124 -48zM670 325v253q0 57 -1 77q-18 -43 -61.5 -70t-164.5 -79t-182.5 -113.5t-61.5 -163t58.5 -158.5
t150.5 -57t167 61.5t101 148.5q-6 47 -6 101z" />
    <glyph glyph-name="Cacute" unicode="&#x106;" horiz-adv-x="1390" 
d="M85 695q0 151 56.5 285t152.5 230t230.5 151.5t286.5 55.5q233 0 422 -98v-73q-180 142 -422 143q-164 0 -298.5 -91.5t-211 -250.5t-76.5 -353t76.5 -352t211 -249t282.5 -91q283 0 476 186v-78q-182 -136 -460 -137q-152 0 -286.5 56t-230.5 151.5t-152.5 229.5
t-56.5 285zM994 1754q0 -25 -33 -50l-266 -201l-30 5l225 266q27 32 52 32t38.5 -13.5t13.5 -38.5z" />
    <glyph glyph-name="cacute" unicode="&#x107;" horiz-adv-x="927" 
d="M516 916q178 0 290 -81v-79q-49 81 -135 106.5t-142 25.5q-154 0 -243 -123t-89 -319t97.5 -314t261.5 -118q109 0 175.5 47t94.5 94v-79q-56 -56 -144.5 -73t-141.5 -17q-197 0 -328.5 129.5t-131.5 330.5t129 335.5t307 134.5zM702 1283q0 -25 -33 -50l-266 -201l-30 5
l225 266q27 31 52 31t38.5 -13t13.5 -38z" />
    <glyph glyph-name="Ccircumflex" unicode="&#x108;" horiz-adv-x="1390" 
d="M85 695q0 151 56.5 285t152.5 230t230.5 151.5t286.5 55.5q233 0 422 -98v-73q-180 142 -422 143q-164 0 -298.5 -91.5t-211 -250.5t-76.5 -353t76.5 -352t211 -249t282.5 -91q283 0 476 186v-78q-182 -136 -460 -137q-152 0 -286.5 56t-230.5 151.5t-152.5 229.5
t-56.5 285zM589 1503l-25 5l230 287l229 -287l-25 -5l-204 152z" />
    <glyph glyph-name="ccircumflex" unicode="&#x109;" horiz-adv-x="927" 
d="M516 916q178 0 290 -81v-79q-49 81 -135 106.5t-142 25.5q-154 0 -243 -123t-89 -319t97.5 -314t261.5 -118q109 0 175.5 47t94.5 94v-79q-56 -56 -144.5 -73t-141.5 -17q-197 0 -328.5 129.5t-131.5 330.5t129 335.5t307 134.5zM295 1032l-25 5l230 287l229 -287l-24 -5
l-205 152z" />
    <glyph glyph-name="Cdotaccent" unicode="&#x10a;" horiz-adv-x="1390" 
d="M85 695q0 151 56.5 285t152.5 230t230.5 151.5t286.5 55.5q233 0 422 -98v-73q-180 142 -422 143q-164 0 -298.5 -91.5t-211 -250.5t-76.5 -353t76.5 -352t211 -249t282.5 -91q283 0 476 186v-78q-182 -136 -460 -137q-152 0 -286.5 56t-230.5 151.5t-152.5 229.5
t-56.5 285zM793.5 1574q-32.5 0 -55.5 23t-23 56t23 56t55.5 23t55.5 -23t23 -56t-23 -56t-55.5 -23z" />
    <glyph glyph-name="cdotaccent" unicode="&#x10b;" horiz-adv-x="927" 
d="M516 916q178 0 290 -81v-79q-49 81 -135 106.5t-142 25.5q-154 0 -243 -123t-89 -319t97.5 -314t261.5 -118q109 0 175.5 47t94.5 94v-79q-56 -56 -144.5 -73t-141.5 -17q-197 0 -328.5 129.5t-131.5 330.5t129 335.5t307 134.5zM499.5 1103q-32.5 0 -55.5 23t-23 55.5
t23 56t55.5 23.5t56 -23.5t23.5 -56t-23.5 -55.5t-56 -23z" />
    <glyph glyph-name="Ccaron" unicode="&#x10c;" horiz-adv-x="1390" 
d="M85 695q0 151 56.5 285t152.5 230t230.5 151.5t286.5 55.5q233 0 422 -98v-73q-180 142 -422 143q-164 0 -298.5 -91.5t-211 -250.5t-76.5 -353t76.5 -352t211 -249t282.5 -91q283 0 476 186v-78q-182 -136 -460 -137q-152 0 -286.5 56t-230.5 151.5t-152.5 229.5
t-56.5 285zM794 1503l-230 287l25 5l205 -151l204 151l25 -5z" />
    <glyph glyph-name="ccaron" unicode="&#x10d;" horiz-adv-x="927" 
d="M516 916q178 0 290 -81v-79q-49 81 -135 106.5t-142 25.5q-154 0 -243 -123t-89 -319t97.5 -314t261.5 -118q109 0 175.5 47t94.5 94v-79q-56 -56 -144.5 -73t-141.5 -17q-197 0 -328.5 129.5t-131.5 330.5t129 335.5t307 134.5zM500 1032l-230 287l25 5l205 -152
l205 152l24 -5z" />
    <glyph glyph-name="Dcaron" unicode="&#x10e;" horiz-adv-x="1312" 
d="M130 0v1391h358q205 0 376 -88.5t272.5 -248.5t101.5 -358.5t-101.5 -359t-272.5 -248.5t-376 -88h-358zM253 29h231q125 0 239 49.5t198.5 136.5t134 212t49.5 268.5t-49.5 268.5t-134 212t-198.5 136.5t-239 49.5h-231v-1333zM560 1503l-229 287l24 5l205 -151l205 151
l25 -5z" />
    <glyph glyph-name="dcaron" unicode="&#x10f;" horiz-adv-x="1050" 
d="M1149 1428q23 0 36.5 -13t13.5 -31t-9 -44l-117 -306h-31l55 336q9 58 52 58zM814 0v177q-97 -191 -312 -191q-182 0 -302 133t-120 331t119.5 332t302.5 134q215 0 312 -193v668h111v-1391h-111zM196 449.5q0 -193.5 80.5 -314.5t225 -121t228.5 121.5t84 314t-84 315.5
t-228 123t-225 -122.5t-81 -316z" />
    <glyph glyph-name="Dcroat" unicode="&#x110;" horiz-adv-x="1323" 
d="M140 0v695h-142v29h142v667h359q205 0 376 -88.5t272 -248.5t101 -358.5t-101 -359t-272.5 -248.5t-375.5 -88h-359zM263 29h232q125 0 238.5 49.5t198 136.5t134 212t49.5 268.5t-49.5 268.5t-134 212t-198 136.5t-238.5 49.5h-232v-638h435v-29h-435v-666z" />
    <glyph glyph-name="dcroat" unicode="&#x111;" horiz-adv-x="1050" 
d="M814 0v172q-99 -186 -312 -186q-182 0 -302 133t-120 331t119.5 332t302.5 134q213 0 312 -188v411h-313v28h313v224h111v-224h157v-28h-157v-1139h-111zM196 449.5q0 -193.5 80.5 -314.5t225 -121t228.5 121.5t84 314t-84 315.5t-228 123t-225 -122.5t-81 -316z" />
    <glyph glyph-name="Emacron" unicode="&#x112;" horiz-adv-x="998" 
d="M130 0v1391h765v-29h-642v-638h543v-29h-543v-666h642v-29h-765zM284 1569v54h496v-54h-496z" />
    <glyph glyph-name="emacron" unicode="&#x113;" horiz-adv-x="962" 
d="M515 -14q-134 0 -235 65.5t-150.5 169.5t-49.5 229q0 198 116 332t293 134t282.5 -123t114.5 -313h-689v-30q0 -172 55 -266.5t118 -132t134 -37.5t140 23t114.5 72t59.5 76v-76q-63 -79 -154 -101t-149 -22zM495 888q-128 0 -206.5 -102t-89.5 -277h568q-10 175 -77 277
t-195 102zM737 1152v-54h-496v54h496z" />
    <glyph glyph-name="Ebreve" unicode="&#x114;" horiz-adv-x="998" 
d="M130 0v1391h765v-29h-642v-638h543v-29h-543v-666h642v-29h-765zM543.5 1504q-97.5 0 -163 68t-65.5 177l23 -12q10 -58 65.5 -100t140.5 -42t140.5 42t65.5 100l22 12q0 -109 -65.5 -177t-163 -68z" />
    <glyph glyph-name="ebreve" unicode="&#x115;" horiz-adv-x="962" 
d="M515 -14q-134 0 -235 65.5t-150.5 169.5t-49.5 229q0 198 116 332t293 134t282.5 -123t114.5 -313h-689v-30q0 -172 55 -266.5t118 -132t134 -37.5t140 23t114.5 72t59.5 76v-76q-63 -79 -154 -101t-149 -22zM495 888q-128 0 -206.5 -102t-89.5 -277h568q-10 175 -77 277
t-195 102zM488 1124q85 0 140.5 41.5t65.5 100.5l23 12q0 -109 -65.5 -177t-163 -68t-163 68t-65.5 177l23 -12q10 -58 65 -100t140 -42z" />
    <glyph glyph-name="Edotaccent" unicode="&#x116;" horiz-adv-x="998" 
d="M130 0v1391h765v-29h-642v-638h543v-29h-543v-666h642v-29h-765zM531.5 1574q-32.5 0 -55.5 23t-23 56t23 56t55.5 23t55.5 -23t23 -56t-23 -56t-55.5 -23z" />
    <glyph glyph-name="edotaccent" unicode="&#x117;" horiz-adv-x="962" 
d="M515 -14q-134 0 -235 65.5t-150.5 169.5t-49.5 229q0 198 116 332t293 134t282.5 -123t114.5 -313h-689v-30q0 -172 55 -266.5t118 -132t134 -37.5t140 23t114.5 72t59.5 76v-76q-63 -79 -154 -101t-149 -22zM495 888q-128 0 -206.5 -102t-89.5 -277h568q-10 175 -77 277
t-195 102zM488.5 1103q-32.5 0 -55.5 23t-23 55.5t23 56t55.5 23.5t55.5 -23.5t23 -56t-23 -55.5t-55.5 -23z" />
    <glyph glyph-name="Eogonek" unicode="&#x118;" horiz-adv-x="998" 
d="M731 -371q-131 1 -131 123q0 64 73 132t179 116h-722v1391h765v-29h-642v-638h543v-29h-543v-666h642v-29q-95 -37 -156.5 -102t-61.5 -140q0 -92 88 -92q42 0 90 40v-29q-58 -48 -124 -48z" />
    <glyph glyph-name="eogonek" unicode="&#x119;" horiz-adv-x="962" 
d="M481 -371q-131 -1 -131 119q0 60 66.5 126.5t164.5 115.5q-28 -4 -66 -4q-134 0 -235 65.5t-150.5 169.5t-49.5 229q0 198 116 332t293 134t282.5 -123t114.5 -313h-689v-30q0 -172 55 -266.5t117.5 -132t134.5 -37.5q131 0 208 57.5t106 114.5v-77q-17 -24 -60.5 -53
t-89.5 -46q-100 -36 -170.5 -105.5t-70.5 -146.5q0 -92 88 -92q42 0 90 40v-29q-58 -48 -124 -48zM495 888q-128 0 -206.5 -102t-89.5 -277h568q-10 175 -77 277t-195 102z" />
    <glyph glyph-name="Ecaron" unicode="&#x11a;" horiz-adv-x="998" 
d="M130 0v1391h765v-29h-642v-638h543v-29h-543v-666h642v-29h-765zM544 1503l-230 287l25 5l205 -151l205 151l24 -5z" />
    <glyph glyph-name="ecaron" unicode="&#x11b;" horiz-adv-x="962" 
d="M515 -14q-134 0 -235 65.5t-150.5 169.5t-49.5 229q0 198 116 332t293 134t282.5 -123t114.5 -313h-689v-30q0 -172 55 -266.5t118 -132t134 -37.5t140 23t114.5 72t59.5 76v-76q-63 -79 -154 -101t-149 -22zM495 888q-128 0 -206.5 -102t-89.5 -277h568q-10 175 -77 277
t-195 102zM718 1319l-230 -287l-229 287l25 5l204 -152l205 152z" />
    <glyph glyph-name="Gcircumflex" unicode="&#x11c;" horiz-adv-x="1483" 
d="M1279 1230q-179 159 -475 159q-148 0 -284.5 -91.5t-216 -250.5t-79.5 -351.5t79.5 -352.5t216.5 -250.5t301 -90.5q247 0 413 112v596h122v-584q-213 -153 -535 -153q-202 0 -370.5 94.5t-267 260.5t-98.5 342t58 310t156.5 230t235 151.5t286.5 55.5q261 0 458 -114
v-73zM589 1503l-25 5l230 287l229 -287l-25 -5l-204 152z" />
    <glyph glyph-name="gcircumflex" unicode="&#x11d;" horiz-adv-x="1026" 
d="M518 916q178 0 290 -129q55 45 55 146h115q0 -54 -45 -102.5t-106 -68.5q63 -88 64 -199q0 -151 -98.5 -239t-261.5 -112q-7 -1 -41.5 -5.5t-54.5 -7.5t-111.5 -21t-91.5 -60q0 -67 332 -107q4 -1 6 -1q196 -24 301.5 -87.5t105.5 -155.5q0 -71 -65 -129t-172 -89.5
t-230 -31.5t-230 31.5t-172 89.5t-65 129q0 96 114.5 164.5t278.5 68.5h15q-71 4 -203 30t-132 88q0 73 301 100q-132 26 -214.5 120t-82.5 236t110 242t288 100zM506 239q130 0 199 86.5t69 238t-69 238t-199 86.5t-199 -86.5t-69 -238t69 -238t199 -86.5zM150 -233.5
q0 -99.5 105 -160.5t254.5 -61t255 61t105.5 160.5t-105.5 160t-255 60.5t-254.5 -60.5t-105 -160zM299 1032l-25 5l230 287l229 -287l-24 -5l-205 152z" />
    <glyph glyph-name="Gbreve" unicode="&#x11e;" horiz-adv-x="1483" 
d="M1279 1230q-179 159 -475 159q-148 0 -284.5 -91.5t-216 -250.5t-79.5 -351.5t79.5 -352.5t216.5 -250.5t301 -90.5q247 0 413 112v596h122v-584q-213 -153 -535 -153q-202 0 -370.5 94.5t-267 260.5t-98.5 342t58 310t156.5 230t235 151.5t286.5 55.5q261 0 458 -114
v-73zM793.5 1504q-97.5 0 -163 68t-65.5 177l23 -12q10 -58 65.5 -100t140.5 -42t140 42t65 100l23 12q0 -109 -65.5 -177t-163 -68z" />
    <glyph glyph-name="gbreve" unicode="&#x11f;" horiz-adv-x="1026" 
d="M518 916q178 0 290 -129q55 45 55 146h115q0 -54 -45 -102.5t-106 -68.5q63 -88 64 -199q0 -151 -98.5 -239t-261.5 -112q-7 -1 -41.5 -5.5t-54.5 -7.5t-111.5 -21t-91.5 -60q0 -67 332 -107q4 -1 6 -1q196 -24 301.5 -87.5t105.5 -155.5q0 -71 -65 -129t-172 -89.5
t-230 -31.5t-230 31.5t-172 89.5t-65 129q0 96 114.5 164.5t278.5 68.5h15q-71 4 -203 30t-132 88q0 73 301 100q-132 26 -214.5 120t-82.5 236t110 242t288 100zM506 239q130 0 199 86.5t69 238t-69 238t-199 86.5t-199 -86.5t-69 -238t69 -238t199 -86.5zM150 -233.5
q0 -99.5 105 -160.5t254.5 -61t255 61t105.5 160.5t-105.5 160t-255 60.5t-254.5 -60.5t-105 -160zM503 1033q-97 0 -163 68t-66 177l23 -12q10 -58 65.5 -100t140.5 -42t140.5 42t65.5 100l22 12q0 -109 -65.5 -177t-162.5 -68z" />
    <glyph glyph-name="Gdotaccent" unicode="&#x120;" horiz-adv-x="1483" 
d="M1279 1230q-179 159 -475 159q-148 0 -284.5 -91.5t-216 -250.5t-79.5 -351.5t79.5 -352.5t216.5 -250.5t301 -90.5q247 0 413 112v596h122v-584q-213 -153 -535 -153q-202 0 -370.5 94.5t-267 260.5t-98.5 342t58 310t156.5 230t235 151.5t286.5 55.5q261 0 458 -114
v-73zM793.5 1574q-32.5 0 -55.5 23t-23 56t23 56t55.5 23t55.5 -23t23 -56t-23 -56t-55.5 -23z" />
    <glyph glyph-name="gdotaccent" unicode="&#x121;" horiz-adv-x="1026" 
d="M518 916q178 0 290 -129q55 45 55 146h115q0 -54 -45 -102.5t-106 -68.5q63 -88 64 -199q0 -151 -98.5 -239t-261.5 -112q-7 -1 -41.5 -5.5t-54.5 -7.5t-111.5 -21t-91.5 -60q0 -67 332 -107q4 -1 6 -1q196 -24 301.5 -87.5t105.5 -155.5q0 -71 -65 -129t-172 -89.5
t-230 -31.5t-230 31.5t-172 89.5t-65 129q0 96 114.5 164.5t278.5 68.5h15q-71 4 -203 30t-132 88q0 73 301 100q-132 26 -214.5 120t-82.5 236t110 242t288 100zM506 239q130 0 199 86.5t69 238t-69 238t-199 86.5t-199 -86.5t-69 -238t69 -238t199 -86.5zM150 -233.5
q0 -99.5 105 -160.5t254.5 -61t255 61t105.5 160.5t-105.5 160t-255 60.5t-254.5 -60.5t-105 -160zM504 1103q-33 0 -56 23t-23 55.5t23 56t56 23.5t56 -23.5t23 -56t-23 -55.5t-56 -23z" />
    <glyph glyph-name="uni0122" unicode="&#x122;" horiz-adv-x="1483" 
d="M1279 1230q-179 159 -475 159q-148 0 -284.5 -91.5t-216 -250.5t-79.5 -351.5t79.5 -352.5t216.5 -250.5t301 -90.5q247 0 413 112v596h122v-584q-213 -153 -535 -153q-202 0 -370.5 94.5t-267 260.5t-98.5 342t58 310t156.5 230t235 151.5t286.5 55.5q261 0 458 -114
v-73zM827.5 -338.5q16.5 36.5 16.5 64.5t-13 41l-3 5q-18 -31 -54 -31t-57 20.5t-21 52.5t23 52.5t65 20.5t73 -37t31 -81q0 -78 -42 -118t-78 -52v12q43 14 59.5 50.5z" />
    <glyph glyph-name="uni0123" unicode="&#x123;" horiz-adv-x="1026" 
d="M518 916q178 0 290 -129q55 45 55 146h115q0 -54 -45 -102.5t-106 -68.5q63 -88 64 -199q0 -151 -98.5 -239t-261.5 -112q-7 -1 -41.5 -5.5t-54.5 -7.5t-111.5 -21t-91.5 -60q0 -67 332 -107q4 -1 6 -1q196 -24 301.5 -87.5t105.5 -155.5q0 -71 -65 -129t-172 -89.5
t-230 -31.5t-230 31.5t-172 89.5t-65 129q0 96 114.5 164.5t278.5 68.5h15q-71 4 -203 30t-132 88q0 73 301 100q-132 26 -214.5 120t-82.5 236t110 242t288 100zM506 239q130 0 199 86.5t69 238t-69 238t-199 86.5t-199 -86.5t-69 -238t69 -238t199 -86.5zM150 -233.5
q0 -99.5 105 -160.5t254.5 -61t255 61t105.5 160.5t-105.5 160t-255 60.5t-254.5 -60.5t-105 -160zM476.5 1230.5q-15.5 -36.5 -15.5 -64.5t12 -40l3 -5q18 31 54 31t57 -20t21 -52t-23 -53t-65 -21t-72.5 37t-30.5 81q0 79 42 119t78 51v-12q-45 -15 -60.5 -51.5z" />
    <glyph glyph-name="Hcircumflex" unicode="&#x124;" horiz-adv-x="1369" 
d="M130 0v1391h123v-667h863v667h123v-1391h-123v695h-863v-695h-123zM479 1503l-24 5l229 287l229 -287l-24 -5l-205 152z" />
    <glyph glyph-name="hcircumflex" unicode="&#x125;" horiz-adv-x="1003" 
d="M126 0v1391h111v-843q48 264 168.5 316t188.5 52q140 0 215 -97t75 -246v-573h-111v573q0 149 -41.5 232t-154.5 83q-79 0 -145.5 -45t-130.5 -156t-64 -283v-404h-111zM-24 1503l-24 5l229 287l230 -287l-25 -5l-205 152z" />
    <glyph glyph-name="Hbar" unicode="&#x126;" horiz-adv-x="1369" 
d="M130 0v1042h-163v29h163v320h123v-320h863v320h123v-320h163v-29h-163v-1042h-123v695h-863v-695h-123zM253 724h863v318h-863v-318z" />
    <glyph glyph-name="hbar" unicode="&#x127;" horiz-adv-x="1003" 
d="M126 0v1391h111v-1391h-111zM-32 1139v28h582v-28h-582zM237 404v144q48 264 168.5 316t188.5 52q140 0 215 -97t75 -246v-573h-111v573q0 149 -41.5 232t-154.5 83q-79 0 -145.5 -45t-130.5 -156t-64 -283z" />
    <glyph glyph-name="Itilde" unicode="&#x128;" horiz-adv-x="406" 
d="M142 0v1391h122v-1391h-122zM-80 1530q0 75 42 120.5t112 45.5t161.5 -34.5t133.5 -34.5t66 23.5t28 63.5h22q0 -75 -42.5 -122.5t-112.5 -47.5t-161.5 34.5t-132.5 34.5q-84 0 -93 -83h-23z" />
    <glyph glyph-name="itilde" unicode="&#x129;" horiz-adv-x="387" 
d="M138 0v899h111v-899h-111zM-89 1059q0 75 41.5 120.5t111.5 45.5t162 -34.5t134 -34.5t66 23.5t28 63.5h22q0 -75 -42 -122.5t-112 -47.5t-162 34.5t-133 34.5q-84 0 -94 -83h-22z" />
    <glyph glyph-name="Imacron" unicode="&#x12a;" horiz-adv-x="406" 
d="M142 0v1391h122v-1391h-122zM-45 1569v54h497v-54h-497z" />
    <glyph glyph-name="imacron" unicode="&#x12b;" horiz-adv-x="387" 
d="M138 0v899h111v-899h-111zM-54 1098v54h496v-54h-496z" />
    <glyph glyph-name="Ibreve" unicode="&#x12c;" horiz-adv-x="406" 
d="M142 0v1391h122v-1391h-122zM202.5 1504q-97.5 0 -163 68t-65.5 177l23 -12q10 -58 65.5 -100t140.5 -42t140.5 42t65.5 100l22 12q0 -109 -65.5 -177t-163 -68z" />
    <glyph glyph-name="ibreve" unicode="&#x12d;" horiz-adv-x="387" 
d="M138 0v899h111v-899h-111zM193.5 1033q-97.5 0 -163 68t-65.5 177l23 -12q10 -58 65.5 -100t140.5 -42t140 42t65 100l23 12q0 -109 -65.5 -177t-163 -68z" />
    <glyph glyph-name="Iogonek" unicode="&#x12e;" horiz-adv-x="406" 
d="M46 -242q0 -92 88 -92q42 0 90 40v-29q-58 -48 -124 -48q-131 1 -131 123q0 64 73.5 132t178.5 116h-79v1391h122v-1391q-95 -37 -156.5 -102t-61.5 -140z" />
    <glyph glyph-name="iogonek" unicode="&#x12f;" horiz-adv-x="387" 
d="M193.5 1085q-34.5 0 -59 25t-24.5 59.5t24.5 59t59 24.5t59.5 -24.5t25 -59t-25 -59.5t-59.5 -25zM31 -242q0 -92 89 -92q44 0 89 40v-29q-58 -48 -124 -48q-131 1 -131 123q0 64 73 132t179 116h-68v899h111v-899q-95 -37 -156.5 -102t-61.5 -140z" />
    <glyph glyph-name="Idotaccent" unicode="&#x130;" horiz-adv-x="406" 
d="M142 0v1391h122v-1391h-122zM203 1574q-33 0 -56 23t-23 56t23 56t56 23t56 -23t23 -56t-23 -56t-56 -23z" />
    <glyph glyph-name="dotlessi" unicode="&#x131;" horiz-adv-x="387" 
d="M138 0v899h111v-899h-111z" />
    <glyph glyph-name="IJ" unicode="&#x132;" horiz-adv-x="813" 
d="M142 0v1391h122v-1391h-122zM549 209v1182h122v-1106q0 -435 -151.5 -589t-247.5 -192v29q47 33 109.5 90t115 200t52.5 386z" />
    <glyph glyph-name="ij" unicode="&#x133;" horiz-adv-x="774" 
d="M193.5 1085q-34.5 0 -59 25t-24.5 59.5t24.5 59t59 24.5t59.5 -24.5t25 -59t-25 -59.5t-59.5 -25zM138 0v899h111v-899h-111zM580.5 1085q-34.5 0 -59 25t-24.5 59.5t24.5 59t59 24.5t59.5 -24.5t25 -59t-25 -59.5t-59.5 -25zM525 236v663h111v-588q0 -296 -62.5 -447
t-128.5 -228t-144 -105v23q95 74 159.5 203.5t64.5 478.5z" />
    <glyph glyph-name="Jcircumflex" unicode="&#x134;" horiz-adv-x="406" 
d="M142 209v1182h122v-1106q0 -280 -75.5 -435t-140 -219.5t-100 -85t-82.5 -41.5v29q47 33 108.5 89t114.5 198t53 389zM-2 1503l-25 5l230 287l229 -287l-24 -5l-205 152z" />
    <glyph glyph-name="jcircumflex" unicode="&#x135;" horiz-adv-x="387" 
d="M138 236v663h111v-588q0 -280 -64 -448.5t-139.5 -240.5t-131.5 -91v23q95 74 159.5 203.5t64.5 478.5zM-11 1032l-25 5l230 287l229 -287l-25 -5l-204 152z" />
    <glyph glyph-name="uni0136" unicode="&#x136;" horiz-adv-x="1206" 
d="M130 0v1391h123v-927l718 927h39l-426 -549l588 -842h-144l-520 743l-255 -328v-415h-123zM632.5 -337.5q15.5 36.5 15.5 63.5t-15 46q-19 -31 -55 -31t-56.5 20.5t-20.5 52.5t23.5 52.5t65.5 20.5t72 -37t30 -81q0 -79 -41 -118.5t-79 -51.5v12q45 15 60.5 51.5z" />
    <glyph glyph-name="uni0137" unicode="&#x137;" horiz-adv-x="914" 
d="M126 0v1391h111v-1109l527 617h40l-297 -346l417 -553h-138l-352 468l-197 -232v-236h-111zM500.5 -337.5q15.5 36.5 15.5 60.5t-15 49q-19 -31 -55 -31t-56.5 20.5t-20.5 52.5t23.5 52.5t65.5 20.5t72 -37t30 -81q0 -79 -41 -118.5t-79 -51.5v12q45 15 60.5 51.5z" />
    <glyph glyph-name="kgreenlandic" unicode="&#x138;" horiz-adv-x="949" 
d="M126 0v899h111v-617l527 617h40l-297 -346l417 -553h-138l-352 468l-197 -232v-236h-111z" />
    <glyph glyph-name="Lacute" unicode="&#x139;" horiz-adv-x="901" 
d="M130 0v1391h123v-1362h569v-29h-692zM456 1754q0 -25 -34 -50l-265 -201l-31 5l225 266q27 32 53 32t39 -13.5t13 -38.5z" />
    <glyph glyph-name="lacute" unicode="&#x13a;" horiz-adv-x="387" 
d="M138 0v1391h111v-1391h-111zM428 1754q0 -25 -34 -50l-265 -201l-31 5l226 266q27 32 52 32t38.5 -13.5t13.5 -38.5z" />
    <glyph glyph-name="uni013B" unicode="&#x13b;" horiz-adv-x="901" 
d="M130 0v1391h123v-1362h569v-29h-692zM521.5 -337.5q16.5 37.5 16.5 63.5t-16 46q-18 -31 -54 -31t-57 20.5t-21 52.5t23 52.5t65 20.5t73 -37t31 -81q0 -78 -41 -117.5t-79 -52.5v12q43 14 59.5 51.5z" />
    <glyph glyph-name="uni013C" unicode="&#x13c;" horiz-adv-x="387" 
d="M138 0v1391h111v-1391h-111zM229.5 -338.5q16.5 36.5 16.5 64.5t-13 41l-3 5q-18 -31 -54 -31t-57 20.5t-21 52.5t23 52.5t65 20.5t73 -37t31 -81q0 -78 -42 -118t-78 -52v12q43 14 59.5 50.5z" />
    <glyph glyph-name="Lcaron" unicode="&#x13d;" horiz-adv-x="901" 
d="M572 1428q23 0 37 -13t14 -31t-10 -44l-116 -306h-31l54 336q9 58 52 58zM130 0v1391h123v-1362h569v-29h-692z" />
    <glyph glyph-name="lcaron" unicode="&#x13e;" horiz-adv-x="387" 
d="M455 1428q23 0 36.5 -13t13.5 -31t-9 -44l-117 -306h-31l54 336q9 58 53 58zM138 0v1391h111v-1391h-111z" />
    <glyph glyph-name="Ldot" unicode="&#x13f;" horiz-adv-x="901" 
d="M680 616q-33 0 -56 23.5t-23 56t23 55.5t56 23t56 -23t23 -55.5t-23 -56t-56 -23.5zM130 0v1391h123v-1362h569v-29h-692z" />
    <glyph glyph-name="ldot" unicode="&#x140;" horiz-adv-x="435" 
d="M409.5 616q-32.5 0 -55.5 23.5t-23 56t23 55.5t55.5 23t55.5 -23t23 -55.5t-23 -56t-55.5 -23.5zM138 0v1391h111v-1391h-111z" />
    <glyph glyph-name="Lslash" unicode="&#x141;" horiz-adv-x="901" 
d="M130 0v596l-162 -79v32l162 79v763h123v-704l380 186v-31l-380 -187v-626h569v-29h-692z" />
    <glyph glyph-name="lslash" unicode="&#x142;" horiz-adv-x="385" 
d="M138 0v734l-156 -110v34l156 111v622h109v-545l156 111v-34l-156 -112v-811h-109z" />
    <glyph glyph-name="Nacute" unicode="&#x143;" horiz-adv-x="1315" 
d="M130 0v1414l1027 -1213v1190h29v-1415l-1027 1215v-1191h-29zM901 1754q0 -25 -34 -50l-265 -201l-31 5l226 266q27 32 52 32t38.5 -13.5t13.5 -38.5z" />
    <glyph glyph-name="nacute" unicode="&#x144;" horiz-adv-x="1003" 
d="M126 0v899h111v-351q48 264 168.5 316t188.5 52q140 0 215 -97t75 -246v-573h-111v573q0 149 -41.5 232t-154.5 83q-79 0 -145.5 -45t-130.5 -156t-64 -283v-404h-111zM709 1283q0 -25 -34 -50l-265 -201l-31 5l225 266q26 31 52 31t39.5 -13t13.5 -38z" />
    <glyph glyph-name="uni0145" unicode="&#x145;" horiz-adv-x="1315" 
d="M130 0v1414l1027 -1213v1190h29v-1415l-1027 1215v-1191h-29zM691.5 -337.5q16.5 37.5 16.5 63.5t-16 46q-18 -31 -54 -31t-57 20.5t-21 52.5t23 52.5t65 20.5t73 -37t31 -81q0 -78 -41 -117.5t-79 -52.5v12q43 14 59.5 51.5z" />
    <glyph glyph-name="uni0146" unicode="&#x146;" horiz-adv-x="1003" 
d="M126 0v899h111v-351q48 264 168.5 316t188.5 52q140 0 215 -97t75 -246v-573h-111v573q0 149 -41.5 232t-154.5 83q-79 0 -145.5 -45t-130.5 -156t-64 -283v-404h-111zM498 -259q-36 0 -57 20.5t-21 52.5t23 52.5t65 20.5t72.5 -37t30.5 -81q0 -79 -41.5 -118.5
t-77.5 -51.5v12q22 7 48.5 37.5t26.5 64.5t-15 59q-18 -31 -54 -31z" />
    <glyph glyph-name="Ncaron" unicode="&#x147;" horiz-adv-x="1315" 
d="M130 0v1414l1027 -1213v1190h29v-1415l-1027 1215v-1191h-29zM674 1503l-230 287l25 5l205 -151l205 151l24 -5z" />
    <glyph glyph-name="ncaron" unicode="&#x148;" horiz-adv-x="1003" 
d="M126 0v899h111v-351q48 264 168.5 316t188.5 52q140 0 215 -97t75 -246v-573h-111v573q0 149 -41.5 232t-154.5 83q-79 0 -145.5 -45t-130.5 -156t-64 -283v-404h-111zM514 1032l-229 287l24 5l205 -152l205 152l24 -5z" />
    <glyph glyph-name="Eng" unicode="&#x14a;" horiz-adv-x="1315" 
d="M130 0v1414l934 -1104v1081h122v-1106q0 -431 -149 -584.5t-250 -196.5v29q93 67 138.5 129t86 159t50.5 302l-903 1068v-1191h-29z" />
    <glyph glyph-name="eng" unicode="&#x14b;" horiz-adv-x="1003" 
d="M126 0v899h111v-351q48 264 168.5 316t188.5 52q140 0 215 -97t75 -246v-282q0 -295 -65 -442t-106 -192t-59 -62t-47 -34.5t-35.5 -20t-22.5 -9.5v24q213 106 218.5 360t5.5 315v343q0 149 -41.5 232t-154.5 83q-79 0 -145.5 -45t-130.5 -156t-64 -283v-404h-111z" />
    <glyph glyph-name="Omacron" unicode="&#x14c;" horiz-adv-x="1639" 
d="M85 718q0 177 98.5 343.5t267.5 261t345 94.5t311 -55.5t233.5 -151.5t156 -230t57.5 -286t-57.5 -287.5t-156 -229.5t-234 -149t-286 -55t-286.5 55t-234.5 149t-156.5 229t-58 312zM224 670q0 -169 78 -327.5t214.5 -249.5t303.5 -91t304 91t214.5 250t77.5 327
t-46 297.5t-125 221.5t-189.5 146t-235.5 54t-235.5 -54t-189.5 -146t-125 -221t-46 -298zM571 1569v54h497v-54h-497z" />
    <glyph glyph-name="omacron" unicode="&#x14d;" horiz-adv-x="1015" 
d="M80 447.5q0 196.5 123 332.5t305 136t305 -136t123 -332.5t-122.5 -329t-305.5 -132.5t-305.5 132.5t-122.5 329zM197 447.5q0 -193.5 82.5 -313.5t227.5 -120t229 120.5t84 313t-84 316.5t-228 124t-227.5 -123.5t-83.5 -317zM260 1098v54h497v-54h-497z" />
    <glyph glyph-name="Obreve" unicode="&#x14e;" horiz-adv-x="1639" 
d="M85 718q0 177 98.5 343.5t267.5 261t345 94.5t311 -55.5t233.5 -151.5t156 -230t57.5 -286t-57.5 -287.5t-156 -229.5t-234 -149t-286 -55t-286.5 55t-234.5 149t-156.5 229t-58 312zM224 670q0 -169 78 -327.5t214.5 -249.5t303.5 -91t304 91t214.5 250t77.5 327
t-46 297.5t-125 221.5t-189.5 146t-235.5 54t-235.5 -54t-189.5 -146t-125 -221t-46 -298zM819 1504q-97 0 -162.5 68t-65.5 177l22 -12q10 -58 65.5 -100t140.5 -42t140.5 42t65.5 100l23 12q0 -109 -66 -177t-163 -68z" />
    <glyph glyph-name="obreve" unicode="&#x14f;" horiz-adv-x="1015" 
d="M80 447.5q0 196.5 123 332.5t305 136t305 -136t123 -332.5t-122.5 -329t-305.5 -132.5t-305.5 132.5t-122.5 329zM197 447.5q0 -193.5 82.5 -313.5t227.5 -120t229 120.5t84 313t-84 316.5t-228 124t-227.5 -123.5t-83.5 -317zM508 1033q-97 0 -162.5 68t-65.5 177
l22 -12q10 -58 65.5 -100t140.5 -42t140.5 42t65.5 100l22 12q0 -109 -65.5 -177t-162.5 -68z" />
    <glyph glyph-name="Ohungarumlaut" unicode="&#x150;" horiz-adv-x="1639" 
d="M85 718q0 177 98.5 343.5t267.5 261t345 94.5t311 -55.5t233.5 -151.5t156 -230t57.5 -286t-57.5 -287.5t-156 -229.5t-234 -149t-286 -55t-286.5 55t-234.5 149t-156.5 229t-58 312zM224 670q0 -169 78 -327.5t214.5 -249.5t303.5 -91t304 91t214.5 250t77.5 327
t-46 297.5t-125 221.5t-189.5 146t-235.5 54t-235.5 -54t-189.5 -146t-125 -221t-46 -298zM1132 1754q0 -25 -34 -50l-265 -201l-31 5l225 266q27 32 52 32t39 -13.5t14 -38.5zM885 1754q0 -25 -34 -50l-265 -201l-31 5l225 266q26 32 52 32t39.5 -13.5t13.5 -38.5z" />
    <glyph glyph-name="ohungarumlaut" unicode="&#x151;" horiz-adv-x="1015" 
d="M80 447.5q0 196.5 123 332.5t305 136t305 -136t123 -332.5t-122.5 -329t-305.5 -132.5t-305.5 132.5t-122.5 329zM197 447.5q0 -193.5 82.5 -313.5t227.5 -120t229 120.5t84 313t-84 316.5t-228 124t-227.5 -123.5t-83.5 -317zM814 1283q0 -25 -34 -50l-265 -201l-31 5
l226 266q27 31 52 31t38.5 -13t13.5 -38zM567 1283q0 -25 -33 -50l-266 -201l-30 5l225 266q27 31 52 31t38.5 -13t13.5 -38z" />
    <glyph glyph-name="Racute" unicode="&#x154;" horiz-adv-x="1105" 
d="M130 0v1391h366q201 0 342 -94t141 -283q0 -125 -98.5 -250.5t-384.5 -125.5h-230l814 -638h-45l-782 612v-612h-123zM253 667h224q182 0 275 88.5t93 258.5t-93 259t-275 89h-224v-695zM706 1754q0 -25 -34 -50l-265 -201l-31 5l225 266q27 32 52 32t39 -13.5t14 -38.5z
" />
    <glyph glyph-name="racute" unicode="&#x155;" horiz-adv-x="665" 
d="M126 0v899h111v-345q26 129 106 232q101 131 256 132v-95q-166 0 -264 -121.5t-98 -309.5v-392h-111zM531 1283q0 -25 -33 -50l-266 -201l-30 5l225 266q27 31 52 31t38.5 -13t13.5 -38z" />
    <glyph glyph-name="uni0156" unicode="&#x156;" horiz-adv-x="1105" 
d="M130 0v1391h366q201 0 342 -94t141 -283q0 -125 -98.5 -250.5t-384.5 -125.5h-230l814 -638h-45l-782 612v-612h-123zM253 667h224q182 0 275 88.5t93 258.5t-93 259t-275 89h-224v-695zM586.5 -337.5q15.5 36.5 15.5 60.5t-15 49q-19 -31 -55 -31t-56.5 20.5t-20.5 52.5
t23.5 52.5t65.5 20.5t72 -37t30 -81q0 -79 -42 -119t-78 -51v12q45 15 60.5 51.5z" />
    <glyph glyph-name="uni0157" unicode="&#x157;" horiz-adv-x="665" 
d="M126 0v899h111v-345q26 129 106 232q101 131 256 132v-95q-166 0 -264 -121.5t-98 -309.5v-392h-111zM221.5 -338q16.5 37 16.5 60t-16 50q-18 -31 -54 -31t-57 20.5t-21 52.5t23 52.5t65 20.5t73 -37t31 -81q0 -78 -42 -118t-78 -52v12q43 14 59.5 51z" />
    <glyph glyph-name="Rcaron" unicode="&#x158;" horiz-adv-x="1105" 
d="M130 0v1391h366q201 0 342 -94t141 -283q0 -125 -98.5 -250.5t-384.5 -125.5h-230l814 -638h-45l-782 612v-612h-123zM253 667h224q182 0 275 88.5t93 258.5t-93 259t-275 89h-224v-695zM490 1503l-229 287l25 5l204 -151l205 151l25 -5z" />
    <glyph glyph-name="rcaron" unicode="&#x159;" horiz-adv-x="665" 
d="M126 0v899h111v-345q26 129 106 232q101 131 256 132v-95q-166 0 -264 -121.5t-98 -309.5v-392h-111zM362 1032l-229 287l25 5l204 -152l205 152l25 -5z" />
    <glyph glyph-name="Sacute" unicode="&#x15a;" horiz-adv-x="1005" 
d="M720.5 90q101.5 78 101.5 203t-113 222.5t-209 158.5t-117 75.5t-56 39.5t-55 43t-83.5 79t-63.5 191q0 73 35 134t121.5 117.5t226.5 56.5t244 -43l32 -14v-63q-5 4 -21 17t-88 43.5t-153 30.5t-150 -26.5t-116.5 -81.5t-47.5 -135t69 -145.5t131 -103.5t126 -77
t156 -99t163.5 -153t71.5 -212q0 -218 -160.5 -291t-307.5 -73q-148 0 -240.5 49.5t-108.5 62.5l-17 13v68q16 -19 116 -92t278 -73q134 0 235.5 78zM697 1754q0 -25 -33 -50l-266 -201l-30 5l225 266q27 32 52 32t38.5 -13.5t13.5 -38.5z" />
    <glyph glyph-name="sacute" unicode="&#x15b;" horiz-adv-x="867" 
d="M698 776q-112 112 -302 112q-70 0 -143 -41t-73 -109t53 -106t205 -98t213 -98q127 -78 133 -191v-13q0 -108 -90.5 -177t-293.5 -69t-313 100v76q76 -91 175.5 -119.5t158.5 -28.5q129 0 196.5 53.5t67.5 125.5q0 93 -96 144.5t-223 102.5q-126 51 -195.5 107t-69.5 156
t92.5 156.5t244.5 56.5t260 -72v-68zM642 1283q0 -25 -34 -50l-265 -201l-31 5l226 266q27 31 52 31t38.5 -13t13.5 -38z" />
    <glyph glyph-name="Scircumflex" unicode="&#x15c;" horiz-adv-x="1005" 
d="M720.5 90q101.5 78 101.5 203t-113 222.5t-209 158.5t-117 75.5t-56 39.5t-55 43t-83.5 79t-63.5 191q0 73 35 134t121.5 117.5t226.5 56.5t244 -43l32 -14v-63q-5 4 -21 17t-88 43.5t-153 30.5t-150 -26.5t-116.5 -81.5t-47.5 -135t69 -145.5t131 -103.5t126 -77
t156 -99t163.5 -153t71.5 -212q0 -218 -160.5 -291t-307.5 -73q-148 0 -240.5 49.5t-108.5 62.5l-17 13v68q16 -19 116 -92t278 -73q134 0 235.5 78zM281 1503l-25 5l229 287l230 -287l-25 -5l-205 152z" />
    <glyph glyph-name="scircumflex" unicode="&#x15d;" horiz-adv-x="867" 
d="M698 776q-112 112 -302 112q-70 0 -143 -41t-73 -109t53 -106t205 -98t213 -98q127 -78 133 -191v-13q0 -108 -90.5 -177t-293.5 -69t-313 100v76q76 -91 175.5 -119.5t158.5 -28.5q129 0 196.5 53.5t67.5 125.5q0 93 -96 144.5t-223 102.5q-126 51 -195.5 107t-69.5 156
t92.5 156.5t244.5 56.5t260 -72v-68zM216 1032l-25 5l230 287l229 -287l-24 -5l-205 152z" />
    <glyph glyph-name="Scedilla" unicode="&#x15e;" horiz-adv-x="1005" 
d="M720.5 90q101.5 78 101.5 203t-113 222.5t-209 158.5t-117 75.5t-56 39.5t-55 43t-83.5 79t-63.5 191q0 73 35 134t121.5 117.5t226.5 56.5t244 -43l32 -14v-63q-5 4 -21 17t-88 43.5t-153 30.5t-150 -26.5t-116.5 -81.5t-47.5 -135t69 -145.5t131 -103.5t126 -77
t227.5 -145.5t163.5 -300.5q0 -186 -115.5 -273.5t-261.5 -103.5l-80 -86q59 0 114.5 -41.5t55.5 -110.5t-52 -109.5t-131 -40.5t-121 19l-5 25q47 -17 105 -17t92.5 32.5t34.5 90.5t-53 93.5t-127 35.5l124 105q-11 -1 -55 -1q-111 0 -208.5 41.5t-133.5 70.5l-17 13v68
q16 -19 116 -92t278 -73q134 0 235.5 78z" />
    <glyph glyph-name="scedilla" unicode="&#x15f;" horiz-adv-x="867" 
d="M698 776q-112 112 -302 112q-70 0 -143 -41t-73 -109t53 -106t205 -98t213 -98q127 -78 133 -191v-13q0 -99 -78.5 -167t-236.5 -77l-80 -85q59 0 114.5 -41.5t55.5 -110.5t-52 -109.5t-131 -40.5t-121 19l-5 25q48 -17 106 -17t92 32.5t34 90.5t-53 93.5t-127 35.5
l126 106q-174 0 -247.5 40.5t-93.5 59.5v75q75 -90 175 -118.5t159 -28.5q129 0 196.5 53.5t67.5 125.5q0 93 -96 144.5t-223 102.5q-126 51 -195.5 107t-69.5 156t92.5 156.5t244.5 56.5t260 -72v-68z" />
    <glyph glyph-name="Scaron" unicode="&#x160;" horiz-adv-x="1005" 
d="M720.5 90q101.5 78 101.5 203t-113 222.5t-209 158.5t-117 75.5t-56 39.5t-55 43t-83.5 79t-63.5 191q0 73 35 134t121.5 117.5t226.5 56.5t244 -43l32 -14v-63q-5 4 -21 17t-88 43.5t-153 30.5t-150 -26.5t-116.5 -81.5t-47.5 -135t69 -145.5t131 -103.5t126 -77
t156 -99t163.5 -153t71.5 -212q0 -218 -160.5 -291t-307.5 -73q-148 0 -240.5 49.5t-108.5 62.5l-17 13v68q16 -19 116 -92t278 -73q134 0 235.5 78zM485 1503l-229 287l25 5l204 -151l205 151l25 -5z" />
    <glyph glyph-name="scaron" unicode="&#x161;" horiz-adv-x="867" 
d="M698 776q-112 112 -302 112q-70 0 -143 -41t-73 -109t53 -106t205 -98t213 -98q127 -78 133 -191v-13q0 -108 -90.5 -177t-293.5 -69t-313 100v76q76 -91 175.5 -119.5t158.5 -28.5q129 0 196.5 53.5t67.5 125.5q0 93 -96 144.5t-223 102.5q-126 51 -195.5 107t-69.5 156
t92.5 156.5t244.5 56.5t260 -72v-68zM421 1032l-230 287l25 5l205 -152l205 152l24 -5z" />
    <glyph glyph-name="uni0162" unicode="&#x162;" horiz-adv-x="1176" 
d="M527 0v1362h-442v29h1007v-29h-443v-1362h-122zM616.5 -337.5q16.5 37.5 16.5 63.5t-16 46q-18 -31 -54 -31t-57 20.5t-21 52.5t23.5 52.5t65.5 20.5t72.5 -37t30.5 -81q0 -78 -42 -118t-78 -52v12q43 14 59.5 51.5z" />
    <glyph glyph-name="uni0163" unicode="&#x163;" horiz-adv-x="651" 
d="M474 20q36 0 72 12v-29q-35 -11 -79 -11t-82.5 10t-65 27t-54 59.5t-36.5 110t-9 163.5v508h-153v29h153v249l111 79v-328h260v-29h-260v-562q0 -144 13 -178t28 -59.5t40.5 -38t61.5 -12.5zM395.5 -338q16.5 37 16.5 60t-16 50q-18 -31 -54 -31t-57 20.5t-21 52.5
t23 52.5t65 20.5t73 -37t31 -81q0 -78 -42 -118t-78 -52v12q43 14 59.5 51z" />
    <glyph glyph-name="Tcaron" unicode="&#x164;" horiz-adv-x="1176" 
d="M527 0v1362h-442v29h1007v-29h-443v-1362h-122zM588 1503l-230 287l25 5l205 -151l205 151l24 -5z" />
    <glyph glyph-name="tcaron" unicode="&#x165;" horiz-adv-x="651" 
d="M550 1428q23 0 36.5 -13t13.5 -31t-9 -44l-117 -306h-31l55 336q9 58 52 58zM474 20q36 0 72 12v-29q-35 -11 -79 -11t-82.5 10t-65 27t-54 59.5t-36.5 110t-9 163.5v508h-153v29h153v249l111 79v-328h260v-29h-260v-562q0 -144 13 -178t28 -59.5t40.5 -38t61.5 -12.5z
" />
    <glyph glyph-name="Tbar" unicode="&#x166;" horiz-adv-x="1176" 
d="M527 0v796h-340v28h340v538h-442v29h1007v-29h-443v-538h340v-28h-340v-796h-122z" />
    <glyph glyph-name="tbar" unicode="&#x167;" horiz-adv-x="651" 
d="M474 20q36 0 72 12v-29q-35 -11 -79 -11t-82.5 10t-65 27t-54 59.5t-36.5 110t-9 163.5v192h-183v29h183v287h-153v29h153v249l111 79v-328h260v-29h-260v-287h260v-29h-260v-246q0 -144 13 -178t28 -59.5t40.5 -38t61.5 -12.5z" />
    <glyph glyph-name="Utilde" unicode="&#x168;" horiz-adv-x="1207" 
d="M1098 1391v-827q0 -158 -28.5 -267.5t-107.5 -194.5q-118 -126 -340 -126t-352 124q-93 89 -126.5 214t-33.5 340v737h122v-777q0 -193 21 -298.5t76 -175.5q106 -135 302 -135t308 116q76 78 102.5 188.5t26.5 257.5v824h30zM360 1530q0 75 42 120.5t112 45.5
t161.5 -34.5t133.5 -34.5t66 23.5t28 63.5h23q0 -75 -42 -122.5t-112 -47.5t-162.5 34.5t-133.5 34.5q-84 0 -93 -83h-23z" />
    <glyph glyph-name="utilde" unicode="&#x169;" horiz-adv-x="1003" 
d="M120 326v573h110v-573q0 -170 49 -241t138 -71q171 0 260.5 155t89.5 326v404h111v-899h-111v351q-54 -266 -171.5 -315.5t-184.5 -49.5q-141 0 -216 96.5t-75 243.5zM225 1059q0 75 41.5 120.5t111.5 45.5t162 -34.5t134 -34.5t66 23.5t28 63.5h23q0 -75 -42.5 -122.5
t-112.5 -47.5t-162 34.5t-133 34.5q-84 0 -93 -83h-23z" />
    <glyph glyph-name="Umacron" unicode="&#x16a;" horiz-adv-x="1207" 
d="M1098 1391v-827q0 -158 -28.5 -267.5t-107.5 -194.5q-118 -126 -340 -126t-352 124q-93 89 -126.5 214t-33.5 340v737h122v-777q0 -193 21 -298.5t76 -175.5q106 -135 302 -135t308 116q76 78 102.5 188.5t26.5 257.5v824h30zM395 1569v54h497v-54h-497z" />
    <glyph glyph-name="umacron" unicode="&#x16b;" horiz-adv-x="1003" 
d="M120 326v573h110v-573q0 -170 49 -241t138 -71q171 0 260.5 155t89.5 326v404h111v-899h-111v351q-54 -266 -171.5 -315.5t-184.5 -49.5q-141 0 -216 96.5t-75 243.5zM251 1098v54h497v-54h-497z" />
    <glyph glyph-name="Ubreve" unicode="&#x16c;" horiz-adv-x="1207" 
d="M1098 1391v-827q0 -158 -28.5 -267.5t-107.5 -194.5q-118 -126 -340 -126t-352 124q-93 89 -126.5 214t-33.5 340v737h122v-777q0 -193 21 -298.5t76 -175.5q106 -135 302 -135t308 116q76 78 102.5 188.5t26.5 257.5v824h30zM643 1504q-97 0 -162.5 68t-65.5 177l22 -12
q10 -58 65.5 -100t140.5 -42t140.5 42t65.5 100l22 12q0 -109 -65.5 -177t-162.5 -68z" />
    <glyph glyph-name="ubreve" unicode="&#x16d;" horiz-adv-x="1003" 
d="M120 326v573h110v-573q0 -170 49 -241t138 -71q171 0 260.5 155t89.5 326v404h111v-899h-111v351q-54 -266 -171.5 -315.5t-184.5 -49.5q-141 0 -216 96.5t-75 243.5zM498.5 1033q-97.5 0 -163 68t-65.5 177l23 -12q10 -58 65.5 -100t140.5 -42t140.5 42t65.5 100l22 12
q0 -109 -65.5 -177t-163 -68z" />
    <glyph glyph-name="Uring" unicode="&#x16e;" horiz-adv-x="1207" 
d="M1098 1391v-827q0 -158 -28.5 -267.5t-107.5 -194.5q-118 -126 -340 -126t-352 124q-93 89 -126.5 214t-33.5 340v737h122v-777q0 -193 21 -298.5t76 -175.5q106 -135 302 -135t308 116q76 78 102.5 188.5t26.5 257.5v824h30zM643 1509q-72 0 -120 35.5t-48 94.5t48 95
t120 36t120.5 -35t48.5 -95t-48.5 -95.5t-120.5 -35.5zM643 1532q38 0 63 27t25 79.5t-25 80t-63 27.5t-62.5 -27.5t-24.5 -80t24.5 -79.5t62.5 -27z" />
    <glyph glyph-name="uring" unicode="&#x16f;" horiz-adv-x="1003" 
d="M120 326v573h110v-573q0 -170 49 -241t138 -71q171 0 260.5 155t89.5 326v404h111v-899h-111v351q-54 -266 -171.5 -315.5t-184.5 -49.5q-141 0 -216 96.5t-75 243.5zM498.5 1038q-71.5 0 -119.5 35.5t-48 94.5t48 95t119.5 36t120.5 -35.5t49 -95.5t-49 -95t-120.5 -35z
M499 1061q38 0 63 27t25 79.5t-25 80t-63 27.5t-62.5 -27.5t-24.5 -80t24.5 -79.5t62.5 -27z" />
    <glyph glyph-name="Uhungarumlaut" unicode="&#x170;" horiz-adv-x="1207" 
d="M1098 1391v-827q0 -158 -28.5 -267.5t-107.5 -194.5q-118 -126 -340 -126t-352 124q-93 89 -126.5 214t-33.5 340v737h122v-777q0 -193 21 -298.5t76 -175.5q106 -135 302 -135t308 116q76 78 102.5 188.5t26.5 257.5v824h30zM959 1754q0 -25 -33 -50l-266 -201l-30 5
l225 266q27 32 52 32t38.5 -13.5t13.5 -38.5zM713 1754q0 -25 -34 -50l-265 -201l-31 5l225 266q26 32 52 32t39.5 -13.5t13.5 -38.5z" />
    <glyph glyph-name="uhungarumlaut" unicode="&#x171;" horiz-adv-x="1003" 
d="M120 326v573h110v-573q0 -170 49 -241t138 -71q171 0 260.5 155t89.5 326v404h111v-899h-111v351q-54 -266 -171.5 -315.5t-184.5 -49.5q-141 0 -216 96.5t-75 243.5zM804 1283q0 -25 -34 -50l-265 -201l-31 5l225 266q27 31 53 31t39 -13t13 -38zM557 1283
q0 -25 -34 -50l-265 -201l-31 5l226 266q27 31 52 31t38.5 -13t13.5 -38z" />
    <glyph glyph-name="Uogonek" unicode="&#x172;" horiz-adv-x="1207" 
d="M639 -371q-131 0 -131 118q0 59 62.5 122.5t155.5 114.5q-42 -7 -96 -8q-230 0 -360 124q-93 89 -126.5 214t-33.5 340v737h122v-777q0 -193 21 -298.5t76 -175.5q106 -135 302 -135t308 116q76 78 102.5 188.5t26.5 257.5v824h30v-827q0 -316 -123 -448
q-65 -70 -157 -108t-162.5 -104.5t-70.5 -145.5q0 -92 88 -92q42 0 90 40v-29q-58 -48 -124 -48z" />
    <glyph glyph-name="uogonek" unicode="&#x173;" horiz-adv-x="1003" 
d="M646 -371q-131 1 -131 123q0 64 73.5 132t178.5 116v351q-54 -266 -171.5 -315.5t-184.5 -49.5q-141 0 -216 96.5t-75 243.5v573h110v-573q0 -170 49 -241t138 -71q171 0 260.5 155t89.5 326v404h111v-899h-68q-95 -37 -156.5 -102t-61.5 -140q0 -92 89 -92q44 0 89 40
v-29q-58 -48 -124 -48z" />
    <glyph glyph-name="Wcircumflex" unicode="&#x174;" horiz-adv-x="2039" 
d="M592 -24l-521 1415h128l440 -1191l436 1214l449 -1212l413 1189h32l-491 -1415l-453 1218zM846 1503l-25 5l230 287l229 -287l-25 -5l-204 152z" />
    <glyph glyph-name="wcircumflex" unicode="&#x175;" horiz-adv-x="1526" 
d="M423 -22l-354 921h118l284 -739l344 761l329 -756l282 734h32l-354 -921l-334 771zM589 1032l-25 5l230 287l229 -287l-25 -5l-204 152z" />
    <glyph glyph-name="Ycircumflex" unicode="&#x176;" horiz-adv-x="1191" 
d="M531 0v598l-469 793h135l451 -763l448 763h33l-475 -811v-580h-123zM419 1503l-25 5l230 287l229 -287l-25 -5l-204 152z" />
    <glyph glyph-name="ycircumflex" unicode="&#x177;" horiz-adv-x="933" 
d="M458 14l-388 885h119l329 -747l329 747h32l-601 -1368h-33zM301 1032l-25 5l230 287l229 -287l-24 -5l-205 152z" />
    <glyph glyph-name="Ydieresis" unicode="&#x178;" horiz-adv-x="1191" 
d="M531 0v598l-469 793h135l451 -763l448 763h33l-475 -811v-580h-123zM778 1554q-33 0 -56 23.5t-23 56t23 55.5t56 23t56 -23t23 -55.5t-23 -56t-56 -23.5zM469 1554q-33 0 -56 23.5t-23 56t23 55.5t56 23t56 -23t23 -55.5t-23 -56t-56 -23.5z" />
    <glyph glyph-name="Zacute" unicode="&#x179;" horiz-adv-x="1059" 
d="M150 1362v29h817l-756 -1362h776v-29h-920l756 1362h-673zM734 1754q0 -25 -34 -50l-265 -201l-31 5l226 266q27 32 52 32t38.5 -13.5t13.5 -38.5z" />
    <glyph glyph-name="zacute" unicode="&#x17a;" horiz-adv-x="825" 
d="M113 870v29h629l-532 -870h551v-29h-692l532 870h-488zM596 1283q0 -25 -34 -50l-265 -201l-31 5l226 266q27 31 52 31t38.5 -13t13.5 -38z" />
    <glyph glyph-name="Zdotaccent" unicode="&#x17b;" horiz-adv-x="1059" 
d="M150 1362v29h817l-756 -1362h776v-29h-920l756 1362h-673zM532.5 1574q-32.5 0 -55.5 23t-23 56t23 56t55.5 23t55.5 -23t23 -56t-23 -56t-55.5 -23z" />
    <glyph glyph-name="zdotaccent" unicode="&#x17c;" horiz-adv-x="825" 
d="M113 870v29h629l-532 -870h551v-29h-692l532 870h-488zM419 1103q-33 0 -56 23t-23 55.5t23 56t56 23.5t56 -23.5t23 -56t-23 -55.5t-56 -23z" />
    <glyph glyph-name="Zcaron" unicode="&#x17d;" horiz-adv-x="1059" 
d="M150 1362v29h817l-756 -1362h776v-29h-920l756 1362h-673zM532 1503l-229 287l25 5l204 -151l205 151l25 -5z" />
    <glyph glyph-name="zcaron" unicode="&#x17e;" horiz-adv-x="825" 
d="M113 870v29h629l-532 -870h551v-29h-692l532 870h-488zM419 1032l-230 287l25 5l205 -152l205 152l24 -5z" />
    <glyph glyph-name="florin" unicode="&#x192;" horiz-adv-x="1075" 
d="M106 -459q89 0 150.5 99.5t85 213t35.5 191.5t22.5 178t17.5 181t15.5 183t17.5 172h-325v28h328q38 312 122 455.5t262 143.5q51 0 91 -14t54 -29l14 -14v-62q-2 8 -34.5 50t-118.5 42q-85 0 -132 -52.5t-78 -173t-55 -346.5h319v-28h-323q-11 -85 -24 -223t-26 -232.5
t-26 -167.5t-33.5 -159t-59 -193t-117 -189t-191.5 -82q-46 0 -84 14t-52 29l-15 14v62q46 -91 160 -91z" />
    <glyph glyph-name="Aringacute" unicode="&#x1fa;" horiz-adv-x="1257" 
d="M730 1929q50 0 50 -44q0 -30 -32 -51l-184 -125l-29 5l144 181q27 34 51 34zM461 1535q0 58 48 94t119.5 36t120.5 -36t49 -94t-46 -93.5t-115 -37.5l552 -1404h-131l-170 434h-618l-170 -434h-31l551 1404q-69 2 -114 37.5t-45 93.5zM629 1426q38 0 63 27.5t25 79.5
t-25 79.5t-63 27.5t-62.5 -27.5t-24.5 -79.5t24.5 -79.5t62.5 -27.5zM282 463h595l-297 758z" />
    <glyph glyph-name="aringacute" unicode="&#x1fb;" horiz-adv-x="987" 
d="M645 1459q0 -25 -33 -46l-183 -125l-30 5l145 182q26 33 50 33t37.5 -12t13.5 -37zM473 983q-72 0 -120 35.5t-48 94.5t48 95t120 36t120.5 -36t48.5 -95t-48.5 -94.5t-120.5 -35.5zM473 1006q38 0 63 27t25 79t-25 80t-63 28t-62.5 -28t-24.5 -80t24.5 -79t62.5 -27z
M871 29q31 0 55 16v-21q-20 -24 -72 -24q-131 0 -171 184q-26 -68 -98 -133t-207 -65t-215 64t-80 177t74 172.5t153.5 90t175.5 66.5t137 67t41 101t-48 117t-143 47q-133 0 -205 -63.5t-81 -81.5v76q60 60 150.5 78.5t158.5 18.5t127.5 -23t108 -73t48.5 -190v-372
q0 -229 91 -229zM670 325v253q0 57 -1 77q-18 -43 -61.5 -70t-164.5 -79t-182.5 -113.5t-61.5 -163t58.5 -158.5t150.5 -57t167 61.5t101 148.5q-6 47 -6 101z" />
    <glyph glyph-name="AEacute" unicode="&#x1fc;" horiz-adv-x="1640" 
d="M1537 1391v-29h-463v-638h364v-29h-364v-666h463v-29h-586v548h-507l-352 -548h-36l895 1391h586zM951 577v757l-488 -757h488zM1352 1754q0 -25 -34 -50l-265 -201l-31 5l225 266q27 32 53 32t39 -13.5t13 -38.5z" />
    <glyph glyph-name="aeacute" unicode="&#x1fd;" horiz-adv-x="1505" 
d="M1036 916q175 0 277.5 -122.5t104.5 -313.5h-648v-30q0 -170 50 -265.5t111 -133t129 -37.5t134 23.5t108.5 74t52.5 73.5v-76q-8 -14 -73 -68.5t-210 -54.5q-284 0 -371 264q-25 -126 -113 -195t-216 -69t-208.5 64t-80.5 176t77 174.5t153.5 91t172.5 64.5t137 67
t41 101t-48 117t-143 47q-133 0 -205 -63.5t-81 -81.5v76q60 60 150.5 78.5t145.5 18.5q212 0 273 -146q105 146 280 146zM1046 888q-124 0 -194.5 -101.5t-80.5 -277.5h528q-2 176 -65.5 277.5t-187.5 101.5zM670 478v100q0 57 -1 77q-18 -43 -61.5 -70t-164.5 -79
t-182.5 -114t-61.5 -163t58.5 -158t156.5 -57t179.5 76.5t94.5 205.5q-18 81 -18 182zM970 1283q0 -25 -34 -50l-265 -201l-31 5l225 266q27 31 53 31t39 -13t13 -38z" />
    <glyph glyph-name="Oslashacute" unicode="&#x1fe;" horiz-adv-x="1639" 
d="M1018 1754q0 -25 -34 -50l-265 -201l-31 5l225 266q27 32 53 32t39 -13.5t13 -38.5zM508 -151h-32l664 1695h31zM1554 694q0 -152 -57.5 -287.5t-156 -229.5t-234 -149t-286 -55t-286.5 55t-234.5 149t-156.5 229.5t-58 311.5t98.5 343t267.5 261.5t345 94.5t311 -55.5
t233.5 -151.5t156 -230t57.5 -286zM820 2q167 0 304 91t214.5 250t77.5 327t-46 297.5t-125 221.5t-189.5 146t-235.5 54t-235.5 -54t-189.5 -146t-125 -220.5t-46 -298.5t78 -328t214.5 -249t303.5 -91z" />
    <glyph glyph-name="oslashacute" unicode="&#x1ff;" horiz-adv-x="1015" 
d="M667 1283q0 -25 -34 -50l-265 -201l-31 5l225 266q26 31 52 31t39.5 -13t13.5 -38zM190 -130h-33l668 1160h34zM80 447.5q0 196.5 123 332.5t305 136t305 -136t123 -332.5t-122.5 -329t-305.5 -132.5t-305.5 132.5t-122.5 329zM197 447.5q0 -193.5 82.5 -313.5
t227.5 -120t229 120.5t84 313t-84 316.5t-228 124t-227.5 -123.5t-83.5 -317z" />
    <glyph glyph-name="uni0218" unicode="&#x218;" horiz-adv-x="1005" 
d="M720.5 90q101.5 78 101.5 203t-113 222.5t-209 158.5t-117 75.5t-56 39.5t-55 43t-83.5 79t-63.5 191q0 73 35 134t121.5 117.5t226.5 56.5t244 -43l32 -14v-63q-5 4 -21 17t-88 43.5t-153 30.5t-150 -26.5t-116.5 -81.5t-47.5 -135t69 -145.5t131 -103.5t126 -77
t156 -99t163.5 -153t71.5 -212q0 -218 -160.5 -291t-307.5 -73q-148 0 -240.5 49.5t-108.5 62.5l-17 13v68q16 -19 116 -92t278 -73q134 0 235.5 78zM521.5 -337.5q16.5 37.5 16.5 63.5t-16 46q-18 -31 -54 -31t-57 20.5t-21 52.5t23 52.5t65 20.5t73 -37t31 -81
q0 -78 -41 -117.5t-79 -52.5v12q43 14 59.5 51.5z" />
    <glyph glyph-name="uni0219" unicode="&#x219;" horiz-adv-x="867" 
d="M698 776q-112 112 -302 112q-70 0 -143 -41t-73 -109t53 -106t205 -98t213 -98q127 -78 133 -191v-13q0 -108 -90.5 -177t-293.5 -69t-313 100v76q76 -91 175.5 -119.5t158.5 -28.5q129 0 196.5 53.5t67.5 125.5q0 93 -96 144.5t-223 102.5q-126 51 -195.5 107t-69.5 156
t92.5 156.5t244.5 56.5t260 -72v-68zM455.5 -337.5q15.5 36.5 15.5 60.5t-15 49q-18 -31 -54 -31t-57 20.5t-21 52.5t23 52.5t65 20.5t72.5 -37t30.5 -81q0 -78 -41.5 -118.5t-78.5 -51.5v12q45 15 60.5 51.5z" />
    <glyph glyph-name="uni021A" unicode="&#x21a;" horiz-adv-x="1176" 
d="M527 0v1362h-442v29h1007v-29h-443v-1362h-122zM616.5 -337.5q16.5 37.5 16.5 63.5t-16 46q-18 -31 -54 -31t-57 20.5t-21 52.5t23.5 52.5t65.5 20.5t72.5 -37t30.5 -81q0 -78 -42 -118t-78 -52v12q43 14 59.5 51.5z" />
    <glyph glyph-name="uni021B" unicode="&#x21b;" horiz-adv-x="651" 
d="M474 20q36 0 72 12v-29q-35 -11 -79 -11t-82.5 10t-65 27t-54 59.5t-36.5 110t-9 163.5v508h-153v29h153v249l111 79v-328h260v-29h-260v-562q0 -144 13 -178t28 -59.5t40.5 -38t61.5 -12.5zM395.5 -338q16.5 37 16.5 60t-16 50q-18 -31 -54 -31t-57 20.5t-21 52.5
t23 52.5t65 20.5t73 -37t31 -81q0 -78 -42 -118t-78 -52v12q43 14 59.5 51z" />
    <glyph glyph-name="uni0237" unicode="&#x237;" horiz-adv-x="387" 
d="M138 236v663h111v-588q0 -280 -64 -448.5t-139.5 -240.5t-131.5 -91v23q95 74 159.5 203.5t64.5 478.5z" />
    <glyph glyph-name="circumflex" unicode="&#x2c6;" horiz-adv-x="669" 
d="M130 1032l-25 5l230 287l229 -287l-24 -5l-205 152z" />
    <glyph glyph-name="caron" unicode="&#x2c7;" horiz-adv-x="669" 
d="M335 1032l-230 287l25 5l205 -152l205 152l24 -5z" />
    <glyph glyph-name="uni02C9" unicode="&#x2c9;" horiz-adv-x="707" 
d="M105 1098v54h497v-54h-497z" />
    <glyph glyph-name="breve" unicode="&#x2d8;" horiz-adv-x="667" 
d="M334 1033q-97 0 -163 68t-66 177l23 -12q10 -58 65.5 -100t140.5 -42t140.5 42t65.5 100l22 12q0 -109 -65.5 -177t-162.5 -68z" />
    <glyph glyph-name="dotaccent" unicode="&#x2d9;" horiz-adv-x="368" 
d="M184.5 1103q-32.5 0 -56 23t-23.5 55.5t23.5 56t56 23.5t55.5 -23.5t23 -56t-23 -55.5t-55.5 -23z" />
    <glyph glyph-name="ring" unicode="&#x2da;" horiz-adv-x="547" 
d="M273.5 1038q-71.5 0 -120 35.5t-48.5 94.5t48.5 95t120 36t120 -35.5t48.5 -95.5t-48.5 -95t-120 -35zM273.5 1061q37.5 0 62.5 27t25 79.5t-25 80t-62.5 27.5t-62.5 -27.5t-25 -80t25 -79.5t62.5 -27z" />
    <glyph glyph-name="ogonek" unicode="&#x2db;" horiz-adv-x="497" 
d="M174 -242q0 -92 89 -92q44 0 89 40v-29q-58 -48 -124 -48q-131 1 -131 123q0 64 73.5 132t178.5 116h43q-95 -37 -156.5 -102t-61.5 -140z" />
    <glyph glyph-name="tilde" unicode="&#x2dc;" horiz-adv-x="776" 
d="M105 1059q0 75 41.5 120.5t111.5 45.5t162 -34.5t134 -34.5t66 23.5t28 63.5h23q0 -75 -42.5 -122.5t-112.5 -47.5t-162 34.5t-133 34.5q-84 0 -93 -83h-23z" />
    <glyph glyph-name="hungarumlaut" unicode="&#x2dd;" horiz-adv-x="791" 
d="M679 1283q0 -25 -34 -50l-265 -201l-31 5l225 266q26 31 52 31t39.5 -13t13.5 -38zM432 1283q0 -25 -34 -50l-265 -201l-31 5l226 266q27 31 52 31t38.5 -13t13.5 -38z" />
    <glyph glyph-name="anoteleia" unicode="&#x387;" horiz-adv-x="390" 
d="M110 450q0 36 24.5 59t60 23t61 -24t25.5 -59.5t-25.5 -60t-60.5 -24.5t-60 25t-25 61z" />
    <glyph glyph-name="uni0394" unicode="&#x394;" horiz-adv-x="1258" 
d="M69 0l560 1414l561 -1414h-1121zM113 29h935l-468 1180z" />
    <glyph glyph-name="uni0394" unicode="&#x2206;" horiz-adv-x="1258" 
d="M69 0l560 1414l561 -1414h-1121zM113 29h935l-468 1180z" />
    <glyph glyph-name="uni03A9" unicode="&#x3a9;" horiz-adv-x="1613" 
d="M125 789q0 118 48 234.5t134.5 203.5t216 138.5t283.5 51.5t283.5 -51.5t216 -138.5t134.5 -204t48 -235t-35 -214t-115 -201.5t-268 -194.5l-5 -65h447l-42 -113h-442l15 199q6 4 17.5 11t43.5 34t85.5 85t106.5 177t53 257t-35.5 246t-101 193t-171 136t-235.5 51
t-235.5 -51t-206.5 -182t-101 -361t84 -356.5t136.5 -173t84.5 -66.5l16 -199h-443l-43 113h448l-5 65q-92 42 -172 108.5t-127.5 129t-82.5 159t-35 214.5z" />
    <glyph glyph-name="pi" unicode="&#x3c0;" horiz-adv-x="1187" 
d="M1042 19q36 0 71 12v-29q-35 -11 -79 -11t-82.5 10t-65 27t-53.5 58.5t-36.5 113.5t-9.5 161v527h-397v-888h-110v888h-215v28h1048v-28h-215v-581q0 -145 13.5 -178.5t28 -59t40.5 -38t62 -12.5z" />
    <glyph glyph-name="Wgrave" unicode="&#x1e80;" horiz-adv-x="2039" 
d="M592 -24l-521 1415h128l440 -1191l436 1214l449 -1212l413 1189h32l-491 -1415l-453 1218zM869 1754q1 51 53 51q26 0 52 -31l225 -266l-31 -5l-265 201q-34 26 -34 50z" />
    <glyph glyph-name="wgrave" unicode="&#x1e81;" horiz-adv-x="1526" 
d="M423 -22l-354 921h118l284 -739l344 761l329 -756l282 734h32l-354 -921l-334 771zM590 1283q0 51 52 51q26 0 52 -31l226 -266l-31 -5l-265 201q-34 26 -34 50z" />
    <glyph glyph-name="Wacute" unicode="&#x1e82;" horiz-adv-x="2039" 
d="M592 -24l-521 1415h128l440 -1191l436 1214l449 -1212l413 1189h32l-491 -1415l-453 1218zM1255 1754q0 -25 -33 -50l-266 -201l-30 5l225 266q27 32 52 32t38.5 -13.5t13.5 -38.5z" />
    <glyph glyph-name="wacute" unicode="&#x1e83;" horiz-adv-x="1526" 
d="M423 -22l-354 921h118l284 -739l344 761l329 -756l282 734h32l-354 -921l-334 771zM997 1283q0 -25 -33 -50l-266 -201l-30 5l225 266q27 31 52 31t38.5 -13t13.5 -38z" />
    <glyph glyph-name="Wdieresis" unicode="&#x1e84;" horiz-adv-x="2039" 
d="M592 -24l-521 1415h128l440 -1191l436 1214l449 -1212l413 1189h32l-491 -1415l-453 1218zM1205 1554q-33 0 -56 23.5t-23 56t23 55.5t56 23t56 -23t23 -55.5t-23 -56t-56 -23.5zM896 1554q-33 0 -56 23.5t-23 56t23 55.5t56 23t56 -23t23 -55.5t-23 -56t-56 -23.5z" />
    <glyph glyph-name="wdieresis" unicode="&#x1e85;" horiz-adv-x="1526" 
d="M423 -22l-354 921h118l284 -739l344 761l329 -756l282 734h32l-354 -921l-334 771zM948 1083q-33 0 -56 23t-23 56t23 56t56 23t56 -23t23 -56t-23 -56t-56 -23zM639 1083q-33 0 -56 23t-23 56t23 56t56 23t56 -23t23 -56t-23 -56t-56 -23z" />
    <glyph glyph-name="Ygrave" unicode="&#x1ef2;" horiz-adv-x="1191" 
d="M531 0v598l-469 793h135l451 -763l448 763h33l-475 -811v-580h-123zM417 1754q0 51 52 51q26 0 52 -31l225 -266l-30 -5l-265 201q-34 26 -34 50z" />
    <glyph glyph-name="ygrave" unicode="&#x1ef3;" horiz-adv-x="933" 
d="M458 14l-388 885h119l329 -747l329 747h32l-601 -1368h-33zM299 1283q1 51 53 51q26 0 51 -31l226 -266l-31 -5l-265 201q-34 26 -34 50z" />
    <glyph glyph-name="uni2011" unicode="&#x2011;" horiz-adv-x="830" 
d="M112 434v29h607v-29h-607z" />
    <glyph glyph-name="figuredash" unicode="&#x2012;" horiz-adv-x="1152" 
d="M112 434v29h928v-29h-928z" />
    <glyph glyph-name="endash" unicode="&#x2013;" horiz-adv-x="1152" 
d="M112 434v29h928v-29h-928z" />
    <glyph glyph-name="emdash" unicode="&#x2014;" horiz-adv-x="1730" 
d="M112 434v29h1507v-29h-1507z" />
    <glyph glyph-name="uni2015" unicode="&#x2015;" horiz-adv-x="1730" 
d="M112 434v29h1507v-29h-1507z" />
    <glyph glyph-name="quoteleft" unicode="&#x2018;" horiz-adv-x="416" 
d="M172 1296.5q-29 -69.5 -29 -120.5t30 -81q6 13 27 25t50 12t53.5 -25t24.5 -60.5t-26 -62t-80 -26.5t-93.5 49.5t-39.5 119.5q0 128 71 200t119 92l22 11v-14q-100 -50 -129 -119.5z" />
    <glyph glyph-name="quoteright" unicode="&#x2019;" horiz-adv-x="416" 
d="M244.5 1091q28.5 69 28.5 121t-29 81q-6 -12 -27 -24.5t-50 -12.5t-53.5 25t-24.5 60.5t25.5 62t79.5 26.5t94 -49.5t40 -119.5q0 -129 -70.5 -200.5t-120.5 -91.5l-21 -11v14q100 50 128.5 119z" />
    <glyph glyph-name="quotesinglbase" unicode="&#x201a;" horiz-adv-x="416" 
d="M244.5 -183.5q28.5 69.5 28.5 120.5t-22 73l-7 8q-6 -12 -27 -24t-50 -12t-53.5 24.5t-24.5 60t25.5 62t79.5 26.5t94 -49.5t40 -119.5q0 -128 -69 -199t-122 -94l-21 -9v13q100 50 128.5 119.5z" />
    <glyph glyph-name="quotedblleft" unicode="&#x201c;" horiz-adv-x="719" 
d="M475 1296.5q-29 -69.5 -29 -120.5t30 -81q6 13 27 25t50 12t53.5 -25t24.5 -60.5t-25.5 -62t-79.5 -26.5t-94 49.5t-40 119.5q0 128 69.5 199.5t120.5 92.5l22 11v-14q-100 -50 -129 -119.5zM172 1296.5q-29 -69.5 -29 -120.5t30 -81q6 13 27 25t50 12t53.5 -25
t24.5 -60.5t-26 -62t-80 -26.5t-93.5 49.5t-39.5 119.5q0 128 71 200t119 92l22 11v-14q-100 -50 -129 -119.5z" />
    <glyph glyph-name="quotedblright" unicode="&#x201d;" horiz-adv-x="719" 
d="M548 1091.5q29 69.5 29 120.5t-30 81q-6 -13 -27 -25t-50 -12t-53.5 25t-24.5 60.5t25 62t79 26.5t94.5 -49.5t40.5 -119.5q0 -130 -71.5 -201.5t-119.5 -90.5l-21 -11v14q100 50 129 119.5zM244.5 1091q28.5 69 28.5 121t-29 81q-6 -12 -27 -24.5t-50 -12.5t-53.5 25
t-24.5 60.5t25.5 62t79.5 26.5t94 -49.5t40 -119.5q0 -129 -70.5 -200.5t-120.5 -91.5l-21 -11v14q100 50 128.5 119z" />
    <glyph glyph-name="quotedblbase" unicode="&#x201e;" horiz-adv-x="719" 
d="M548 -183.5q29 69.5 29 119.5t-23 74l-7 8q-6 -13 -27 -24.5t-50 -11.5t-53.5 24.5t-24.5 60t25 62t79 26.5t94.5 -49.5t40.5 -119.5q0 -128 -70.5 -199.5t-120.5 -93.5l-21 -9v13q100 50 129 119.5zM244.5 -183.5q28.5 69.5 28.5 120.5t-22 73l-7 8q-6 -12 -27 -24
t-50 -12t-53.5 24.5t-24.5 60t25.5 62t79.5 26.5t94 -49.5t40 -119.5q0 -128 -69 -199t-122 -94l-21 -9v13q100 50 128.5 119.5z" />
    <glyph glyph-name="dagger" unicode="&#x2020;" horiz-adv-x="1070" 
d="M521 -469l-39 1361h-397l9 29h387l-13 470h134l-13 -470h396l-9 -29h-388l-39 -1361h-28z" />
    <glyph glyph-name="daggerdbl" unicode="&#x2021;" horiz-adv-x="1070" 
d="M85 631l9 28h394l-6 233h-397l9 29h387l-13 470h134l-13 -470h396l-9 -29h-388l-6 -233h403l-9 -28h-395l-32 -1100h-28l-32 1100h-404z" />
    <glyph glyph-name="bullet" unicode="&#x2022;" horiz-adv-x="651" 
d="M326 246q-84 0 -144 59.5t-60 144.5t60 144t144 59t143.5 -59t59.5 -144t-59.5 -144.5t-143.5 -59.5z" />
    <glyph glyph-name="ellipsis" unicode="&#x2026;" horiz-adv-x="1170" 
d="M890 66.5q0 35.5 24.5 60t60.5 24.5t61 -24.5t25 -60t-24.5 -60t-60.5 -24.5t-61 24.5t-25 60zM500 66.5q0 35.5 24.5 60t60.5 24.5t61 -24.5t25 -60t-25 -60t-61 -24.5t-60.5 24.5t-24.5 60zM110 66.5q0 35.5 24.5 60t60 24.5t61 -24.5t25.5 -60t-25.5 -60t-60.5 -24.5
t-60 24.5t-25 60z" />
    <glyph glyph-name="perthousand" unicode="&#x2030;" horiz-adv-x="2384" 
d="M343 -100l868 1592h33l-868 -1592h-33zM399.5 729q-141.5 0 -238 99t-96.5 240t96.5 241t238 100t237.5 -100t96 -241t-96 -240t-237.5 -99zM399.5 756q74.5 0 126.5 46.5t73 114t21 151.5t-21 152t-73 115t-126.5 47t-126.5 -47t-73 -115t-21 -152t21 -151.5t73 -114
t126.5 -46.5zM1652 320.5q0 141.5 96.5 241.5t238 100t237.5 -100t96 -241.5t-96 -240t-237.5 -98.5t-238 98.5t-96.5 240zM855 320.5q0 141.5 97 241.5t238 100t237.5 -100t96.5 -241.5t-96.5 -240t-237.5 -98.5t-238 98.5t-97 240zM1766 320.5q0 -83.5 21 -151.5
t73 -114.5t126.5 -46.5t126.5 46.5t73 114.5t21 151.5t-21 152t-73 115.5t-126.5 47t-126.5 -47t-73 -115.5t-21 -152zM970 320.5q0 -83.5 21 -151.5t72.5 -114.5t126.5 -46.5t126.5 46.5t72.5 114.5t21 151.5t-21 152t-72.5 115.5t-126.5 47t-126.5 -47t-72.5 -115.5
t-21 -152z" />
    <glyph glyph-name="guilsinglleft" unicode="&#x2039;" horiz-adv-x="540" 
d="M408 126l-327 328l328 327l20 -20l-308 -307l307 -308z" />
    <glyph glyph-name="guilsinglright" unicode="&#x203a;" horiz-adv-x="540" 
d="M460 454l-327 -328l-20 20l307 308l-308 307l20 20z" />
    <glyph glyph-name="fraction" unicode="&#x2044;" horiz-adv-x="274" 
d="M-281 -100h-32l868 1592h33z" />
    <glyph glyph-name="uni2070" unicode="&#x2070;" horiz-adv-x="629" 
d="M314 970q-98 0 -171.5 99t-73.5 263t73.5 263.5t171.5 99.5t172.5 -99.5t74.5 -263.5t-74.5 -263t-172.5 -99zM162 1332q0 -338 152 -338t152 338t-152 338t-152 -338z" />
    <glyph glyph-name="uni2074" unicode="&#x2074;" horiz-adv-x="675" 
d="M375 983v179h-325l424 534v-509h139v-25h-139v-179h-99zM375 1187v343l-275 -343h275z" />
    <glyph glyph-name="uni2075" unicode="&#x2075;" horiz-adv-x="603" 
d="M294 1469q106 0 170 -69.5t64 -170.5t-63.5 -180t-201.5 -79q-51 0 -93 15.5t-58 32.5l-17 15v44q3 -3 39.5 -43t123.5 -40t131.5 65t44.5 162t-45 160.5t-125 63.5q-44 0 -81 -20t-52 -40l-14 -19h-21l46 315h333l-29 -79h-290l-29 -194q61 61 167 61z" />
    <glyph glyph-name="uni2076" unicode="&#x2076;" horiz-adv-x="615" 
d="M332 1469q89 0 157 -69t68 -179t-74.5 -180.5t-172.5 -70.5t-169.5 72.5t-71.5 204.5q0 228 128.5 325.5t227.5 122.5v-25q-90 -24 -169 -113t-104 -223q47 135 180 135zM312 994q76 0 113.5 64t37.5 162t-37 161.5t-111 63.5t-113 -68.5t-39 -162.5t36.5 -157t112.5 -63
z" />
    <glyph glyph-name="uni2077" unicode="&#x2077;" horiz-adv-x="581" 
d="M91 1655v24h449l-316 -696h-103l304 672h-334z" />
    <glyph glyph-name="uni2078" unicode="&#x2078;" horiz-adv-x="624" 
d="M318 970q-118 0 -189 51.5t-71 140.5q0 130 180 205q-113 72 -113 168q0 74 51.5 117t133.5 43t133 -44.5t51 -105.5q0 -89 -111 -143q86 -44 134.5 -95t48.5 -139t-65 -143t-183 -55zM442 1547q0 54 -36 88.5t-95 34.5t-92.5 -30t-33.5 -62t22.5 -69.5t150.5 -94.5
q84 49 84 133zM320 994q79 0 128 43.5t49 104.5q0 80 -65.5 118t-109 60t-64.5 35q-130 -68 -130 -193q0 -84 56.5 -126t135.5 -42z" />
    <glyph glyph-name="uni2079" unicode="&#x2079;" horiz-adv-x="615" 
d="M284 1195q-89 0 -157.5 69.5t-68.5 179.5t75.5 180.5t172.5 70.5t169 -73t72 -205q0 -227 -128.5 -324.5t-228.5 -122.5v24q90 24 169 113t105 223q-47 -135 -180 -135zM304 1670q-76 0 -113.5 -64.5t-37.5 -161.5t36.5 -160.5t110.5 -63.5t113.5 68.5t39.5 162.5
t-36.5 156.5t-112.5 62.5z" />
    <glyph glyph-name="uni2080" unicode="&#x2080;" horiz-adv-x="629" 
d="M314 -15q-98 0 -171.5 99t-73.5 263t73.5 263.5t171.5 99.5t172.5 -99.5t74.5 -263.5t-74.5 -263t-172.5 -99zM162 347q0 -338 152 -338t152 338t-152 338t-152 -338z" />
    <glyph glyph-name="uni2081" unicode="&#x2081;" horiz-adv-x="648" 
d="M79 0v25h206v583l-129 -93v31l228 166v-687h206v-25h-511z" />
    <glyph glyph-name="uni2082" unicode="&#x2082;" horiz-adv-x="552" 
d="M344 527q0 160 -108 160q-60 0 -95 -38t-59 -86v60q27 53 81.5 71t89.5 18q90 0 137.5 -55t47.5 -124q0 -132 -93 -250t-166 -179l-29 -24h357l-29 -80h-438q196 180 250 317.5t54 209.5z" />
    <glyph glyph-name="uni2083" unicode="&#x2083;" horiz-adv-x="608" 
d="M284 685q-109 0 -156 -121v57q28 55 80 72t89 17q84 0 127.5 -43.5t43.5 -106.5q0 -96 -91 -154q75 -17 122 -73.5t47 -140.5t-67.5 -145.5t-187.5 -61.5t-192 62v45q50 -50 101.5 -66.5t80.5 -16.5q81 0 126 50.5t45 130.5t-34 130.5t-88 61.5q-52 -19 -120 -22l6 28
q37 22 98 24q78 42 78 150q0 55 -28.5 89t-79.5 34z" />
    <glyph glyph-name="uni2084" unicode="&#x2084;" horiz-adv-x="675" 
d="M375 0v179h-325l424 534v-509h139v-25h-139v-179h-99zM375 204v343l-275 -343h275z" />
    <glyph glyph-name="uni2085" unicode="&#x2085;" horiz-adv-x="603" 
d="M294 486q106 0 170 -69.5t64 -170.5t-63.5 -180t-201.5 -79q-51 0 -93 15.5t-58 32.5l-17 15v44q3 -3 39.5 -43t123.5 -40t131.5 65t44.5 162t-45 160.5t-125 63.5q-44 0 -81 -20t-52 -40l-14 -19h-21l46 315h333l-29 -80h-290l-29 -193q61 61 167 61z" />
    <glyph glyph-name="uni2086" unicode="&#x2086;" horiz-adv-x="615" 
d="M332 484q89 0 157 -69t68 -179t-74.5 -180.5t-172.5 -70.5t-169.5 72.5t-71.5 204.5q0 230 130 327t226 121v-25q-90 -24 -169 -113t-104 -223q47 135 180 135zM312 9q76 0 113.5 64.5t37.5 162.5t-37 161t-111 63t-113 -69t-39 -163t36.5 -156.5t112.5 -62.5z" />
    <glyph glyph-name="uni2087" unicode="&#x2087;" horiz-adv-x="581" 
d="M91 672v24h449l-316 -696h-103l304 672h-334z" />
    <glyph glyph-name="uni2088" unicode="&#x2088;" horiz-adv-x="624" 
d="M318 -15q-118 0 -189 51.5t-71 140.5q0 130 180 205q-113 72 -113 168q0 74 51.5 117t133.5 43t133 -44.5t51 -105.5q0 -89 -111 -143q86 -44 134.5 -95.5t48.5 -139.5t-65 -142.5t-183 -54.5zM442 562q0 54 -36 88.5t-95 34.5t-92.5 -29.5t-33.5 -61.5t22.5 -70
t150.5 -95q84 49 84 133zM320 9q79 0 128 43.5t49 104.5q0 80 -65.5 118t-109 60t-64.5 35q-130 -68 -130 -193q0 -84 56.5 -126t135.5 -42z" />
    <glyph glyph-name="uni2089" unicode="&#x2089;" horiz-adv-x="615" 
d="M58 458q0 110 75.5 181t172.5 71t169 -73t72 -205q0 -227 -128.5 -324.5t-228.5 -122.5v24q90 24 169 113t105 223q-47 -135 -180 -135q-89 0 -157.5 69t-68.5 179zM304 685q-76 0 -113.5 -64.5t-37.5 -161.5t36.5 -161t110.5 -64t113.5 69t39.5 163t-36.5 156.5
t-112.5 62.5z" />
    <glyph glyph-name="Euro" unicode="&#x20ac;" horiz-adv-x="1070" 
d="M184 695q0 51 5 110h-135l11 29h128q30 270 170.5 426.5t315.5 156.5q89 0 156 -33.5t99 -62.5v-82q-8 17 -71 83.5t-200 66.5t-232 -141.5t-115 -413.5h530l-10 -29h-521q-3 -51 -3 -109t3 -110h440l-11 -29h-428q20 -273 115.5 -414t244.5 -141q122 0 189.5 62.5
t82.5 85.5v-80q-121 -97 -267 -97q-175 0 -315.5 155.5t-172.5 428.5h-139l11 29h124q-5 58 -5 109z" />
    <glyph glyph-name="uni2116" unicode="&#x2116;" horiz-adv-x="1982" 
d="M1324 1090q0 140 85.5 233.5t213.5 93.5t214 -93.5t86 -233.5t-86 -233.5t-214 -93.5t-213.5 93.5t-85.5 233.5zM130 0v1414l1027 -1213v1190h29v-1415l-1027 1215v-1191h-29zM1437 1088.5q0 -87.5 16.5 -152t59.5 -107t110 -42.5q97 0 142 83.5t45 194.5t-17 176.5
t-60 108.5t-110 43t-110 -43t-59.5 -108.5t-16.5 -153z" />
    <glyph glyph-name="uni2117" unicode="&#x2117;" horiz-adv-x="1652" 
d="M85 695q0 205 100 371.5t269.5 258.5t372 92t372 -92t269.5 -258.5t100 -371.5t-100 -371t-269.5 -258.5t-372 -92.5t-372 92.5t-269.5 258.5t-100 371zM115 695.5q0 -196.5 95.5 -358.5t259 -253t357 -91t356.5 91t258.5 253t95.5 358.5t-95.5 358t-258.5 253
t-356.5 91.5t-357 -91.5t-259 -253t-95.5 -358zM600 274v842h260q126 0 209.5 -58t83.5 -170t-83.5 -170.5t-209.5 -58.5h-187v-385h-73zM673 678h176q221 0 221 210t-221 210h-176v-420z" />
    <glyph glyph-name="trademark" unicode="&#x2122;" horiz-adv-x="776" 
d="M331 1085l47 311l138 -255l137 255l44 -311h-41l-31 221l-121 -226l-123 225l-33 -220h-17zM156 1085v289h-102v17h246v-17h-102v-289h-42z" />
    <glyph glyph-name="Omega" unicode="&#x2126;" horiz-adv-x="1613" 
d="M125 789q0 118 48 234.5t134.5 203.5t216 138.5t283.5 51.5t283.5 -51.5t216 -138.5t134.5 -204t48 -235t-35 -214t-115 -201.5t-268 -194.5l-5 -65h447l-42 -113h-442l15 199q6 4 17.5 11t43.5 34t85.5 85t106.5 177t53 257t-35.5 246t-101 193t-171 136t-235.5 51
t-235.5 -51t-206.5 -182t-101 -361t84 -356.5t136.5 -173t84.5 -66.5l16 -199h-443l-43 113h448l-5 65q-92 42 -172 108.5t-127.5 129t-82.5 159t-35 214.5z" />
    <glyph glyph-name="estimated" unicode="&#x212e;" horiz-adv-x="1805" 
d="M908 -27q-229 0 -417.5 91.5t-299 256.5t-110.5 371t110.5 372.5t299.5 259.5t387 93t350 -55t262.5 -150t175.5 -229.5t65 -287.5v-14h-1511q2 -154 57 -283t199.5 -262.5t429.5 -133.5q190 0 347.5 70.5t250.5 199.5h108q-114 -142 -294.5 -220.5t-409.5 -78.5z
M906.5 1389q-140.5 0 -264.5 -48t-217 -134.5t-148 -214.5t-57 -282h1372q-3 154 -57.5 282t-147.5 214.5t-216.5 134.5t-264 48z" />
    <glyph glyph-name="partialdiff" unicode="&#x2202;" horiz-adv-x="1064" 
d="M641 1417q325 0 325 -546q0 -251 -65.5 -453t-194.5 -323.5t-295 -121.5t-244 95t-78 246t66.5 282.5t184.5 215t255 83.5q168 0 229.5 -102t73.5 -201q18 121 18 238q0 501 -302 501q-89 0 -152.5 -42t-120.5 -126h-25q39 98 129 176t196 78zM245 338q0 -106 19 -167
t68.5 -103.5t125.5 -42.5q136 0 253.5 130.5t170.5 355.5q-13 155 -79.5 245t-183.5 90t-203 -80.5t-128.5 -201t-42.5 -226.5z" />
    <glyph glyph-name="product" unicode="&#x220f;" horiz-adv-x="1497" 
d="M406 -196v1558h-321v29h1327v-29h-320v-1558h-122v1558h-443v-1558h-121z" />
    <glyph glyph-name="summation" unicode="&#x2211;" horiz-adv-x="1069" 
d="M157 -83h872l-40 -113h-951l547 755l-547 832h892l10 -29h-734l475 -721z" />
    <glyph glyph-name="minus" unicode="&#x2212;" horiz-adv-x="1122" 
d="M112 466v29h899v-29h-899z" />
    <glyph glyph-name="radical" unicode="&#x221a;" horiz-adv-x="1225" 
d="M37 590l-11 26l312 147l378 -835l443 1785h31l-489 -1969h-26l-428 945z" />
    <glyph glyph-name="infinity" unicode="&#x221e;" horiz-adv-x="1536" 
d="M343 248q-118 0 -195 63t-77 169.5t77 169.5t195 63q72 0 128.5 -22t127.5 -73l169 -120l169 120q70 50 127.5 72.5t128.5 22.5q117 0 194.5 -63t77.5 -169.5t-77.5 -169.5t-194.5 -63q-71 0 -128.5 22t-127.5 72l-169 121l-169 -121q-71 -50 -127.5 -72t-128.5 -22z
M1371 480q0 88 -50.5 146t-146.5 58t-222 -89l-160 -115l160 -114q126 -90 222 -90t146.5 58t50.5 146zM362 684q-97 0 -147 -57.5t-50 -146.5t50.5 -146.5t146.5 -57.5t222 90l159 114l-159 115q-125 89 -222 89z" />
    <glyph glyph-name="integral" unicode="&#x222b;" horiz-adv-x="668" 
d="M84 -483q-75 0 -122 56v62q7 -26 40.5 -58.5t81.5 -32.5q142 1 142 316v914q0 351 38.5 466.5t91 140t114.5 24.5t110 -56v-63q-7 26 -40.5 58.5t-90.5 32.5q-58 0 -85.5 -74t-27.5 -241v-915q0 -401 -67.5 -515.5t-184.5 -114.5z" />
    <glyph glyph-name="approxequal" unicode="&#x2248;" horiz-adv-x="1178" 
d="M600 632q153 -75 235 -75q116 0 157 68t46 88h29q-11 -49 -68 -117t-164 -68q-106 0 -257.5 75t-233.5 75q-114 0 -156.5 -68t-47.5 -88h-28q11 51 68.5 118t162.5 67q104 0 257 -75zM601 357.5q152 -74.5 234 -74.5q116 0 157 68t46 87h29q-11 -50 -68.5 -117
t-162.5 -67t-258.5 74.5t-233.5 74.5q-114 0 -156.5 -68t-47.5 -87h-28q11 52 69 118t163 66t257 -74.5z" />
    <glyph glyph-name="notequal" unicode="&#x2260;" horiz-adv-x="1135" 
d="M122 307v29h373l112 288h-485v28h496l110 278h32l-110 -278h364v-28h-375l-113 -288h488v-29h-499l-108 -276h-32l108 276h-361z" />
    <glyph glyph-name="lessequal" unicode="&#x2264;" horiz-adv-x="1084" 
d="M81 520v30l892 387v-33l-853 -368l853 -370v-33zM81 0v29h892v-29h-892z" />
    <glyph glyph-name="greaterequal" unicode="&#x2265;" horiz-adv-x="1084" 
d="M1004 550v-30l-892 -387v33l853 370l-853 368v33zM1004 29v-29h-892v29h892z" />
    <glyph glyph-name="dotmath" unicode="&#x22c5;" horiz-adv-x="390" 
d="M110 450q0 36 24.5 59t60 23t61 -24t25.5 -59.5t-25.5 -60t-60.5 -24.5t-60 25t-25 61z" />
    <glyph glyph-name="lozenge" unicode="&#x25ca;" horiz-adv-x="901" 
d="M451 -35l-384 730l384 730l384 -730zM451 30l350 665l-350 665l-351 -665z" />
    <glyph glyph-name="uniF638" unicode="&#xf638;" horiz-adv-x="1178" 
d="M346 115l21 -28l466 1189l-22 28zM589 -27q-93 0 -180 50t-156.5 140t-111.5 228.5t-42 286.5t39.5 315.5t168.5 295.5t282 128q93 0 180.5 -50t156.5 -139.5t111 -228.5t42 -304t-42 -303.5t-111 -228.5t-156.5 -140t-180.5 -50zM590 2q168 0 264.5 177t96.5 516
t-96.5 516.5t-264.5 177.5t-265.5 -177.5t-97.5 -516.5t97.5 -516t265.5 -177z" />
    <glyph glyph-name="uniF6C3" unicode="&#xf6c3;" horiz-adv-x="402" 
d="M237.5 -337.5q15.5 36.5 15.5 63.5t-15 46q-18 -31 -54 -31t-57.5 20.5t-21.5 52.5t23.5 52.5t65.5 20.5t72.5 -37t30.5 -81q0 -77 -39.5 -117t-80.5 -53v12q45 15 60.5 51.5z" />
    <glyph glyph-name="uniFB06" unicode="&#xfb06;" horiz-adv-x="1475" 
d="M698 776q-112 112 -302 112q-70 0 -143 -41t-73 -109t53 -106t205 -98t213 -98q127 -78 133 -191v-13q0 -108 -90.5 -177t-293.5 -69t-313 100v76q76 -91 175.5 -119.5t158.5 -28.5q129 0 196.5 53.5t67.5 125.5q0 93 -96 144.5t-223 102.5q-126 51 -195.5 107t-69.5 156
t91.5 156.5t235.5 56.5t251 -61q-71 85 -71 194.5t75.5 175.5t190.5 66t198 -65t83 -210v-117h260v-29h-260v-562q0 -145 13.5 -178.5t28 -59t40 -38t63.5 -12.5t70 12v-29q-35 -11 -79 -11t-82.5 10t-65 27t-53.5 58.5t-36.5 113.5t-9.5 161v508h-128v29q128 14 128 163
q0 77 -58 124.5t-144 47.5t-146.5 -53.5t-60.5 -145.5t47 -168l16 -23v-68z" />
    <glyph glyph-name="eight.inferior" horiz-adv-x="624" 
d="M318 -304q-118 0 -189 51.5t-71 140.5q0 130 180 205q-113 72 -113 168q0 74 51.5 117t133.5 43t133 -44.5t51 -105.5q0 -89 -111 -143q86 -44 134.5 -95t48.5 -139t-65 -143t-183 -55zM442 273q0 54 -36 88.5t-95 34.5t-92.5 -30t-33.5 -62t22.5 -69.5t150.5 -94.5
q84 49 84 133zM320 -280q79 0 128 43.5t49 112.5t-65.5 109t-109 62t-64.5 34q-130 -68 -130 -193q0 -84 56.5 -126t135.5 -42z" />
    <glyph glyph-name="eight.tnum" 
d="M80 349q0 273 393 427q-125 71 -193.5 149.5t-68.5 198.5t104.5 206t268.5 86t262.5 -90t98.5 -198t-74 -184.5t-193 -126.5q178 -89 254.5 -151.5t116.5 -136.5t40 -171q0 -169 -130.5 -277t-364.5 -108t-374 101t-140 275zM870 1122q0 117 -80 192t-209 75
t-204.5 -65.5t-75.5 -163.5t81 -168t146.5 -101.5t115.5 -56.5q226 98 226 288zM185 356q0 -91 38 -162t129 -131.5t230 -60.5q187 0 294 93t107 232q0 183 -219 296t-261 137q-318 -142 -318 -404z" />
    <glyph glyph-name="six.inferior" horiz-adv-x="615" 
d="M557 -53q0 -110 -74.5 -180.5t-172.5 -70.5t-169.5 72.5t-71.5 204.5q0 228 128.5 325.5t227.5 122.5v-25q-90 -24 -169 -112.5t-104 -223.5q47 136 180 136q89 0 157 -69.5t68 -179.5zM312 -280q76 0 113.5 64t37.5 162t-37 161.5t-111 63.5t-113 -68.5t-39 -162.5
t36.5 -157t112.5 -63z" />
    <glyph glyph-name="six.numr" horiz-adv-x="615" 
d="M332 1181q89 0 157 -69.5t68 -179.5t-74.5 -180.5t-172.5 -70.5t-169.5 72.5t-71.5 204.5q0 228 128.5 325.5t227.5 122.5v-25q-90 -24 -169 -112.5t-104 -222.5q47 135 180 135zM312 706q76 0 113.5 64.5t37.5 161.5t-37 160.5t-111 63.5t-113 -68.5t-39 -162.5
t36.5 -156.5t112.5 -62.5z" />
    <glyph glyph-name="six.oldstyle" horiz-adv-x="1139" 
d="M582 967q99 0 183 -34.5t150 -96.5t106 -156.5t40 -206.5t-42 -207.5t-149 -194t-294 -98.5t-295 100t-150 208.5t-42 236.5t25.5 236t68.5 191t126 182t219.5 178t270.5 112v-28q-161 -40 -322.5 -198.5t-232.5 -412.5q58 90 148.5 139.5t189.5 49.5zM217 463
q0 -217 95.5 -339t259.5 -122t262.5 128t98.5 342t-95.5 340t-258.5 126t-262.5 -129t-99.5 -346z" />
    <glyph glyph-name="eight.oldstyle" horiz-adv-x="1166" 
d="M79 349q0 273 393 427q-125 71 -193.5 149.5t-68.5 198.5t104 206t268 86t263 -90t99 -198t-74 -184.5t-193 -126.5q178 -89 254.5 -151.5t116 -135.5t39.5 -172q0 -169 -130.5 -277t-364.5 -108t-373.5 101t-139.5 275zM869 1122q0 117 -80 192t-209 75t-204.5 -65.5
t-75.5 -163.5t81 -168t146.5 -101.5t115.5 -56.5q226 98 226 288zM184 356q0 -91 38 -162t129 -131.5t230 -60.5q187 0 294 93t107 232t-107 216.5t-224 138t-149 78.5q-318 -142 -318 -404z" />
    <glyph glyph-name="six.oldstyle.tnum" 
d="M596 967q98 0 182.5 -34.5t150.5 -96.5t106 -156.5t40 -206.5t-42 -207.5t-149 -194t-294 -98.5t-295 100t-150 208.5t-42 236.5t26 236t69 191t125.5 182t220.5 178t269 112v-28q-161 -40 -323 -199.5t-232 -411.5q58 90 149 139.5t189 49.5zM231 463q0 -217 95.5 -339
t259.5 -122t262.5 128t98.5 342t-94.5 340t-258.5 126t-263.5 -129t-99.5 -346z" />
    <glyph glyph-name="eight.oldstyle.tnum" 
d="M80 349q0 273 393 427q-125 71 -193.5 149.5t-68.5 198.5t104.5 206t268.5 86t262.5 -90t98.5 -198t-74 -184.5t-193 -126.5q178 -89 254.5 -151.5t116.5 -136.5t40 -171q0 -169 -130.5 -277t-364.5 -108t-374 101t-140 275zM870 1122q0 117 -80 192t-209 75
t-204.5 -65.5t-75.5 -163.5t81 -168t146.5 -101.5t115.5 -56.5q226 98 226 288zM185 356q0 -91 38 -162t129 -131.5t230 -60.5q187 0 294 93t107 232q0 183 -219 296t-261 137q-318 -142 -318 -404z" />
    <glyph glyph-name="glyph424" horiz-adv-x="467" 
 />
    <glyph glyph-name="glyph425" horiz-adv-x="584" 
 />
    <glyph glyph-name="glyph426" horiz-adv-x="402" 
d="M237.5 -337.5q15.5 36.5 15.5 63.5t-15 46q-18 -31 -54 -31t-57.5 20.5t-21.5 52.5t23.5 52.5t65.5 20.5t72.5 -37t30.5 -81q0 -77 -39.5 -117t-80.5 -53v12q45 15 60.5 51.5z" />
    <glyph glyph-name="emdash.case" horiz-adv-x="1730" 
d="M112 681v29h1507v-29h-1507z" />
    <glyph glyph-name="endash.case" horiz-adv-x="1152" 
d="M112 681v29h928v-29h-928z" />
    <glyph glyph-name="three.dnom" horiz-adv-x="608" 
d="M284 685q-109 0 -156 -121v57q28 55 80 72t89 17q84 0 127.5 -43.5t43.5 -106.5q0 -96 -91 -154q75 -17 122 -73.5t47 -140.5t-67.5 -145.5t-187.5 -61.5t-192 62v45q50 -50 101.5 -66.5t80.5 -16.5q81 0 126 50.5t45 130.5t-34 130.5t-88 61.5q-52 -19 -120 -22l6 28
q37 22 98 24q78 42 78 150q0 55 -28.5 89t-79.5 34z" />
    <glyph glyph-name="three.tnum" 
d="M595 811q178 90 178 323q0 120 -65.5 187.5t-178.5 67.5q-65 0 -121.5 -25t-110 -80t-78.5 -112l-10 -24v93q9 22 42 56.5t95.5 77t209.5 42.5t238.5 -85.5t91.5 -201.5q0 -223 -198 -327q156 -27 254.5 -135t98.5 -284t-128 -293.5t-344 -117.5q-281 0 -416 125v69
q15 -21 103.5 -93t264.5 -72t281 104t105 268t-74.5 271t-212.5 129q-112 -39 -248 -39l14 29q26 16 88.5 31.5t120.5 15.5z" />
    <glyph glyph-name="three.numr" horiz-adv-x="608" 
d="M284 1381q-106 0 -156 -120v56q28 55 80 72t89 17q84 0 127.5 -43.5t43.5 -106.5q0 -96 -91 -154q75 -17 122 -73t47 -141t-67.5 -146t-188.5 -61q-60 0 -108 16t-65 31l-18 15v45q82 -82 173 -82q90 0 135 50t45 130t-34 130.5t-88 61.5q-52 -19 -120 -21l6 27
q37 22 98 24q78 42 78 150q0 55 -28.5 89t-79.5 34z" />
    <glyph glyph-name="three.oldstyle" horiz-adv-x="1009" 
d="M501 382q178 90 178 323q0 120 -65.5 187t-178.5 67q-209 0 -320 -240v93q9 22 81 99t266 77q147 0 238.5 -85t91.5 -201q0 -223 -198 -328q156 -27 254.5 -135.5t98.5 -284.5t-128 -293t-344 -117t-304 51t-113 74v69q13 -19 103 -92t266 -73t281 103.5t105 267.5
t-74.5 271.5t-213.5 129.5q-112 -39 -247 -39l14 29q26 16 88 31.5t121 15.5z" />
    <glyph glyph-name="three.oldstyle.tnum" 
d="M595 382q178 90 178 323q0 120 -65.5 187t-178.5 67q-209 0 -320 -240v93q9 22 42 56.5t95.5 77t209.5 42.5t238.5 -85t91.5 -201q0 -223 -198 -328q156 -27 254.5 -135.5t98.5 -284.5t-128 -293t-344 -117t-305 51.5t-111 73.5v69q15 -21 103.5 -93t264.5 -72t281 103.5
t105 267.5t-74.5 271.5t-212.5 129.5q-112 -39 -248 -39l14 29q26 16 88.5 31.5t120.5 15.5z" />
    <glyph glyph-name="equal.case" horiz-adv-x="1115" 
d="M112 839v28h892v-28h-892zM112 522v29h892v-29h-892z" />
    <glyph glyph-name="tilde.case" horiz-adv-x="776" 
d="M105 1530q0 75 41.5 120.5t111.5 45.5t162 -34.5t134 -34.5t66 23.5t28 63.5h23q0 -75 -42.5 -122.5t-112.5 -47.5t-162 34.5t-133 34.5q-84 0 -93 -83h-23z" />
    <glyph glyph-name="glyph436" horiz-adv-x="1115" 
d="M112 625v28h892v-28h-892zM112 308v29h892v-29h-892z" />
    <glyph glyph-name="two.dnom" horiz-adv-x="552" 
d="M344 527q0 160 -108 160q-60 0 -95 -38t-59 -86v60q27 53 81.5 71t89.5 18q90 0 137.5 -55t47.5 -124q0 -132 -93 -250t-166 -179l-29 -24h357l-29 -80h-438q196 180 250 317.5t54 209.5z" />
    <glyph glyph-name="two.tnum" 
d="M712 1304.5q-72 84.5 -194 84.5t-200.5 -75.5t-112.5 -165.5v92q65 114 167.5 145.5t183.5 31.5t152 -30.5t137.5 -110.5t66.5 -239q0 -208 -116.5 -380.5t-207 -269.5t-173.5 -169.5t-105 -88.5l-21 -16h745l-42 -113h-872q31 22 115 100t196 196.5t232.5 330
t120.5 402.5t-72 275.5z" />
    <glyph glyph-name="two.numr" horiz-adv-x="552" 
d="M236 1381q-97 0 -154 -124v60q27 53 81.5 71t89.5 18q90 0 137.5 -55t47.5 -123q0 -133 -94.5 -253t-164.5 -176l-29 -25h357l-29 -80h-438q196 180 250 317.5t54 210.5q0 159 -108 159z" />
    <glyph glyph-name="two.oldstyle" horiz-adv-x="866" 
d="M597 727q0 100 -54.5 166t-158.5 66q-61 0 -113 -23.5t-97 -73t-68 -108.5l-8 -24v92q7 17 38 51.5t87.5 74.5t186.5 40q131 0 218.5 -84.5t87.5 -210.5t-87 -245t-190 -203t-156 -116l-25 -16h567l-42 -113h-733q167 91 357 287t190 440z" />
    <glyph glyph-name="two.oldstyle.tnum" 
d="M748 727q0 100 -54.5 166t-158.5 66q-61 0 -113 -23.5t-98.5 -73.5t-66.5 -108l-8 -24v92q8 19 74 92.5t239 73.5q130 0 217 -84.5t87 -210.5q0 -248 -203.5 -398.5t-228.5 -165.5l-25 -16h567l-42 -113h-733q167 91 357 287t190 440z" />
    <glyph glyph-name="exclamdown.case" horiz-adv-x="390" 
d="M194.5 -27q-62.5 0 -62.5 78l48 1027h29l48 -1027q0 -78 -62.5 -78zM110 1324q0 36 25 60.5t61 24.5t60.5 -24.5t24.5 -60.5t-25.5 -60t-61 -24t-60 24t-24.5 60z" />
    <glyph glyph-name="Agrave.titl" horiz-adv-x="1257" 
d="M69 0l560 1426l560 -1426h-131l-215 548h-528l-215 -548h-31zM327 577h504l-251 644zM403 1754q0 51 53 51q26 0 52 -31l225 -266l-31 -5l-265 201q-34 26 -34 50z" />
    <glyph glyph-name="five.dnom" horiz-adv-x="603" 
d="M294 486q106 0 170 -69.5t64 -170.5t-63.5 -180t-201.5 -79q-51 0 -93 15.5t-58 32.5l-17 15v44q3 -3 39.5 -43t123.5 -40t131.5 65t44.5 162t-45 160.5t-125 63.5q-44 0 -81 -20t-52 -40l-14 -19h-21l46 315h333l-29 -80h-290l-29 -193q61 61 167 61z" />
    <glyph glyph-name="five.inferior" horiz-adv-x="603" 
d="M263 -302q-51 0 -93 16t-58 32l-17 15v44q3 -3 39.5 -43t123.5 -40t131.5 66t44.5 162t-45 159.5t-125 63.5q-44 0 -81 -20t-52 -39l-14 -20h-21l46 316h333l-29 -80h-290l-29 -194q61 62 167 62t170 -70t64 -171t-63.5 -180t-201.5 -79z" />
    <glyph glyph-name="five.tnum" 
d="M901 468q0 217 -105.5 343.5t-282.5 126.5q-99 0 -184.5 -41.5t-132.5 -121.5h-26l90 615h663l-40 -113h-613l-61 -444q43 51 121 92.5t197 41.5q217 0 359.5 -139.5t142.5 -351.5q0 -151 -77.5 -283.5t-198.5 -176t-209 -43.5q-156 0 -245 41.5t-131 83.5v68
q14 -20 99 -92t257 -72t274.5 124.5t102.5 341.5z" />
    <glyph glyph-name="five.numr" horiz-adv-x="603" 
d="M263 679q-51 0 -93 16t-58 32l-17 15v44q3 -3 39.5 -43t123.5 -40t131.5 65.5t44.5 161.5t-45 160t-125 64q-44 0 -81 -20t-52 -39l-14 -20h-21l46 316h333l-29 -80h-290l-29 -194q61 61 167 61t170 -69.5t64 -170.5t-63.5 -180t-201.5 -79z" />
    <glyph glyph-name="five.oldstyle" horiz-adv-x="1041" 
d="M462 -455q-223 0 -358 125v68q14 -20 100.5 -92t257.5 -72t273.5 124.5t102.5 341.5t-105.5 343.5t-282.5 126.5q-99 0 -185 -41.5t-133 -121.5h-26l91 615h662l-40 -113h-612l-62 -445q43 51 121 93t198 42q217 0 359.5 -139.5t142.5 -351.5q0 -151 -78 -283.5
t-199.5 -176t-226.5 -43.5z" />
    <glyph glyph-name="five.oldstyle.tnum" 
d="M798.5 -301.5q102.5 124.5 102.5 341.5t-105.5 343.5t-282.5 126.5q-99 0 -184.5 -41.5t-132.5 -121.5h-26l90 615h663l-40 -113h-613l-61 -445q43 51 121 93t197 42q217 0 359.5 -139.5t142.5 -351.5q0 -151 -77.5 -283.5t-198.5 -176t-209 -43.5q-156 0 -245 41.5
t-131 83.5v68q14 -20 99 -92t257 -72t274.5 124.5z" />
    <glyph glyph-name="zero.dnom" horiz-adv-x="629" 
d="M314 -15q-98 0 -171.5 99t-73.5 263t73.5 263.5t171.5 99.5t172.5 -99.5t74.5 -263.5t-74.5 -263t-172.5 -99zM162 347q0 -338 152 -338t152 338t-152 338t-152 -338z" />
    <glyph glyph-name="zero.inferior" horiz-adv-x="629" 
d="M314 -304q-98 0 -171.5 99.5t-73.5 263t73.5 263t171.5 99.5t172.5 -99.5t74.5 -263t-74.5 -263t-172.5 -99.5zM162 58q0 -338 152 -338t152 338t-152 338t-152 -338z" />
    <glyph glyph-name="zero.tnum" 
d="M583.5 -27q-93.5 0 -180.5 50t-156 140t-111 228.5t-42 286.5t38.5 314.5t168 295.5t283.5 129q93 0 180.5 -50t156.5 -139.5t111 -228.5t42 -304t-42 -303.5t-111 -228.5t-156.5 -140t-181 -50zM584 2q168 0 265 177t97 516t-97 516.5t-265 177.5t-265 -177.5
t-97 -516.5t97 -516t265 -177z" />
    <glyph glyph-name="zero.numr" horiz-adv-x="629" 
d="M314 681q-98 0 -171.5 99.5t-73.5 263t73.5 263t171.5 99.5t172.5 -99.5t74.5 -263t-74.5 -263t-172.5 -99.5zM162 1043.5q0 -337.5 152 -337.5t152 337.5t-152 337.5t-152 -337.5z" />
    <glyph glyph-name="zero.oldstyle.tnum" 
d="M106 480.5q0 144.5 66 261.5t175 181.5t221 64.5t199.5 -38.5t152.5 -104.5t103.5 -161t38.5 -204q0 -217 -141 -362t-337 -145q-128 0 -237 64.5t-175 181.5t-66 261.5zM234 480q0 -217 92.5 -347.5t257.5 -130.5t257.5 130.5t92.5 347.5t-92.5 348t-257.5 131
t-257.5 -131t-92.5 -348z" />
    <glyph glyph-name="four.dnom" horiz-adv-x="675" 
d="M375 0v179h-325l424 534v-509h139v-25h-139v-179h-99zM375 204v343l-275 -343h275z" />
    <glyph glyph-name="zero.oldstyle.zero" horiz-adv-x="1133" 
d="M89 480.5q0 144.5 65.5 261.5t174.5 181.5t221 64.5t200 -38.5t153 -104.5t103 -161t38 -204q0 -217 -140.5 -362t-337.5 -145q-128 0 -237 64.5t-174.5 181.5t-65.5 261.5zM217 480q0 -217 92 -347.5t257 -130.5t257.5 130.5t92.5 347.5t-92.5 348t-257.5 131t-257 -131
t-92 -348zM728 936l-350 -897l25 -14l353 897z" />
    <glyph glyph-name="four.inferior" horiz-adv-x="675" 
d="M375 -289v179h-325l424 534v-509h139v-25h-139v-179h-99zM375 -85v343l-275 -343h275z" />
    <glyph glyph-name="zero.oldstyle.tnum.zero" 
d="M106 480.5q0 144.5 66 261.5t175 181.5t221 64.5t199.5 -38.5t152.5 -104.5t103.5 -161t38.5 -204q0 -217 -141 -362t-337 -145q-128 0 -237 64.5t-175 181.5t-66 261.5zM234 480q0 -217 92.5 -347.5t257.5 -130.5t257.5 130.5t92.5 347.5t-92.5 348t-257.5 131
t-257.5 -131t-92.5 -348zM745 936l-350 -897l26 -14l352 897z" />
    <glyph glyph-name="four.tnum" 
d="M809 458h325v-29h-325v-429h-123v429h-663l786 989v-960zM686 458v754l-602 -754h602z" />
    <glyph glyph-name="four.numr" horiz-adv-x="675" 
d="M375 694v179h-325l424 534v-509h139v-25h-139v-179h-99zM375 898v343l-275 -343h275z" />
    <glyph glyph-name="acute.case" horiz-adv-x="544" 
d="M432 1754q0 -25 -34 -50l-265 -201l-31 5l226 266q27 32 52 32t38.5 -13.5t13.5 -38.5z" />
    <glyph glyph-name="four.oldstyle" horiz-adv-x="1203" 
d="M826 29h325v-29h-325v-429h-123v429h-663l786 989v-960zM703 29v754l-602 -754h602z" />
    <glyph glyph-name="four.oldstyle.tnum" 
d="M809 29h325v-29h-325v-429h-123v429h-663l786 989v-960zM686 29v754l-602 -754h602z" />
    <glyph glyph-name="Aacute.titl" horiz-adv-x="1257" 
d="M69 0l560 1426l560 -1426h-131l-215 548h-528l-215 -548h-31zM327 577h504l-251 644zM854 1754q0 -25 -34 -50l-265 -201l-31 5l226 266q27 32 52 32t38.5 -13.5t13.5 -38.5z" />
    <glyph glyph-name="glyph473" horiz-adv-x="1257" 
d="M69 0l560 1426l560 -1426h-131l-215 548h-528l-215 -548h-31zM327 577h504l-251 644zM381 1569v54h497v-54h-497z" />
    <glyph glyph-name="glyph474" horiz-adv-x="510" 
d="M407 -249q0 -69 -52.5 -109.5t-129.5 -40.5t-123 19l-5 25q47 -17 106 -17t93 32.5t34 90.5t-53 93.5t-127 35.5l142 120h36l-91 -97q59 0 114.5 -41.5t55.5 -110.5z" />
    <glyph glyph-name="grave.case" horiz-adv-x="544" 
d="M165 1805q26 0 52 -31l225 -266l-30 -5l-266 201q-34 26 -34 50t13.5 37.5t39.5 13.5z" />
    <glyph glyph-name="greater.case" horiz-adv-x="1084" 
d="M1004 710v-30l-892 -387v33l853 369l-853 369v33z" />
    <glyph glyph-name="greater.tnum" 
d="M1046 710v-30l-892 -387v33l853 369l-853 369v33z" />
    <glyph glyph-name="glyph478" horiz-adv-x="1084" 
d="M1004 495v-30l-892 -387v33l853 369l-853 369v33z" />
    <glyph glyph-name="glyph479" 
d="M1046 495v-30l-892 -387v33l853 369l-853 369v33z" />
    <glyph glyph-name="anoteleia.case" horiz-adv-x="390" 
d="M110 695q0 36 24.5 60t60 24t61 -24t25.5 -60t-25.5 -60.5t-60.5 -24.5t-60 24.5t-25 60.5z" />
    <glyph glyph-name="greaterequal.case" horiz-adv-x="1084" 
d="M1004 776v-30l-892 -387v33l853 370l-853 368v33zM1004 255v-29h-892v29h892z" />
    <glyph glyph-name="greaterequal.tnum" 
d="M1046 776v-30l-892 -387v33l853 370l-853 368v33zM1046 255v-29h-892v29h892z" />
    <glyph glyph-name="glyph483" horiz-adv-x="1084" 
d="M1004 550v-30l-892 -387v33l853 370l-853 368v33zM1004 29v-29h-892v29h892z" />
    <glyph glyph-name="glyph484" horiz-adv-x="1368" 
d="M292 317v785h784v-785h-784zM710 574h175v33h-136v87h109v31h-109v87h136v33h-175v-271zM455 574h40l23 66h106l24 -66h39l-99 271h-35zM528 672l43 114l41 -114h-84z" />
    <glyph glyph-name="glyph485" 
d="M1046 550v-30l-892 -387v33l853 370l-853 368v33zM1046 29v-29h-892v29h892z" />
    <glyph glyph-name="guillemotleft.case" horiz-adv-x="925" 
d="M466 695l328 328l20 -21l-308 -307l307 -307l-20 -20zM408 368l-327 327l328 328l20 -21l-308 -307l307 -307z" />
    <glyph glyph-name="approxequal.case" horiz-adv-x="1178" 
d="M600 847q153 -75 235 -75q116 0 157 68t46 88h29q-11 -49 -68 -117t-162 -68q-104 0 -258.5 75t-234.5 75q-114 0 -156.5 -68t-47.5 -88h-28q11 51 68.5 118t162.5 67q104 0 257 -75zM601 572.5q152 -74.5 234 -74.5q116 0 157 68t46 87h29q-11 -50 -68.5 -117
t-162.5 -67t-258.5 74.5t-233.5 74.5q-114 0 -156.5 -68t-47.5 -87h-28q11 52 69 118t163 66t257 -74.5z" />
    <glyph glyph-name="guillemotright.case" horiz-adv-x="925" 
d="M132 1023l328 -328l-327 -327l-20 20l307 307l-308 307zM845 695l-327 -327l-20 20l307 307l-308 307l20 21z" />
    <glyph glyph-name="approxequal.tnum" 
d="M595 847q153 -75 234 -75q114 0 156.5 68t47.5 88h29q-11 -49 -68 -117t-162 -68q-104 0 -258.5 75t-234.5 75q-114 0 -156.5 -68t-47.5 -88h-29q11 50 69 117.5t163 67.5q104 0 257 -75zM596 572.5q152 -74.5 233 -74.5q114 0 156.5 68t47.5 87h29q-11 -50 -68.5 -117
t-162.5 -67t-258.5 74.5t-233.5 74.5q-114 0 -156.5 -68t-47.5 -87h-29q11 50 69.5 117t163.5 67t257 -74.5z" />
    <glyph glyph-name="guilsinglleft.case" horiz-adv-x="540" 
d="M408 368l-327 327l328 328l20 -21l-308 -307l307 -307z" />
    <glyph glyph-name="glyph491" horiz-adv-x="1178" 
d="M600 632q153 -75 235 -75q116 0 157 68t46 88h29q-11 -49 -68 -117t-164 -68q-106 0 -257.5 75t-233.5 75q-114 0 -156.5 -68t-47.5 -88h-28q11 51 68.5 118t162.5 67q104 0 257 -75zM601 357.5q152 -74.5 234 -74.5q116 0 157 68t46 87h29q-11 -50 -68.5 -117
t-162.5 -67t-258.5 74.5t-233.5 74.5q-114 0 -156.5 -68t-47.5 -87h-28q11 52 69 118t163 66t257 -74.5z" />
    <glyph glyph-name="guilsinglright.case" horiz-adv-x="540" 
d="M460 695l-327 -327l-20 20l307 307l-308 307l20 21z" />
    <glyph glyph-name="glyph493" 
d="M595 632q153 -75 234 -75q114 0 156.5 68t47.5 88h29q-11 -49 -68 -117t-164 -68q-106 0 -257.5 75t-233.5 75q-114 0 -156.5 -68t-47.5 -88h-29q11 50 69 117.5t163 67.5q104 0 257 -75zM596 357.5q152 -74.5 233 -74.5q114 0 156.5 68t47.5 87h29q-11 -50 -68.5 -117
t-162.5 -67t-258.5 74.5t-233.5 74.5q-114 0 -156.5 -68t-47.5 -87h-29q11 50 69.5 117t163.5 67t257 -74.5z" />
    <glyph glyph-name="hcircumflex.ss05" horiz-adv-x="1003" 
d="M126 0v1391h111v-843q48 264 168.5 316t188.5 52q140 0 215 -97t75 -246v-573h-111v573q0 149 -41.5 232t-154.5 83q-79 0 -145.5 -45t-130.5 -156t-64 -283v-404h-111zM267 1503l-24 5l229 287l229 -287l-24 -5l-205 152z" />
    <glyph glyph-name="glyph495" horiz-adv-x="1257" 
d="M937 -371q-131 1 -131 123q0 64 73 132t179 116l-215 548h-528l-215 -548h-31l560 1426l560 -1426h-88q-95 -37 -156.5 -102t-61.5 -140q0 -92 89 -92q44 0 89 40v-29q-58 -48 -124 -48zM327 577h504l-251 644z" />
    <glyph glyph-name="hungarumlaut.case" horiz-adv-x="791" 
d="M679 1754q0 -25 -34 -50l-265 -201l-31 5l225 266q26 32 52 32t39.5 -13.5t13.5 -38.5zM432 1754q0 -25 -34 -50l-265 -201l-31 5l226 266q27 32 52 32t38.5 -13.5t13.5 -38.5z" />
    <glyph glyph-name="hyphen.case" horiz-adv-x="830" 
d="M112 681v29h607v-29h-607z" />
    <glyph glyph-name="asciitilde.case" horiz-adv-x="1178" 
d="M601 709.5q152 -74.5 234 -74.5q116 0 157 68t46 88h29q-11 -49 -68 -117t-164 -68q-106 0 -257.5 75t-233.5 75q-114 0 -156.5 -68t-47.5 -88h-28q11 52 69 118t163 66t257 -74.5z" />
    <glyph glyph-name="infinity.case" horiz-adv-x="1536" 
d="M343 463q-118 0 -195 63t-77 169.5t77 169.5t195 63q72 0 128.5 -22t127.5 -72l169 -121l169 121q70 50 127.5 72t128.5 22q117 0 194.5 -63t77.5 -169.5t-77.5 -169.5t-194.5 -63q-71 0 -128.5 22t-127.5 72l-169 121l-169 -121q-71 -50 -127.5 -72t-128.5 -22z
M1174 492q96 0 146.5 57.5t50.5 145.5t-50.5 146t-146.5 58t-222 -89l-160 -115l160 -114q126 -89 222 -89zM362 899q-97 0 -147 -57.5t-50 -146.5t50.5 -146t146.5 -57t222 89l159 114l-159 115q-125 89 -222 89z" />
    <glyph glyph-name="at.case" horiz-adv-x="1637" 
d="M756 -59q-124 0 -251.5 46t-221 129.5t-146 208t-52.5 282.5t65.5 312t176 267.5t266.5 182t337 68.5t326.5 -83t220.5 -221.5t75 -294.5t-49 -270t-139 -180.5t-204 -66.5q-186 0 -186 174v16q-102 -190 -274 -190q-89 0 -146.5 66.5t-57.5 189t57 235.5t148 180t187 67
q137 0 156 -83.5t19 -119.5l55 182h107l-122 -398q-37 -119 -37 -170q0 -102 114 -102q95 0 171 66.5t116 172.5t40 228q0 252 -167.5 411.5t-420.5 159.5q-203 0 -371 -105t-264.5 -285.5t-96.5 -380.5t69.5 -341t212.5 -225t337 -84t335 57t200 99l26 19l14 -22
q-152 -121 -326.5 -159t-298.5 -38zM610 582q0 -201 141 -201q67 0 123 51.5t107 171t51 240.5q0 71 -31.5 119.5t-105.5 48.5t-141.5 -64t-105.5 -163t-38 -203z" />
    <glyph glyph-name="glyph501" horiz-adv-x="1536" 
d="M343 248q-118 0 -195 63t-77 169.5t77 169.5t195 63q72 0 128.5 -22t127.5 -73l169 -120l169 120q70 50 127.5 72.5t128.5 22.5q117 0 194.5 -63t77.5 -169.5t-77.5 -169.5t-194.5 -63q-71 0 -128.5 22t-127.5 72l-169 121l-169 -121q-71 -50 -127.5 -72t-128.5 -22z
M1371 480q0 88 -50.5 146t-146.5 58t-222 -89l-160 -115l160 -114q126 -90 222 -90t146.5 58t50.5 146zM362 684q-97 0 -147 -57.5t-50 -146.5t50.5 -146.5t146.5 -57.5t222 90l159 114l-159 115q-125 89 -222 89z" />
    <glyph glyph-name="glyph502" 
d="M160 248q-118 0 -195.5 63t-77.5 169.5t77.5 169.5t195.5 63q72 0 128.5 -22t127.5 -73l169 -120l169 120q70 50 127.5 72.5t128.5 22.5q117 0 194.5 -63t77.5 -169.5t-78 -169.5t-194 -63q-71 0 -129 22t-127 72l-169 121l-169 -121q-71 -50 -128 -72t-128 -22z
M1188 480q0 88 -51 146t-147 58t-221 -89l-161 -115l161 -114q125 -90 221 -90t147 58t51 146zM178 684q-96 0 -146 -57.5t-50 -146.5t50 -146.5t146 -57.5t222 90l160 114l-160 115q-126 89 -222 89z" />
    <glyph glyph-name="glyph503" horiz-adv-x="667" 
d="M334 1187q-85 0 -140.5 -41.5t-65.5 -99.5l-23 -13q0 109 66 177t163 68t162.5 -68t65.5 -177l-22 13q-10 58 -65.5 99.5t-140.5 41.5z" />
    <glyph glyph-name="glyph504" horiz-adv-x="667" 
d="M334 1659q-85 0 -140.5 -41.5t-65.5 -99.5l-23 -13q0 109 66 177t163 68t162.5 -68t65.5 -177l-22 13q-10 58 -65.5 99.5t-140.5 41.5z" />
    <glyph glyph-name="bar.case" horiz-adv-x="354" 
d="M163 -300v1990h28v-1990h-28z" />
    <glyph glyph-name="braceleft.case" horiz-adv-x="539" 
d="M155 649q-23 0 -43 8v17q16 8 42 8t46 -7q80 45 -4 250t-84 318q0 114 25.5 176.5t89 119t258.5 56.5v-27q-147 0 -202 -83t-55 -193t29.5 -254.5t29.5 -207.5q0 -127 -66 -164q66 -40 66 -165q0 -62 -29.5 -206.5t-29.5 -222.5q0 -144 55.5 -226.5t201.5 -82.5v-27
q-195 0 -258.5 56.5t-89 119t-25.5 142.5q0 147 60.5 295.5t60.5 216.5q0 69 -33 89q-22 -6 -45 -6z" />
    <glyph glyph-name="braceright.case" horiz-adv-x="539" 
d="M384 682q24 0 44 -8v-17q-18 -8 -42 -8t-46 6q-34 -19 -34 -76t30.5 -140.5t61 -184t30.5 -190.5t-25.5 -152.5t-89 -119t-259.5 -56.5v27q205 0 231 115.5t26 193.5t-29 222t-29 207q0 125 65 165q-66 38 -65 164q0 62 29 207t29 223q0 145 -55.5 226.5t-201.5 81.5v27
q196 0 285 -78.5t89 -248.5q0 -90 -30.5 -191t-61 -184.5t-30.5 -140.5t34 -77q20 7 44 7z" />
    <glyph glyph-name="less.case" horiz-adv-x="1084" 
d="M81 680v30l892 387v-33l-853 -369l853 -369v-33z" />
    <glyph glyph-name="six.dnom" horiz-adv-x="615" 
d="M332 484q89 0 157 -69t68 -179t-74.5 -180.5t-172.5 -70.5t-169.5 72.5t-71.5 204.5q0 230 130 327t226 121v-25q-90 -24 -169 -113t-104 -223q47 135 180 135zM312 9q76 0 113.5 64.5t37.5 162.5t-37 161t-111 63t-113 -69t-39 -163t36.5 -156.5t112.5 -62.5z" />
    <glyph glyph-name="six.tnum" 
d="M596 967q98 0 182.5 -34.5t150.5 -96.5t106 -156.5t40 -206.5t-42 -207.5t-149 -194t-294 -98.5t-295 100t-150 208.5t-42 236.5t26 236t69 191t125.5 182t220.5 178t269 112v-28q-161 -40 -323 -199.5t-232 -411.5q58 90 149 139.5t189 49.5zM231 463q0 -217 95.5 -339
t259.5 -122t262.5 128t98.5 342t-94.5 340t-258.5 126t-263.5 -129t-99.5 -346z" />
    <glyph glyph-name="eight.numr" horiz-adv-x="624" 
d="M318 681q-118 0 -189 51.5t-71 140.5q0 130 180 205q-113 72 -113 168q0 74 51.5 117t133.5 43t133 -44.5t51 -105.5q0 -89 -111 -143q86 -44 134.5 -94.5t48.5 -138.5t-65 -143.5t-183 -55.5zM442 1258q0 54 -36 88.5t-95 34.5t-92.5 -29.5t-33.5 -61.5t23.5 -70.5
t149.5 -94.5q84 49 84 133zM320 706q79 0 128 43.5t49 89.5t-13.5 71.5t-41.5 48t-52 37t-67.5 36.5t-64.5 34q-130 -68 -130 -193q0 -84 56.5 -125.5t135.5 -41.5z" />
    <glyph glyph-name="less.tnum" 
d="M123 680v30l892 387v-33l-853 -369l853 -369v-33z" />
    <glyph glyph-name="glyph513" horiz-adv-x="1084" 
d="M81 465v30l892 387v-33l-853 -369l853 -369v-33z" />
    <glyph glyph-name="bracketleft.case" horiz-adv-x="542" 
d="M112 -264v1859h376v-28h-266v-1803h266v-28h-376z" />
    <glyph glyph-name="glyph515" 
d="M123 465v30l892 387v-33l-853 -369l853 -369v-33z" />
    <glyph glyph-name="lessequal.case" horiz-adv-x="1084" 
d="M81 746v30l892 387v-33l-853 -368l853 -370v-33zM81 226v29h892v-29h-892z" />
    <glyph glyph-name="lessequal.tnum" 
d="M123 746v30l892 387v-33l-853 -368l853 -370v-33zM123 226v29h892v-29h-892z" />
    <glyph glyph-name="AE.titl" horiz-adv-x="1640" 
d="M1537 1391v-29h-463v-638h364v-29h-364v-666h463v-29h-586v695h-411l-448 -695h-36l895 1391h586zM951 724v610l-393 -610h393z" />
    <glyph glyph-name="glyph519" horiz-adv-x="1257" 
d="M69 0l560 1426l560 -1426h-131l-215 548h-528l-215 -548h-31zM327 577h504l-251 644zM628.5 1504q-97.5 0 -163 68t-65.5 177l23 -12q10 -58 65.5 -100t140.5 -42t140.5 42t65.5 100l22 12q0 -109 -65.5 -177t-163 -68z" />
    <glyph glyph-name="Aring.titl" horiz-adv-x="1257" 
d="M69 0l560 1426l560 -1426h-131l-215 548h-528l-215 -548h-31zM327 577h504l-251 644zM628.5 1509q-71.5 0 -119.5 35.5t-48 94.5t48 95t119.5 36t120.5 -35t49 -95t-49 -95.5t-120.5 -35.5zM629 1532q38 0 63 27t25 79.5t-25 80t-63 27.5t-62.5 -27.5t-24.5 -80
t24.5 -79.5t62.5 -27z" />
    <glyph glyph-name="glyph521" horiz-adv-x="1084" 
d="M81 520v30l892 387v-33l-853 -368l853 -370v-33zM81 0v29h892v-29h-892z" />
    <glyph glyph-name="bracketright.case" horiz-adv-x="542" 
d="M431 1595v-1859h-377v28h267v1803h-267v28h377z" />
    <glyph glyph-name="glyph523" 
d="M123 520v30l892 387v-33l-853 -368l853 -370v-33zM123 0v29h892v-29h-892z" />
    <glyph glyph-name="logicalnot.case" horiz-adv-x="1122" 
d="M112 681v29h899v-350h-29v321h-870z" />
    <glyph glyph-name="breve.case" horiz-adv-x="667" 
d="M334 1504q-97 0 -163 68t-66 177l23 -12q10 -58 65.5 -100t140.5 -42t140.5 42t65.5 100l22 12q0 -109 -65.5 -177t-162.5 -68z" />
    <glyph glyph-name="brokenbar.case" horiz-adv-x="354" 
d="M163 862v828h28v-828h-28zM163 513h28v-813h-28v813z" />
    <glyph glyph-name="macron.case" horiz-adv-x="707" 
d="M105 1569v54h497v-54h-497z" />
    <glyph glyph-name="three.inferior" horiz-adv-x="608" 
d="M284 396q-109 0 -156 -121v57q28 55 80 72t89 17q84 0 127.5 -43.5t43.5 -106.5q0 -96 -91 -154q75 -17 122 -73t47 -141t-67.5 -146t-188.5 -61q-60 0 -108 16t-65 31l-18 15v45q50 -50 101.5 -66.5t80.5 -16.5q81 0 126 50.5t45 130.5t-34 130.5t-88 61.5
q-52 -19 -120 -21l6 27q37 22 98 24q78 42 78 150q0 55 -28.5 89t-79.5 34z" />
    <glyph glyph-name="minus.case" horiz-adv-x="1122" 
d="M112 681v29h899v-29h-899z" />
    <glyph glyph-name="minus.tnum" 
d="M1033 710v-29h-899v29h899z" />
    <glyph glyph-name="glyph531" horiz-adv-x="1122" 
d="M112 466v29h899v-29h-899z" />
    <glyph glyph-name="bullet.case" horiz-adv-x="651" 
d="M326 492q-84 0 -144 59t-60 144t60 144.5t144 59.5t143.5 -59.5t59.5 -144.5t-59.5 -144t-143.5 -59z" />
    <glyph glyph-name="glyph533" 
d="M134 466v29h899v-29h-899z" />
    <glyph glyph-name="multiply.tnum" 
d="M948 1041l-709 -712l-20 20l711 712zM948 349l-18 -20l-711 712l20 20z" />
    <glyph glyph-name="glyph535" horiz-adv-x="952" 
d="M821 115l-709 712l18 20l711 -712zM130 115l-18 20l709 712l20 -20z" />
    <glyph glyph-name="glyph536" 
d="M948 827l-709 -712l-20 20l711 712zM948 135l-18 -20l-711 712l20 20z" />
    <glyph glyph-name="caron.case" horiz-adv-x="669" 
d="M335 1503l-230 287l25 5l205 -151l205 151l24 -5z" />
    <glyph glyph-name="equal.tnum" 
d="M1030 867v-28h-892v28h892zM1030 551v-29h-892v29h892z" />
    <glyph glyph-name="glyph539" horiz-adv-x="328" 
d="M195 1428q23 0 36.5 -13t13.5 -31t-9 -44l-117 -306h-31l54 336q9 58 53 58z" />
    <glyph glyph-name="nine.dnom" horiz-adv-x="615" 
d="M58 458q0 110 75.5 181t172.5 71t169 -73t72 -205q0 -227 -128.5 -324.5t-228.5 -122.5v24q90 24 169 113t105 223q-47 -135 -180 -135q-89 0 -157.5 69t-68.5 179zM304 685q-76 0 -113.5 -64.5t-37.5 -161.5t36.5 -161t110.5 -64t113.5 69t39.5 163t-36.5 156.5
t-112.5 62.5z" />
    <glyph glyph-name="two.inferior" horiz-adv-x="552" 
d="M236 398q-97 0 -154 -124v60q27 53 81.5 71t89.5 18q90 0 137.5 -55.5t47.5 -123.5q0 -133 -94.5 -252.5t-164.5 -175.5l-29 -25h357l-29 -80h-438q196 180 250 317.5t54 210.5q0 159 -108 159z" />
    <glyph glyph-name="glyph542" 
d="M138 625v28h892v-28h-892zM138 308v29h892v-29h-892z" />
    <glyph glyph-name="nine.inferior" horiz-adv-x="615" 
d="M58 170q0 110 75.5 180.5t172.5 70.5t169 -73t72 -205q0 -227 -128.5 -324.5t-228.5 -122.5v24q90 24 169 113t105 223q-47 -135 -180 -135q-89 0 -157.5 69.5t-68.5 179.5zM304 396q-76 0 -113.5 -64.5t-37.5 -161.5t36.5 -160.5t110.5 -63.5t113.5 68.5t39.5 162.5
t-36.5 156.5t-112.5 62.5z" />
    <glyph glyph-name="nine.tnum" 
d="M572 424q-99 0 -183 34.5t-150 96t-106 156.5t-40 207t42 207.5t148.5 193.5t294.5 98t295.5 -99.5t149.5 -208.5t42 -237t-25.5 -236t-68.5 -191t-125 -181t-221 -178t-270 -113v29q160 40 323 199t232 411q-58 -90 -148.5 -139t-189.5 -49zM937 928q0 217 -95.5 339
t-259.5 122t-262.5 -128t-98.5 -342t95.5 -340t258.5 -126t262.5 129t99.5 346z" />
    <glyph glyph-name="nine.numr" horiz-adv-x="615" 
d="M58 1154q0 110 75.5 181t172.5 71t169 -72.5t72 -205.5q0 -227 -128.5 -324.5t-228.5 -122.5v25q90 24 169 112.5t105 222.5q-47 -135 -180 -135q-89 0 -157.5 69t-68.5 179zM304 1381q-76 0 -113.5 -64.5t-37.5 -161.5t36.5 -160.5t110.5 -63.5t113.5 68.5t39.5 162.5
t-36.5 156.5t-112.5 62.5z" />
    <glyph glyph-name="nine.oldstyle" horiz-adv-x="1139" 
d="M558 -5q-98 0 -182.5 34t-150.5 96t-106 156.5t-40 206.5t42 208t148.5 194t294.5 98t295.5 -100t149.5 -208.5t42 -236.5t-26 -236t-69 -191t-124.5 -181t-222 -178.5t-268.5 -112.5v29q161 40 322.5 199t232.5 411q-58 -90 -149 -139t-189 -49zM923 499
q0 217 -95.5 338.5t-259.5 121.5t-262.5 -127.5t-98.5 -341.5t94.5 -340t258.5 -126t263.5 129t99.5 346z" />
    <glyph glyph-name="Aringacute.titl" horiz-adv-x="1257" 
d="M730 1929q50 0 50 -44q0 -30 -32 -51l-184 -125l-29 5l144 181q27 34 51 34zM461 1535q0 58 48 94t119.5 36t120.5 -36t49 -94t-46 -93.5t-115 -37.5l552 -1404h-131l-215 548h-528l-215 -548h-31l551 1404q-69 2 -114 37.5t-45 93.5zM629 1426q38 0 63 27.5t25 79.5
t-25 79.5t-63 27.5t-62.5 -27.5t-24.5 -79.5t24.5 -79.5t62.5 -27.5zM327 577h504l-251 644z" />
    <glyph glyph-name="nine.oldstyle.tnum" 
d="M572 -5q-99 0 -183 34t-150 96t-106 156.5t-40 206.5t42 208t148.5 194t295.5 98t295.5 -100t148.5 -208.5t42 -236.5t-25.5 -236t-68.5 -191t-125 -181t-221 -178t-270 -113v29q160 40 323 199t232 411q-58 -90 -148.5 -139t-189.5 -49zM937 499q0 217 -95.5 338.5
t-259.5 121.5t-262.5 -127.5t-98.5 -341.5t95.5 -340t258.5 -126t262.5 129t99.5 346z" />
    <glyph glyph-name="notequal.case" horiz-adv-x="1135" 
d="M122 522v29h373l112 288h-485v28h496l110 278h32l-110 -278h364v-28h-375l-113 -288h488v-29h-499l-108 -276h-32l108 276h-361z" />
    <glyph glyph-name="notequal.tnum" 
d="M138 522v29h373l113 288h-486v28h497l109 278h32l-109 -278h363v-28h-375l-112 -288h487v-29h-499l-108 -276h-32l109 276h-362z" />
    <glyph glyph-name="glyph551" horiz-adv-x="1135" 
d="M122 307v29h373l112 288h-485v28h496l110 278h32l-110 -278h364v-28h-375l-113 -288h488v-29h-499l-108 -276h-32l108 276h-361z" />
    <glyph glyph-name="cent.superior" horiz-adv-x="557" 
d="M169 613h-28l259 583h28zM318 1115q-82 0 -122 -61.5t-40 -149.5t42 -148.5t100 -60.5t94.5 18t49.5 36l14 17v-49q-18 -18 -61.5 -31.5t-87.5 -13.5q-98 0 -162.5 62.5t-64.5 163.5t66.5 171.5t156.5 70.5t141 -42v-48q-44 65 -126 65z" />
    <glyph glyph-name="glyph553" 
d="M138 307v29h373l113 288h-486v28h497l109 278h32l-109 -278h363v-28h-375l-112 -288h487v-29h-499l-108 -276h-32l109 276h-362z" />
    <glyph glyph-name="circumflex.case" horiz-adv-x="669" 
d="M130 1503l-25 5l230 287l229 -287l-24 -5l-205 152z" />
    <glyph glyph-name="uni2116.ss06" horiz-adv-x="1982" 
d="M1324 1090q0 140 85.5 233.5t213.5 93.5t214 -93.5t86 -233.5t-86 -233.5t-214 -93.5t-213.5 93.5t-85.5 233.5zM130 0v1414l1027 -1213v1190h29v-1415l-1027 1215v-1191h-29zM1437 1088.5q0 -87.5 16.5 -152t59.5 -107t110 -42.5q97 0 142 83.5t45 194.5t-17 176.5
t-60 108.5t-110 43t-110 -43t-59.5 -108.5t-16.5 -153zM1375 654v29h496v-29h-496z" />
    <glyph glyph-name="Q.ss03" horiz-adv-x="1639" 
d="M85 718q0 176 98.5 343t267.5 261.5t345 94.5t311 -55.5t233.5 -151.5t156 -230t57.5 -285q0 -216 -108.5 -387t-289.5 -259l643 -239h-88l-591 223q-143 -59 -297 -59t-289.5 54.5t-234 148.5t-156.5 229.5t-58 311.5zM1416 695q0 144 -46 273t-125 221t-189.5 146
t-235.5 54t-235.5 -54t-189.5 -146t-125 -220.5t-46 -241.5t17 -172.5t79 -138.5t288 -163l482 -179q150 85 238 250t88 371zM820 2q126 0 238 54l-474 181q-271 103 -334 246q56 -215 211 -348t359 -133z" />
    <glyph glyph-name="glyph557" horiz-adv-x="584" 
d="M292 748q-36 0 -60.5 24t-24.5 60t24.5 60t60.5 24t61 -24.5t25 -59.5t-25 -59.5t-61 -24.5zM207 66.5q0 35.5 24.5 60t60.5 24.5t61 -24.5t25 -60t-25 -60t-61 -24.5t-60.5 24.5t-24.5 60z" />
    <glyph glyph-name="glyph558" horiz-adv-x="584" 
d="M291 -254q91 68 91 202q0 48 -20 78q-7 -16 -28 -30t-50 -14t-53 22t-24 60t27 63.5t77 25.5t85.5 -46t35.5 -107q0 -109 -47.5 -173t-79.5 -85l-14 -10v14z" />
    <glyph glyph-name="one.dnom" horiz-adv-x="648" 
d="M79 0v25h206v583l-129 -93v31l228 166v-687h206v-25h-511z" />
    <glyph glyph-name="one.inferior" horiz-adv-x="648" 
d="M79 -289v25h206v583l-129 -93v31l228 166v-687h206v-25h-511z" />
    <glyph glyph-name="one.tnum" 
d="M228 0v29h449v1263l-294 -212v36l417 301v-1388h447v-29h-1019z" />
    <glyph glyph-name="Acircumflex.titl" horiz-adv-x="1257" 
d="M69 0l560 1426l560 -1426h-131l-215 548h-528l-215 -548h-31zM327 577h504l-251 644zM424 1503l-25 5l230 287l229 -287l-24 -5l-205 152z" />
    <glyph glyph-name="Atilde.titl" horiz-adv-x="1257" 
d="M69 0l560 1426l560 -1426h-131l-215 548h-528l-215 -548h-31zM327 577h504l-251 644zM346 1530q0 75 42 120.5t112 45.5t161.5 -34.5t133.5 -34.5t66 23.5t28 63.5h22q0 -75 -42.5 -122.5t-112.5 -47.5t-161.5 34.5t-132.5 34.5q-84 0 -93 -83h-23z" />
    <glyph glyph-name="c_t.dlig" horiz-adv-x="1548" 
d="M1371 20q36 0 72 12v-29q-35 -11 -79 -11t-82.5 10t-65 27t-53 58t-36.5 109t-10 166v508h-128v29q128 13 128 157q0 87 -49.5 132.5t-133.5 45.5t-138 -55.5t-54 -150.5q0 -51 16 -99t33 -71l15 -23v-79q-49 81 -135 106.5t-142 25.5q-154 0 -243 -123t-89 -319
t97.5 -314t261.5 -118q109 0 175.5 47t94.5 94v-79q-56 -56 -144.5 -73t-141.5 -17q-197 0 -328.5 129.5t-131.5 330.5t129 335.5t320 134.5q146 0 250 -63q-63 83 -63 191t69.5 177.5t180.5 69.5t186.5 -68.5t75.5 -199.5v-124h260v-29h-260v-562q0 -144 13 -178t28 -59.5
t40.5 -38t61.5 -12.5z" />
    <glyph glyph-name="one.numr" horiz-adv-x="648" 
d="M79 694v25h206v584l-129 -94v31l228 166v-687h206v-25h-511z" />
    <glyph glyph-name="one.oldstyle" horiz-adv-x="1031" 
d="M48 0v29h422v834l-294 -212v36l417 301v-959h421v-29h-966z" />
    <glyph glyph-name="one.oldstyle.tnum" 
d="M132 0v29h422v834l-294 -212v36l417 301v-959h421v-29h-966z" />
    <glyph glyph-name="paragraph.ss07" horiz-adv-x="1293" 
d="M538 638q-124 0 -230.5 39t-174.5 125t-68 196q0 206 141.5 299.5t341.5 93.5h689l-19 -29h-85v-1620l-123 -60v1680h-171v-1769l-123 -62v1127q-54 -20 -178 -20z" />
    <glyph glyph-name="parenleft.case" horiz-adv-x="585" 
d="M112 664v4q0 359 102.5 557t168.5 268.5t86 85.5l21 16h41q-18 -12 -54.5 -52.5t-88.5 -120.5t-106 -275t-54 -479v-4q0 -578 135 -740.5t151 -175.5l17 -12h-41q-22 14 -67.5 60.5t-111.5 133.5t-132.5 278t-66.5 456z" />
    <glyph glyph-name="dieresis.case" horiz-adv-x="707" 
d="M508 1554q-33 0 -56 23.5t-23 56t23 55.5t56 23t56 -23t23 -55.5t-23 -56t-56 -23.5zM198.5 1554q-32.5 0 -55.5 23.5t-23 56t23 55.5t55.5 23t56 -23t23.5 -55.5t-23.5 -56t-56 -23.5z" />
    <glyph glyph-name="parenright.case" horiz-adv-x="585" 
d="M474 668v-4q0 -361 -104 -560t-168.5 -267.5t-84.5 -84.5l-22 -16h-41q98 65 200.5 297t102.5 631v4q0 572 -134.5 737t-150.5 178l-18 12h41q25 -15 69.5 -61t110 -131t132.5 -278t67 -457z" />
    <glyph glyph-name="divide.case" horiz-adv-x="1122" 
d="M560 924q-38 0 -64.5 26.5t-26.5 64.5t26.5 64.5t64.5 26.5t64.5 -26.5t26.5 -64.5t-26.5 -64.5t-64.5 -26.5zM112 681v29h899v-29h-899zM469 374q0 38 26.5 64.5t64.5 26.5t64.5 -26.5t26.5 -64.5t-26.5 -65t-64.5 -27t-64.5 27t-26.5 65z" />
    <glyph glyph-name="glyph573" horiz-adv-x="584" 
d="M207 66.5q0 35.5 24.5 60t60.5 24.5t61 -24.5t25 -60t-25 -60t-61 -24.5t-60.5 24.5t-24.5 60z" />
    <glyph glyph-name="divide.tnum" 
d="M585 924q-38 0 -64.5 26.5t-26.5 64.5t26.5 64.5t64.5 26.5t64.5 -26.5t26.5 -64.5t-26.5 -64.5t-64.5 -26.5zM1033 710v-29h-899v29h899zM676 374q0 -38 -26.5 -65t-64.5 -27t-64.5 27t-26.5 65t26.5 64.5t64.5 26.5t64.5 -26.5t26.5 -64.5z" />
    <glyph glyph-name="periodcentered.case" horiz-adv-x="390" 
d="M110 695q0 36 24.5 60t60 24t61 -24t25.5 -60t-25.5 -60.5t-60.5 -24.5t-60 24.5t-25 60.5z" />
    <glyph glyph-name="glyph576" horiz-adv-x="1122" 
d="M560 709q-38 0 -64.5 26.5t-26.5 64.5t26.5 64.5t64.5 26.5t64.5 -26.5t26.5 -64.5t-26.5 -64.5t-64.5 -26.5zM112 466v29h899v-29h-899zM469 158q0 38 26.5 65t64.5 27t64.5 -26.5t26.5 -64.5t-26.5 -65t-64.5 -27t-64.5 26.5t-26.5 64.5z" />
    <glyph glyph-name="plus.case" horiz-adv-x="1122" 
d="M112 681v29h435v436h28v-436h436v-29h-436v-434h-28v434h-435z" />
    <glyph glyph-name="glyph578" 
d="M585 709q-38 0 -64.5 26.5t-26.5 64.5t26.5 64.5t64.5 26.5t64.5 -26.5t26.5 -64.5t-26.5 -64.5t-64.5 -26.5zM1033 495v-29h-899v29h899zM676 158q0 -38 -26.5 -64.5t-64.5 -26.5t-64.5 27t-26.5 65t26.5 64.5t64.5 26.5t64.5 -27t26.5 -65z" />
    <glyph glyph-name="plus.tnum" 
d="M134 681v29h435v436h29v-436h435v-29h-435v-434h-29v434h-435z" />
    <glyph glyph-name="plus.oldstyle" horiz-adv-x="1122" 
d="M112 466v29h435v436h28v-436h436v-29h-436v-434h-28v434h-435z" />
    <glyph glyph-name="plus.oldstyle.tnum" 
d="M134 466v29h435v436h29v-436h435v-29h-435v-434h-29v434h-435z" />
    <glyph glyph-name="dollar.ss04" horiz-adv-x="1009" 
d="M504 -193h-29l170 1777h30zM330 -193h-29l170 1777h30zM503 1389q-58 0 -125.5 -27t-113.5 -81.5t-46 -110.5t18 -95t35.5 -63.5t71.5 -65t114 -77.5q61 -38 103 -64t134 -88t158.5 -154t66.5 -212q0 -212 -157 -286t-301 -74q-145 0 -236 49.5t-107 61.5l-17 14v68
q15 -17 113 -91t275 -74q131 0 229 78t98 195t-82.5 203t-232.5 187q-150 100 -177 122t-57.5 49t-65 72t-50.5 88t-16 97q0 98 85.5 202.5t303.5 104.5q62 0 127 -14t98 -29l32 -14v-63q-53 53 -136.5 72.5t-141.5 19.5z" />
    <glyph glyph-name="plusminus.case" horiz-adv-x="1135" 
d="M122 745v29h431v430h29v-430h432v-29h-432v-373h-29v373h-431zM122 185v29h892v-29h-892z" />
    <glyph glyph-name="plusminus.tnum" 
d="M1030 774v-29h-431v-373h-29v373h-432v29h432v430h29v-430h431zM1030 214v-29h-892v29h892z" />
    <glyph glyph-name="dollar.superior" horiz-adv-x="602" 
d="M266 607h-27l85 892h27zM301 1407q-69 0 -126 -39.5t-57 -105.5t33.5 -112t82.5 -79.5t131 -86t82 -135.5q0 -55 -44 -90t-112 -35q-109 0 -190 81v-43l22 -16q20 -15 67.5 -31t93.5 -16q87 0 157 41.5t70 141.5q0 63 -35 114.5t-84.5 83.5t-134 81.5t-84.5 118.5
q0 47 40.5 75t106.5 28t122 -44v41q-72 27 -141 27z" />
    <glyph glyph-name="glyph586" horiz-adv-x="1135" 
d="M122 560v29h431v430h29v-430h432v-29h-432v-374h-29v374h-431zM122 0v29h892v-29h-892z" />
    <glyph glyph-name="glyph587" 
d="M1030 589v-29h-431v-374h-29v374h-432v29h432v430h29v-430h431zM1030 29v-29h-892v29h892z" />
    <glyph glyph-name="dotaccent.case" horiz-adv-x="368" 
d="M184.5 1574q-32.5 0 -56 23t-23.5 56t23.5 56t56 23t55.5 -23t23 -56t-23 -56t-55.5 -23z" />
    <glyph glyph-name="H.aalt" horiz-adv-x="1323" 
d="M130 0v1391h123v-666h910v666h30v-1391h-30v695h-910v-695h-123z" />
    <glyph glyph-name="glyph590" horiz-adv-x="368" 
d="M184.5 -361q-32.5 0 -56 23t-23.5 55.5t23.5 55.5t56 23t55.5 -23t23 -55.5t-23 -55.5t-55.5 -23z" />
    <glyph glyph-name="questiondown.case" horiz-adv-x="948" 
d="M605 1078v-172q-8 -3 -23 -8t-57.5 -26.5t-113 -69.5t-142.5 -157.5t-72 -266.5t81.5 -266.5t239.5 -109.5t247.5 80.5t118.5 160.5v-92q-15 -26 -91 -102t-263 -76q-240 0 -356 119.5t-116 285.5q0 213 138.5 329t230.5 160.5t121 54.5l29 9v147h28zM676 1324
q0 -36 -24.5 -60t-60.5 -24t-61 24t-25 60t25 60.5t61 24.5t60.5 -24.5t24.5 -60.5z" />
    <glyph glyph-name="dotmath.case" horiz-adv-x="390" 
d="M110 695q0 36 24.5 60t60 24t61 -24t25.5 -60t-25.5 -60.5t-60.5 -24.5t-60 24.5t-25 60.5z" />
    <glyph glyph-name="glyph593" horiz-adv-x="538" 
d="M347 -427v1990h29v-1990h-29zM163 -427v1990h28v-1990h-28z" />
    <glyph glyph-name="glyph594" horiz-adv-x="538" 
d="M347 -300v1990h29v-1990h-29zM163 -300v1990h28v-1990h-28z" />
    <glyph glyph-name="glyph595" horiz-adv-x="791" 
d="M359 1283q0 51 53 51q26 0 52 -31l225 -266l-31 -5l-265 201q-34 26 -34 50zM165 1334q26 0 52 -31l225 -266l-30 -5l-266 201q-34 26 -34 50t13.5 37.5t39.5 13.5z" />
    <glyph glyph-name="glyph596" horiz-adv-x="791" 
d="M359 1754q0 51 53 51q26 0 52 -31l225 -266l-31 -5l-265 201q-34 26 -34 50zM165 1805q26 0 52 -31l225 -266l-30 -5l-266 201q-34 26 -34 50t13.5 37.5t39.5 13.5z" />
    <glyph glyph-name="registered.case" horiz-adv-x="1652" 
d="M85 695q0 205 100 371.5t269.5 258.5t372 92t372 -92t269.5 -258.5t100 -371.5t-100 -371t-269.5 -258.5t-372 -92.5t-372 92.5t-269.5 258.5t-100 371zM115 695.5q0 -196.5 95.5 -358.5t259 -253t357 -91t356.5 91t258.5 253t95.5 358.5t-95.5 358t-258.5 253
t-356.5 91.5t-357 -91.5t-259 -253t-95.5 -358zM574 274v842h261q126 0 209 -58t83 -170t-83 -170.5t-209 -58.5h-176l530 -385h-31l-511 372v-372h-73zM647 678h176q221 0 221 210t-221 210h-176v-420z" />
    <glyph glyph-name="Hbar.aalt" horiz-adv-x="1323" 
d="M130 0v1042h-163v29h163v320h123v-320h910v320h30v-320h163v-29h-163v-1042h-30v695h-910v-695h-123zM253 725h910v317h-910v-317z" />
    <glyph glyph-name="ring.case" horiz-adv-x="547" 
d="M273.5 1509q-71.5 0 -120 35.5t-48.5 94.5t48.5 95t120 36t120 -35t48.5 -95t-48.5 -95.5t-120 -35.5zM273.5 1532q37.5 0 62.5 27t25 79.5t-25 80t-62.5 27.5t-62.5 -27.5t-25 -80t25 -79.5t62.5 -27z" />
    <glyph glyph-name="zero.oldstyle" horiz-adv-x="1133" 
d="M89 480.5q0 144.5 65.5 261.5t174.5 181.5t221 64.5t200 -38.5t153 -104.5t103 -161t38 -204q0 -217 -140.5 -362t-337.5 -145q-128 0 -237 64.5t-174.5 181.5t-65.5 261.5zM217 480q0 -217 92 -347.5t257 -130.5t257.5 130.5t92.5 347.5t-92.5 348t-257.5 131t-257 -131
t-92 -348z" />
    <glyph glyph-name="glyph601" horiz-adv-x="584" 
d="M292 748q-36 0 -60.5 24t-24.5 60t24.5 60t60.5 24t61 -24.5t25 -59.5t-25 -59.5t-61 -24.5zM291 -254q91 68 91 202q0 48 -20 78q-7 -16 -28 -30t-50 -14t-53 22t-24 60t27 63.5t77 25.5t85.5 -46t35.5 -107q0 -109 -47.5 -173t-79.5 -85l-14 -10v14z" />
    <glyph glyph-name="zero.tnum.zero" 
d="M589 -27q-93 0 -180 50t-156.5 140t-111.5 228.5t-42 286.5t39.5 315.5t168.5 295.5t282 128q93 0 180.5 -50t156.5 -139.5t111 -228.5t42 -304t-42 -303.5t-111 -228.5t-156.5 -140t-180.5 -50zM590 2q168 0 264.5 177t96.5 516t-96.5 516.5t-264.5 177.5t-265.5 -177.5
t-97.5 -516.5t97.5 -516t265.5 -177zM346 115l21 -28l466 1189l-22 28z" />
    <glyph glyph-name="seven.dnom" horiz-adv-x="581" 
d="M91 672v24h449l-316 -696h-103l304 672h-334z" />
    <glyph glyph-name="seven.inferior" horiz-adv-x="581" 
d="M91 383v25h449l-316 -697h-103l304 672h-334z" />
    <glyph glyph-name="seven.tnum" 
d="M153 1362v29h891l-622 -1391h-131l611 1362h-749z" />
    <glyph glyph-name="seven.numr" horiz-adv-x="581" 
d="M91 1366v25h449l-316 -697h-103l304 672h-334z" />
    <glyph glyph-name="A.titl" horiz-adv-x="1257" 
d="M69 0l560 1426l560 -1426h-131l-215 548h-528l-215 -548h-31zM327 577h504l-251 644z" />
    <glyph glyph-name="AEacute.titl" horiz-adv-x="1640" 
d="M1537 1391v-29h-463v-638h364v-29h-364v-666h463v-29h-586v695h-411l-448 -695h-36l895 1391h586zM951 724v610l-393 -610h393zM1352 1754q0 -25 -34 -50l-265 -201l-31 5l225 266q27 32 53 32t39 -13.5t13 -38.5z" />
    <glyph glyph-name="Adieresis.titl" horiz-adv-x="1257" 
d="M69 0l560 1426l560 -1426h-131l-215 548h-528l-215 -548h-31zM327 577h504l-251 644zM783.5 1554q-32.5 0 -55.5 23.5t-23 56t23 55.5t55.5 23t55.5 -23t23 -55.5t-23 -56t-55.5 -23.5zM474 1554q-33 0 -56 23.5t-23 56t23 55.5t56 23t56 -23t23 -55.5t-23 -56t-56 -23.5
z" />
    <glyph glyph-name="Hcircumflex.aalt" horiz-adv-x="1323" 
d="M130 0v1391h123v-666h910v666h30v-1391h-30v695h-910v-695h-123zM499 1503l-25 5l229 287l230 -287l-25 -5l-205 152z" />
    <glyph glyph-name="seven.oldstyle" horiz-adv-x="1025" 
d="M81 933v29h892l-623 -1391h-131l611 1362h-749z" />
    <glyph glyph-name="eight.dnom" horiz-adv-x="624" 
d="M318 -15q-118 0 -189 51.5t-71 140.5q0 130 180 205q-113 72 -113 168q0 74 51.5 117t133.5 43t133 -44.5t51 -105.5q0 -89 -111 -143q86 -44 134.5 -95.5t48.5 -139.5t-65 -142.5t-183 -54.5zM442 562q0 54 -36 88.5t-95 34.5t-92.5 -29.5t-33.5 -61.5t22.5 -70
t150.5 -95q84 49 84 133zM320 9q79 0 128 43.5t49 104.5q0 80 -65.5 118t-109 60t-64.5 35q-130 -68 -130 -193q0 -84 56.5 -126t135.5 -42z" />
    <glyph glyph-name="seven.oldstyle.tnum" 
d="M153 933v29h891l-622 -1391h-131l611 1362h-749z" />
    <glyph glyph-name="uni2011.case" horiz-adv-x="830" 
d="M112 681v29h607v-29h-607z" />
    <glyph glyph-name="figuredash.case" horiz-adv-x="1152" 
d="M112 681v29h928v-29h-928z" />
    <glyph glyph-name="uni2015.case" horiz-adv-x="1730" 
d="M112 681v29h1507v-29h-1507z" />
    </font>
</defs>
</svg>
